<svg width="35" height="35" viewBox="0 0 35 35" fill="none" xmlns="http://www.w3.org/2000/svg">
<g clip-path="url(#clip0_7211_1450)">
<path d="M17.5 35C27.165 35 35 27.165 35 17.5C35 7.83502 27.165 0 17.5 0C7.83502 0 0 7.83502 0 17.5C0 27.165 7.83502 35 17.5 35Z" fill="#918291"/>
<path d="M17.4997 32.8875C25.9979 32.8875 32.887 25.9983 32.887 17.5001C32.887 9.00195 25.9979 2.11279 17.4997 2.11279C9.00146 2.11279 2.1123 9.00195 2.1123 17.5001C2.1123 25.9983 9.00146 32.8875 17.4997 32.8875Z" fill="#685E68"/>
<path d="M17.4997 30.246C24.539 30.246 30.2455 24.5395 30.2455 17.5002C30.2455 10.4609 24.539 4.75439 17.4997 4.75439C10.4604 4.75439 4.75391 10.4609 4.75391 17.5002C4.75391 24.5395 10.4604 30.246 17.4997 30.246Z" fill="#D6694B"/>
<path d="M17.4997 4.75439C17.1439 4.75439 16.7917 4.76964 16.4434 4.79814C22.9925 5.33436 28.1329 10.8108 28.1329 17.5002C28.1329 24.1889 22.9931 29.666 16.4434 30.2023C16.7918 30.2308 17.144 30.246 17.4997 30.246C24.5447 30.246 30.2455 24.5446 30.2455 17.5002C30.2455 10.455 24.5439 4.75439 17.4997 4.75439Z" fill="#C4573A"/>
<path d="M13.5178 28.7931C18.1072 28.7931 21.8277 25.2403 21.8277 20.8577C21.8277 16.4751 18.1072 12.9224 13.5178 12.9224C8.92845 12.9224 5.20801 16.4751 5.20801 20.8577C5.20801 25.2403 8.92845 28.7931 13.5178 28.7931Z" fill="#FFEAD8"/>
<path d="M13.5173 12.9224C13.1594 12.9224 12.8069 12.944 12.4609 12.9859C16.5516 13.4815 19.7145 16.8168 19.7145 20.8577C19.7145 24.8985 16.5516 28.2339 12.4609 28.7294C12.8068 28.7713 13.1594 28.7929 13.5173 28.7929C18.1067 28.7929 21.8271 25.2402 21.8271 20.8576C21.8271 16.475 18.1067 12.9224 13.5173 12.9224Z" fill="#FFE3CB"/>
<path d="M15.5388 24.5409C17.6729 23.3767 18.5016 20.7808 17.3898 18.7428C16.278 16.7049 13.6466 15.9967 11.5126 17.1609C9.37846 18.3252 8.54974 20.9211 9.66155 22.959C10.7734 24.997 13.4047 25.7052 15.5388 24.5409Z" fill="#FDB441"/>
<path d="M17.3821 18.7517C16.4593 17.0586 14.4876 16.2838 12.6229 16.7367C13.7241 17.0078 14.6981 17.7034 15.2694 18.7517C16.3802 20.7898 15.5506 23.3849 13.4163 24.5481C13.0552 24.745 12.6797 24.8869 12.2998 24.9792C13.3394 25.2352 14.4926 25.113 15.529 24.5481C17.6632 23.3849 18.4929 20.7898 17.3821 18.7517Z" fill="#FE860A"/>
<path d="M14.3587 10.576C11.8041 10.417 9.17513 11.221 7.14636 12.782C6.92194 12.9547 6.88003 13.2766 7.05264 13.501C7.22531 13.7253 7.54729 13.7674 7.77164 13.5946C9.60661 12.1828 11.9837 11.4556 14.295 11.5994C16.6058 11.7432 18.8749 12.7598 20.5206 14.3883C20.6205 14.4872 20.7509 14.5366 20.8812 14.5366C21.0133 14.5366 21.1453 14.4858 21.2456 14.3845C21.4447 14.1832 21.4431 13.8586 21.2418 13.6594C19.4223 11.8589 16.9135 10.735 14.3587 10.576Z" fill="#FFE177"/>
<path d="M16.3714 8.88636C13.6566 8.31816 10.7559 8.84391 8.41304 10.3289C8.17392 10.4804 8.10296 10.7972 8.25451 11.0364C8.4062 11.2756 8.72284 11.3465 8.9621 11.1949C11.0814 9.8516 13.7054 9.37609 16.1614 9.89001C18.6174 10.4041 20.8305 11.8921 22.2332 13.9726C22.3322 14.1194 22.494 14.1987 22.6588 14.1987C22.7574 14.1987 22.857 14.1703 22.9449 14.1111C23.1798 13.9527 23.2418 13.6341 23.0834 13.3993C21.5328 11.0995 19.0864 9.45456 16.3714 8.88636Z" fill="#FFE177"/>
<path d="M20.2542 7.68869C17.7279 6.28104 14.6478 6.12866 12.2164 7.29139C11.961 7.41355 11.853 7.71966 11.9751 7.97505C12.0973 8.23058 12.4035 8.33859 12.6588 8.21643C14.7953 7.1948 17.5144 7.33589 19.7552 8.58441C21.8171 9.73339 23.4974 11.8136 24.3653 14.2919C24.4392 14.503 24.6373 14.6352 24.8491 14.6352C24.9053 14.6352 24.9625 14.6259 25.0186 14.6063C25.2859 14.5127 25.4266 14.2202 25.333 13.9529C24.3834 11.2413 22.5322 8.95806 20.2542 7.68869Z" fill="#FFE177"/>
<path d="M27.5826 15.3627C27.1325 11.8837 25.0833 8.70387 22.1011 6.85666C21.8605 6.70764 21.5443 6.78181 21.3953 7.02257C21.2462 7.26326 21.3204 7.57929 21.5612 7.72838C24.2839 9.41488 26.1547 12.318 26.5656 15.4943C26.5991 15.7527 26.8196 15.9413 27.0735 15.9413C27.0954 15.9413 27.1176 15.9398 27.1399 15.937C27.4207 15.9006 27.6189 15.6435 27.5826 15.3627Z" fill="#FFE177"/>
<path d="M25.2884 19.0365C24.9459 19.7811 25.0329 20.6754 25.4419 21.3886C25.9218 22.2255 26.8462 22.8218 27.839 22.8981C28.8317 22.9744 29.8588 22.5133 30.4044 21.7142C30.9499 20.9152 30.9729 19.8073 30.4318 19.0055C29.3778 17.4438 26.1458 17.1727 25.2884 19.0365Z" fill="#EAA998"/>
<path d="M30.4318 19.0055C29.7074 17.9322 27.9544 17.4685 26.6504 17.8885C27.3403 18.0864 27.9578 18.4701 28.3191 19.0055C28.8602 19.8073 28.8372 20.9151 28.2917 21.7141C27.9846 22.1641 27.5246 22.5068 27.0041 22.7069C27.2708 22.8092 27.5518 22.876 27.839 22.8981C28.8317 22.9743 29.8588 22.5132 30.4043 21.7141C30.9499 20.9151 30.973 19.8072 30.4318 19.0055Z" fill="#E49280"/>
<path d="M22.6367 25.0291C22.375 25.6346 22.4416 26.3617 22.754 26.9416C23.1205 27.622 23.8267 28.1069 24.585 28.1689C25.3433 28.2309 26.128 27.856 26.5447 27.2063C26.9614 26.5566 26.979 25.6558 26.5656 25.0039C25.7605 23.734 23.2917 23.5136 22.6367 25.0291Z" fill="#EAA998"/>
<path d="M26.5656 25.0042C25.968 24.0616 24.454 23.698 23.4453 24.1928C23.8621 24.3684 24.2245 24.6439 24.453 25.0042C24.8664 25.6561 24.8488 26.5569 24.4321 27.2066C24.2477 27.494 23.9912 27.7274 23.6969 27.8933C23.971 28.0458 24.2734 28.1437 24.5851 28.1692C25.3434 28.2312 26.128 27.8563 26.5447 27.2066C26.9614 26.5569 26.979 25.6561 26.5656 25.0042Z" fill="#E49280"/>
<path d="M22.4903 16.0091C22.3468 16.3412 22.3832 16.74 22.5546 17.058C22.7556 17.4312 23.143 17.6971 23.5589 17.7312C23.9748 17.7652 24.4051 17.5595 24.6336 17.2032C24.8621 16.8469 24.8718 16.3528 24.6451 15.9953C24.2035 15.2989 22.8495 15.178 22.4903 16.0091Z" fill="#FDB441"/>
</g>
<defs>
<clipPath id="clip0_7211_1450">
<rect width="35" height="35" fill="white"/>
</clipPath>
</defs>
</svg>
