<svg width="35" height="35" viewBox="0 0 35 35" fill="none" xmlns="http://www.w3.org/2000/svg">
<g clip-path="url(#clip0_7211_1474)">
<path d="M17.5 35C27.165 35 35 27.165 35 17.5C35 7.83502 27.165 0 17.5 0C7.83502 0 0 7.83502 0 17.5C0 27.165 7.83502 35 17.5 35Z" fill="#918291"/>
<path d="M17.4997 32.8875C25.9979 32.8875 32.887 25.9983 32.887 17.5001C32.887 9.00195 25.9979 2.11279 17.4997 2.11279C9.00146 2.11279 2.1123 9.00195 2.1123 17.5001C2.1123 25.9983 9.00146 32.8875 17.4997 32.8875Z" fill="#685E68"/>
<path d="M17.5004 30.8801C24.8901 30.8801 30.8806 24.8896 30.8806 17.4999C30.8806 10.1102 24.8901 4.11963 17.5004 4.11963C10.1107 4.11963 4.12012 10.1102 4.12012 17.4999C4.12012 24.8896 10.1107 30.8801 17.5004 30.8801Z" fill="#FFE177"/>
<path d="M17.4997 4.11963C17.1441 4.11963 16.7919 4.13378 16.4434 4.16092C23.3436 4.69863 28.7673 10.4596 28.7673 17.4999C28.7673 24.5395 23.3442 30.3011 16.4434 30.8388C16.792 30.866 17.1442 30.8801 17.4997 30.8801C24.8954 30.8801 30.88 24.895 30.88 17.4999C30.88 10.104 24.8946 4.11963 17.4997 4.11963Z" fill="#FFD15B"/>
<path d="M13.2489 21.3897C14.3084 24.4294 14.0106 26.6687 12.7685 26.7744C11.5913 26.8745 10.0113 24.8434 9.29185 23.5627C7.71534 20.7561 8.88401 19.3647 9.97674 18.7646C11.0695 18.1646 12.1895 18.35 13.2489 21.3897Z" fill="#FFF8BF"/>
<path d="M21.7508 21.3897C20.6913 24.4294 20.9891 26.6687 22.2313 26.7744C23.4085 26.8745 24.9885 24.8434 25.7079 23.5627C27.2844 20.7561 26.1157 19.3647 25.023 18.7646C23.9303 18.1646 22.8103 18.35 21.7508 21.3897Z" fill="#FFF8BF"/>
<path d="M12.6332 14.7211C13.7083 12.5801 13.6847 9.97725 10.641 10.607C7.5974 11.2367 7.61839 16.9042 8.14311 17.1351C8.66791 17.366 10.1283 15.2459 10.5106 14.2593C10.5107 14.2593 11.5581 16.8622 12.6332 14.7211Z" fill="#FFFACE"/>
<path d="M22.3665 14.7211C21.2914 12.5801 21.315 9.97725 24.3587 10.607C27.4023 11.2367 27.3813 16.9042 26.8566 17.1351C26.3318 17.366 24.8714 15.2459 24.4891 14.2593C24.489 14.2593 23.4415 16.8622 22.3665 14.7211Z" fill="#FFF8BF"/>
<path d="M24.4858 19.6612C23.5204 22.4217 22.0035 21.8161 21.4355 23.0813C20.2037 25.8256 14.7957 25.8256 13.564 23.0813C12.9966 21.8161 11.4796 22.4217 10.5136 19.6612C9.54825 16.9012 13.0747 14.8668 13.3058 10.47C13.4789 7.1676 15.7574 7.19556 16.8814 6.91788C17.2867 6.81774 17.7128 6.81774 18.1181 6.91788C19.2421 7.19556 21.5208 7.16753 21.6943 10.47C21.9254 14.8668 25.4519 16.9012 24.4858 19.6612Z" fill="#FFFBE5"/>
<path d="M21.6942 10.47C21.5207 7.1676 19.2421 7.19556 18.118 6.91788C17.7127 6.81774 17.2866 6.81774 16.8813 6.91788C16.7495 6.95042 16.6016 6.97886 16.4434 7.00887C17.635 7.23487 19.4283 7.55486 19.5816 10.47C19.8127 14.8668 23.3391 16.9012 22.3731 19.6612C21.4078 22.4217 19.8908 21.8161 19.3228 23.0813C18.8389 24.1595 17.7101 24.8138 16.4434 25.0448C18.4007 25.4017 20.6877 24.7473 21.4354 23.0813C22.0034 21.8161 23.5205 22.4217 24.4858 19.6612C25.4518 16.9013 21.9254 14.8668 21.6942 10.47Z" fill="#FFFACE"/>
<path d="M23.471 7.95752H22.916C22.6329 7.95752 22.4033 8.187 22.4033 8.47021C22.4033 8.75343 22.6329 8.98291 22.916 8.98291H23.471C23.7542 8.98291 23.9837 8.75343 23.9837 8.47021C23.9837 8.187 23.7542 7.95752 23.471 7.95752Z" fill="#80D261"/>
<path d="M18.9135 12.7812C18.9135 12.498 18.6839 12.2686 18.4008 12.2686H17.8457C17.5626 12.2686 17.333 12.498 17.333 12.7812C17.333 13.0645 17.5626 13.2939 17.8457 13.2939H18.4008C18.6839 13.2939 18.9135 13.0644 18.9135 12.7812Z" fill="#80D261"/>
<path d="M7.68218 18.5383C7.59831 18.2678 7.31099 18.1166 7.0407 18.2004C6.77027 18.2842 6.61899 18.5714 6.7028 18.8419L6.86714 19.372C6.93529 19.592 7.13791 19.7331 7.35666 19.7331C7.4069 19.7331 7.45803 19.7256 7.50862 19.7099C7.77905 19.6261 7.93033 19.3389 7.84652 19.0684L7.68218 18.5383Z" fill="#80D261"/>
<path d="M15.3908 18.8556C15.4411 18.8556 15.4922 18.8481 15.5428 18.8325C15.8133 18.7486 15.9646 18.4614 15.8807 18.1909L15.7164 17.6607C15.6326 17.3903 15.3455 17.2393 15.0749 17.3228C14.8044 17.4067 14.6532 17.6939 14.737 17.9644L14.9013 18.4946C14.9695 18.7145 15.1721 18.8556 15.3908 18.8556Z" fill="#80D261"/>
<path d="M28.6942 19.3335L28.5299 18.8033C28.4461 18.5329 28.1589 18.3818 27.8884 18.4654C27.6179 18.5493 27.4666 18.8365 27.5505 19.107L27.7148 19.6372C27.783 19.8571 27.9855 19.9982 28.2043 19.9982C28.2546 19.9982 28.3057 19.9907 28.3563 19.9751C28.6267 19.8912 28.7781 19.604 28.6942 19.3335Z" fill="#80D261"/>
<path d="M20.2085 19.8641L19.7564 20.186C19.5257 20.3502 19.4719 20.6704 19.6361 20.901C19.7361 21.0416 19.894 21.1164 20.0542 21.1164C20.1571 21.1164 20.2609 21.0855 20.3512 21.0213L20.8033 20.6994C21.0339 20.5352 21.0878 20.215 20.9235 19.9844C20.7593 19.7537 20.4391 19.6999 20.2085 19.8641Z" fill="#80D261"/>
<path d="M19.2965 27.1022C19.2127 26.8317 18.9255 26.6807 18.655 26.7642C18.3845 26.8481 18.2332 27.1353 18.3171 27.4057L18.4813 27.9359C18.5495 28.1559 18.7521 28.297 18.9709 28.297C19.0212 28.297 19.0723 28.2895 19.1228 28.2739C19.3933 28.19 19.5446 27.9028 19.4608 27.6324L19.2965 27.1022Z" fill="#80D261"/>
<path d="M15.9892 26.6919L15.4363 26.6436C15.1549 26.6189 14.9056 26.8276 14.8809 27.1097C14.8563 27.3918 15.0649 27.6404 15.347 27.6651L15.8998 27.7134C15.915 27.7148 15.9301 27.7153 15.9451 27.7153C16.2081 27.7153 16.432 27.5142 16.4553 27.2473C16.4799 26.9652 16.2712 26.7166 15.9892 26.6919Z" fill="#80D261"/>
<path d="M11.84 7.82021C11.6072 7.65902 11.2878 7.71712 11.1267 7.95002L10.8109 8.40646C10.6497 8.63929 10.7079 8.95866 10.9407 9.11979C11.0297 9.18138 11.1314 9.21098 11.232 9.21098C11.3946 9.21098 11.5545 9.1338 11.6541 8.98997L11.9699 8.53354C12.131 8.30071 12.0729 7.98133 11.84 7.82021Z" fill="#80D261"/>
</g>
<defs>
<clipPath id="clip0_7211_1474">
<rect width="35" height="35" fill="white"/>
</clipPath>
</defs>
</svg>
