<svg width="12" height="8" viewBox="0 0 12 8" fill="none" xmlns="http://www.w3.org/2000/svg">
<path d="M11.6094 2.21169L6.35937 7.81704C6.29687 7.88357 6.22917 7.93058 6.15625 7.95808C6.08333 7.98603 6.00521 8 5.92188 8C5.83854 8 5.76042 7.98603 5.6875 7.95808C5.61458 7.93058 5.54687 7.88357 5.48437 7.81704L0.21875 2.21169C0.0729166 2.05645 0 1.8624 0 1.62954C0 1.39667 0.078125 1.19708 0.234375 1.03075C0.390625 0.864416 0.572917 0.781251 0.78125 0.781251C0.989583 0.781251 1.17188 0.864416 1.32813 1.03075L5.92188 5.92087L10.5156 1.03075C10.6615 0.875505 10.841 0.797884 11.0544 0.797884C11.2681 0.797884 11.4531 0.881049 11.6094 1.04738C11.7656 1.21371 11.8438 1.40776 11.8438 1.62954C11.8438 1.85131 11.7656 2.04536 11.6094 2.21169V2.21169Z" fill="white"/>
</svg>
