<svg width="31" height="31" viewBox="0 0 31 31" fill="none" xmlns="http://www.w3.org/2000/svg">
<path d="M10.9962 1.56539L9.85481 5.289C9.72733 5.70488 9.33752 5.98419 8.90274 5.97116L5.12236 5.85793C4.44573 5.83766 3.95882 6.50186 4.18175 7.14103L5.40894 10.6596C5.54509 11.05 5.4176 11.4837 5.09186 11.7383L1.82321 14.2932C1.32173 14.6852 1.33008 15.4466 1.84004 15.8275L5.09037 18.2552C5.43406 18.5119 5.56718 18.9645 5.41717 19.3664L4.10511 22.8816C3.86958 23.5126 4.33618 24.1848 5.00971 24.1848H9.00065C9.45243 24.1848 9.84381 24.4981 9.94276 24.9389L10.8031 28.7714C10.9536 29.4419 11.7365 29.745 12.2992 29.3507L15.6291 27.0179C15.9847 26.7687 16.4629 26.7876 16.7978 27.064L19.4272 29.2346C19.9652 29.6787 20.7821 29.4233 20.9713 28.7518L22.0194 25.0304C22.1366 24.6142 22.5164 24.3266 22.9488 24.3266H26.6411C27.2868 24.3266 27.7505 23.7051 27.5666 23.0861L26.3779 19.0848C26.2627 18.6974 26.4012 18.2792 26.7247 18.0369L29.7642 15.7611C30.2892 15.3681 30.278 14.5772 29.742 14.1992L26.5679 11.9604C26.2054 11.7047 26.0637 11.2349 26.2245 10.8214L27.6426 7.17408C27.8931 6.52973 27.4051 5.83858 26.7141 5.85905L22.9287 5.97116C22.4899 5.98415 22.0976 5.69959 21.9738 5.27849L20.9303 1.73097C20.7397 1.08315 19.9601 0.826003 19.4215 1.23335L16.5058 3.43864C16.1479 3.70937 15.6506 3.69778 15.3057 3.41068L12.537 1.10622C12.0068 0.664937 11.1983 0.905871 10.9962 1.56539Z" stroke="#525CE5" stroke-width="1.5" stroke-linecap="round"/>
<path d="M13.6445 17.2743L20.0854 10.7205C20.2855 10.5169 20.5402 10.415 20.8496 10.415C21.1589 10.415 21.4136 10.5169 21.6137 10.7205C21.8139 10.9242 21.9139 11.1833 21.9139 11.4981C21.9139 11.8128 21.8139 12.072 21.6137 12.2756L14.4086 19.607C14.1903 19.8291 13.9356 19.9402 13.6445 19.9402C13.3533 19.9402 13.0986 19.8291 12.8803 19.607L10.0419 16.7189C9.84177 16.5152 9.7417 16.256 9.7417 15.9413C9.7417 15.6266 9.84177 15.3674 10.0419 15.1637C10.2421 14.9601 10.4968 14.8583 10.8061 14.8583C11.1154 14.8583 11.3701 14.9601 11.5703 15.1637L13.6445 17.2743Z" fill="#525CE5"/>
</svg>
