<svg width="95" height="68" viewBox="0 0 95 68" fill="none" xmlns="http://www.w3.org/2000/svg">
<path d="M36.5305 20.2457H89.224L82.2071 11.8395H29.512L36.5305 20.2457Z" fill="#BBBBBB"/>
<path d="M41.4087 61.0947H94.1037L89.224 20.2457H36.5305L41.4087 61.0947Z" fill="#CCCCCC"/>
<path d="M38.9371 67.0721H91.6306L94.1035 60.8634H41.4085L38.9371 67.0721Z" fill="#BBBBBB"/>
<path d="M29.5121 11.8395L22.6562 20.2457L17.2888 60.8635L20.3533 67.0722H38.9373L41.4087 60.8635L36.5306 20.2457L29.5121 11.8395Z" fill="#8E8E8E"/>
<path d="M38.9373 67.0721L41.4087 60.8634L29.1674 55.2327L17.2888 60.8634L20.3533 67.0721H38.9373Z" fill="#C78640"/>
<path d="M30.3928 12.8946L36.5292 20.2457L29.6793 16.9735L22.6578 20.2457L29.1721 0L36.4585 10.1236L80.9339 10.3328L83.0863 12.8946H30.3928Z" fill="#626262"/>
<path d="M37.2515 11.0057H83.6295C85.0202 11.0057 85.9158 9.92198 85.3197 8.96169L79.7567 0.00158691H29.1704L35.4664 10.1432C35.793 10.667 36.4929 11.0057 37.2515 11.0057Z" fill="#BBBBBB"/>
<path d="M52.9066 63.1135C52.9066 64.1865 52.4698 65.1566 51.7603 65.8586C51.0534 66.5605 50.0738 66.9967 48.9932 66.9967H4.88542C3.22412 66.9967 1.80267 65.9664 1.23712 64.5123C1.06544 64.0786 0.974548 63.6074 0.974548 63.1135C0.974548 62.8402 1.00232 62.5745 1.05787 62.3163C1.21693 61.5617 1.59312 60.8899 2.12079 60.3659C2.82773 59.664 3.80734 59.2278 4.88542 59.2278H48.9957C51.1569 59.2278 52.9066 60.9676 52.9066 63.111V63.1135Z" fill="#FC9C51"/>
<path d="M0.0530051 60.4788C-0.0101142 60.6919 -0.0404114 60.9476 0.111075 61.1106C0.199442 61.2058 0.333255 61.2434 0.462018 61.271C2.00465 61.5919 3.60031 60.7822 5.15809 61.0178C6.24122 61.1808 7.20316 61.8351 8.28881 61.9955C10.147 62.2688 11.9043 61.0554 13.7777 60.9201C15.6359 60.7872 17.4007 61.7173 19.2539 61.9178C22.1624 62.2312 24.9523 60.7295 27.8659 60.4563C30.6684 60.193 33.486 61.0755 36.286 60.8097C36.8945 60.7521 37.508 60.6393 38.1114 60.7245C38.7779 60.8173 39.3839 61.1432 40.0226 61.3462C41.9743 61.9654 44.085 61.429 46.1326 61.4039C48.5614 61.3738 51.0054 62.0682 53.3938 61.5844C53.5832 61.5468 53.7599 61.449 53.8862 61.3036C54.1285 61.0203 54.0073 60.7897 53.8862 60.5816C52.9394 58.9822 51.4775 57.6159 49.6799 57.1121C47.5212 56.5079 45.2262 57.1948 42.9842 57.1271C40.5251 57.0519 38.1568 56.0667 35.6952 56.0241C33.5895 55.989 31.547 56.6433 29.4843 57.0745C23.748 58.2703 17.8047 57.7162 11.9699 57.1572C8.70287 56.8438 1.32549 56.2397 0.0530051 60.4864V60.4788Z" fill="#60B645"/>
<path d="M4.74151 60.0652C5.44087 60.173 6.08469 59.6967 6.7689 59.5187C7.92525 59.2153 9.13966 59.7719 10.3288 59.6716C10.9827 59.6164 11.6114 59.3607 12.2679 59.3281C13.6868 59.2605 14.9896 60.2306 16.4085 60.2056C17.1432 60.193 17.84 59.9123 18.5621 59.7769C20.9026 59.3357 23.2986 60.4337 25.6668 60.173C27.3508 59.9875 28.9137 59.1226 30.6053 59.0323C32.668 58.922 34.6424 59.9749 36.7076 59.9724C38.1392 59.9724 39.5556 59.461 40.9795 59.6265C41.9238 59.7368 42.805 60.1379 43.7139 60.4136C45.6832 61.0078 47.8343 60.9977 49.7986 60.3861C49.9804 60.3284 50.1773 60.2532 50.2606 60.0852C50.3894 59.822 50.1748 59.5287 49.9703 59.3181C48.7255 58.0296 47.3571 56.7736 45.6554 56.1945C44.2643 55.7207 42.757 55.7408 41.2876 55.7633C35.3291 55.8536 29.358 55.9137 23.4223 55.4124C20.8925 55.1993 18.345 54.8809 15.8227 55.1617C12.8107 55.4951 9.90214 56.6733 6.86989 56.6357C5.89281 56.6232 4.0371 56.4377 3.40843 57.4379C2.87066 58.2903 3.75433 59.9248 4.74151 60.0752V60.0652Z" fill="#4CA245"/>
<path d="M13.808 47.4078C12.7501 47.2172 11.7124 47.7211 10.6647 47.9518C9.19018 48.2776 7.6425 48.0621 6.12764 48.1548C4.61278 48.2476 2.95905 48.7765 2.29251 50.0425C2.24454 50.1353 2.20414 50.2531 2.27736 50.3308C2.32028 50.3734 2.38593 50.3885 2.44652 50.401C6.50635 51.1556 10.6823 49.7191 14.8154 49.9498C16.0727 50.02 17.3124 50.2431 18.5647 50.3709C20.4481 50.5589 22.3493 50.5263 24.2429 50.4913C25.0659 50.4762 26.0758 50.3484 26.3738 49.6364C26.5581 49.1977 26.3687 48.6813 26.0127 48.3428C25.6593 48.0069 25.1695 47.8239 24.6797 47.7036C22.5336 47.1721 20.2563 47.6785 18.042 47.5055C16.257 47.3651 14.3155 46.8111 12.7779 47.666L13.8004 47.4103L13.808 47.4078Z" fill="#F46627"/>
<path d="M39.5253 47.6635C37.9877 46.8087 36.0461 47.3627 34.2611 47.5031C32.0494 47.6786 29.7696 47.1722 27.6235 47.7011C27.1337 47.8215 26.2122 47.6836 25.8587 48.0195C25.5052 48.3554 25.7451 49.1952 25.9294 49.634C26.2273 50.3459 27.2372 50.4738 28.0603 50.4888C29.9539 50.5239 31.855 50.5565 33.7385 50.3685C34.9908 50.2431 36.2304 50.0175 37.4878 49.9473C41.6208 49.7167 45.7968 51.1531 49.8566 50.3986C49.9172 50.386 49.9854 50.3735 50.0258 50.3284C50.099 50.2507 50.0611 50.1328 50.0106 50.0401C49.3441 48.7741 47.6904 48.2451 46.1755 48.1524C44.6607 48.0596 43.1155 48.2777 41.6385 47.9493C40.5907 47.7162 39.553 47.2123 38.4952 47.4053L39.5177 47.661L39.5253 47.6635Z" fill="#F46627"/>
<path d="M4.8602 52.2059C9.88701 51.7396 14.9467 52.5118 19.9987 52.4967C22.8744 52.4867 25.7401 52.2235 28.6132 52.1157C34.5767 51.8926 40.5403 52.3488 46.4987 52.6572C48.2105 52.7449 49.9375 52.8226 51.6366 52.6045C52.1668 52.5368 52.7904 52.3614 52.9318 51.8901C53.154 51.1505 52.0406 50.7268 51.2049 50.6466C47.6677 50.3007 44.1305 49.9547 40.5933 49.6088C39.1542 49.4684 37.71 49.328 36.2633 49.3355C33.0619 49.3556 29.8857 50.1102 26.6919 49.9121C23.9677 49.7416 21.3167 48.8818 18.5849 48.9144C15.8127 48.9469 13.1364 49.8946 10.3667 50.04C7.49101 50.1904 4.04217 49.2979 1.33309 50.5363C-1.90114 52.0154 3.66598 52.3212 4.85515 52.2109L4.8602 52.2059Z" fill="#F9C93B"/>
<path d="M0.378736 54.2968C-0.0403757 55.3447 -0.244882 56.6132 0.484777 57.5056C1.00488 58.1424 1.8936 58.4382 2.75202 58.5485C4.52441 58.7741 6.31195 58.3555 8.10201 58.3078C10.6975 58.2376 13.2424 58.9446 15.8329 59.0925C18.5167 59.2454 21.1879 58.7917 23.8515 58.4633C30.5447 57.6335 37.3489 57.5608 44.0598 58.2502C46.1528 58.4658 48.2888 58.7515 50.3414 58.3204C51.215 58.1374 52.1088 57.7839 52.5885 57.092C53.2222 56.1719 52.9394 54.9636 52.4976 53.9533C52.24 53.3642 51.9169 52.7701 51.3715 52.379C50.4752 51.7422 49.228 51.8074 48.0919 51.8174C43.671 51.8601 39.3309 50.6141 34.9075 50.5916C30.4008 50.5665 25.9067 51.8099 21.4353 51.2785C19.7033 51.0729 18.0067 50.5991 16.2621 50.5439C13.4141 50.4512 10.6318 51.4715 7.78136 51.4213C4.52441 51.3662 1.69667 50.9877 0.376211 54.3018L0.378736 54.2968Z" fill="#BD3B27"/>
<path d="M53.0505 43.7276V46.7008C53.0505 47.6108 52.3082 48.3479 51.3917 48.3479H2.63332C1.71683 48.3479 0.974548 47.6083 0.974548 46.7008V43.7276C0.974548 43.4569 0.982123 43.1886 0.999796 42.9229C1.41891 35.8584 7.32182 30.2555 14.5427 30.2555H39.4824C45.3625 30.2555 50.3692 33.9707 52.2526 39.165C52.7702 40.589 53.0505 42.1257 53.0505 43.7301V43.7276Z" fill="#FC9C51"/>
<path d="M7.03907 52.201C6.34981 52.2285 5.65044 52.2561 4.99905 52.4817C4.30222 52.7224 3.69375 53.1787 3.22667 53.7452C3.15345 53.8355 3.08023 53.9332 3.05246 54.0461C2.95147 54.4622 3.46904 54.748 3.89321 54.8257C5.79436 55.1742 7.71571 54.5249 9.62948 54.2416C12.3966 53.8305 15.2118 54.1889 17.9991 54.4321C20.8167 54.6778 23.6521 54.8082 26.4748 54.6251C28.8354 54.4697 31.186 54.0962 33.5492 54.1814C35.7508 54.2616 38.0736 54.7179 40.0782 53.8104C40.2045 53.7527 40.3332 53.6851 40.414 53.5722C40.6993 53.1686 40.1615 52.6898 39.697 52.5193C36.334 51.2935 32.6125 52.3514 29.0323 52.3063C27.7397 52.2912 26.4495 52.1283 25.1568 52.1558C23.6319 52.1884 22.117 52.4842 20.5895 52.4517C18.0723 52.3965 15.5804 51.3336 13.0556 51.5868C11.0358 51.7898 9.09928 52.1157 7.04159 52.1985L7.03907 52.201Z" fill="#D44327"/>
<path d="M52.2527 39.165C51.008 39.6414 49.743 40.0625 48.468 40.4411C36.743 43.9106 24.2858 43.7627 12.0533 43.5847C8.3671 43.5296 4.64811 43.4769 0.999817 42.9254C1.41893 35.8584 7.32184 30.2555 14.5427 30.2555H39.4824C45.3626 30.2555 50.3692 33.9707 52.2527 39.165Z" fill="#FFAE54"/>
<path d="M9.28105 33.4644C9.26337 33.5095 9.24822 33.5596 9.26842 33.6048C9.2861 33.6373 9.31892 33.6574 9.35427 33.6724C9.64966 33.7978 9.98293 33.6599 10.2733 33.527C10.7404 33.3089 11.2377 33.0633 11.4751 32.607C11.5129 32.5318 11.5458 32.4516 11.5432 32.3663C11.5407 32.1733 11.3615 32.0179 11.1721 31.9753C10.3137 31.7797 9.54362 32.7825 9.28105 33.4669V33.4644Z" fill="#FFD461"/>
<path d="M12.2376 36.7082C12.2325 36.7559 12.2325 36.811 12.2653 36.8461C12.2906 36.8737 12.3284 36.8837 12.3663 36.8862C12.6844 36.9238 12.9672 36.7007 13.2071 36.4901C13.5934 36.1517 14.0024 35.7757 14.1008 35.2718C14.116 35.189 14.1236 35.1038 14.1008 35.0236C14.0428 34.8381 13.8282 34.7403 13.6337 34.7503C12.7551 34.803 12.2981 35.9787 12.2401 36.7082H12.2376Z" fill="#FFD461"/>
<path d="M43.0625 36.0965C43.1104 36.1066 43.1635 36.1141 43.2038 36.089C43.2341 36.069 43.2493 36.0314 43.2594 35.9963C43.3402 35.6879 43.1584 35.3796 42.9817 35.1138C42.6989 34.6852 42.3808 34.2314 41.8935 34.0634C41.8127 34.0359 41.7294 34.0183 41.6435 34.0309C41.4517 34.0609 41.3229 34.259 41.3052 34.452C41.2345 35.3219 42.3429 35.9361 43.0625 36.0991V36.0965Z" fill="#FFD461"/>
<path d="M49.2911 38.1673C49.334 38.1924 49.382 38.2149 49.4274 38.1999C49.4628 38.1898 49.488 38.1573 49.5082 38.1272C49.6774 37.8564 49.5941 37.508 49.5032 37.2021C49.3593 36.7108 49.1901 36.1843 48.7735 35.881C48.7053 35.8308 48.6296 35.7882 48.5463 35.7757C48.3544 35.7481 48.1701 35.901 48.0994 36.079C47.7737 36.8913 48.6523 37.8013 49.2911 38.1648V38.1673Z" fill="#FFD461"/>
<path d="M41.3027 40.2179C41.3431 40.243 41.3911 40.2681 41.4391 40.2555C41.4744 40.2455 41.4996 40.2154 41.5224 40.1853C41.6991 39.9196 41.6259 39.5686 41.5426 39.2603C41.4113 38.7639 41.2573 38.2325 40.8483 37.9216C40.7826 37.8715 40.7069 37.8263 40.6235 37.8113C40.4317 37.7787 40.2448 37.9266 40.1691 38.1021C39.8207 38.9043 40.674 39.8394 41.3052 40.2204L41.3027 40.2179Z" fill="#FFD461"/>
<path d="M26.9696 35.2417C27.0075 35.2718 27.0529 35.3019 27.1009 35.2944C27.1388 35.2893 27.1665 35.2618 27.1918 35.2317C27.3963 34.9885 27.3635 34.63 27.318 34.3142C27.2448 33.8078 27.1514 33.2612 26.7803 32.9053C26.7197 32.8476 26.6515 32.795 26.5682 32.7699C26.3813 32.7172 26.1794 32.8401 26.0834 33.0081C25.6466 33.7651 26.3889 34.7905 26.9721 35.2392L26.9696 35.2417Z" fill="#FFD461"/>
<path d="M34.4429 33.7502C34.4783 33.7828 34.5187 33.8179 34.5667 33.8179C34.6045 33.8179 34.6374 33.7928 34.6626 33.7677C34.8974 33.5496 34.9075 33.1911 34.8999 32.8727C34.8898 32.3613 34.8621 31.8073 34.5389 31.4087C34.4859 31.3435 34.4227 31.2834 34.347 31.2483C34.1677 31.1731 33.9531 31.2708 33.8345 31.4263C33.3068 32.1257 33.9203 33.2312 34.4429 33.7477V33.7502Z" fill="#FFD461"/>
<path d="M19.4155 34.0209C19.4332 34.066 19.4534 34.1161 19.4988 34.1337C19.5342 34.1487 19.572 34.1412 19.6074 34.1287C19.9129 34.0309 20.0745 33.71 20.2058 33.4192C20.4153 32.9504 20.6299 32.4415 20.5087 31.9426C20.4885 31.8599 20.4582 31.7797 20.4027 31.717C20.2739 31.5716 20.0366 31.5716 19.8624 31.6619C19.0848 32.073 19.163 33.3315 19.4155 34.0184V34.0209Z" fill="#FFD461"/>
<path d="M20.4431 41.4689C20.4633 41.5115 20.4885 41.5591 20.534 41.5741C20.5693 41.5867 20.6072 41.5741 20.6425 41.5616C20.9405 41.4413 21.0768 41.1104 21.1854 40.8095C21.3596 40.3282 21.5338 39.8018 21.3747 39.3154C21.3495 39.2352 21.3116 39.1575 21.251 39.0973C21.1096 38.9619 20.8748 38.9795 20.7082 39.0823C19.9634 39.5486 20.1376 40.7995 20.438 41.4663L20.4431 41.4689Z" fill="#FFD461"/>
<path d="M4.23656 41.3485C4.24919 41.3961 4.26434 41.4463 4.30726 41.4688C4.34008 41.4864 4.38048 41.4839 4.41582 41.4764C4.72889 41.4137 4.92835 41.1129 5.08994 40.8371C5.34999 40.3959 5.62014 39.9095 5.55197 39.4031C5.54187 39.3204 5.51915 39.2352 5.47118 39.1675C5.35756 39.0096 5.12276 38.982 4.94098 39.0547C4.12295 39.3781 4.06236 40.639 4.23656 41.3485Z" fill="#FFD461"/>
<path d="M85.5706 42.4402C82.5855 51.0393 72.4356 67.0417 49.8829 66.8016C27.3271 66.5646 27.2973 40.293 27.2973 40.293L28.8391 39.3059L30.2825 38.3829C30.2825 38.3829 35.2776 49.426 47.7178 52.593C66.006 57.2497 82.1262 38.3829 82.1262 38.3829L84.1466 40.7627L85.5706 42.4402Z" fill="#F4D43B"/>
<path d="M85.5706 42.4402C82.5855 51.0393 72.4356 67.0417 49.8829 66.8016C27.3271 66.5645 27.2973 40.293 27.2973 40.293L28.8391 39.3059C29.4355 40.6524 29.6025 42.5147 29.9902 43.6688C31.5096 48.1913 33.9983 52.4708 37.6828 55.5648C44.2286 61.058 53.8104 62.051 61.9249 59.3775C70.0379 56.701 76.7732 50.7813 81.8489 43.9089C82.6183 42.8651 83.3623 41.7945 84.1481 40.7627L85.5706 42.4402Z" fill="#F4C53B"/>
<path d="M84.6567 39.7355C85.599 40.8642 85.9987 42.0839 85.5483 42.4597C85.098 42.8355 83.9693 42.2241 83.0269 41.0954C82.0845 39.9666 81.6849 38.7469 82.1352 38.3711C82.587 37.9954 83.7143 38.6067 84.6567 39.7355Z" fill="#CA7229"/>
<path d="M27.2956 40.2929L23.7722 35.1874L28.4005 31.3359L30.2808 38.3813L27.2956 40.2929Z" fill="#CA7229"/>
<path d="M45.3237 56.5907C46.9431 57.1752 48.6444 57.5912 50.3666 57.5629C50.8393 57.5554 51.4357 57.4078 51.5058 56.9396C51.555 56.6056 51.2896 56.3133 51.0287 56.0971C49.1171 54.5046 46.5688 53.9753 44.2725 53.0165C40.8698 51.594 37.9876 49.1978 35.0143 47.0179C34.6058 46.7182 33.7678 46.2738 33.5098 46.9791C33.3219 47.492 34.0854 48.257 34.3568 48.6074C35.2917 49.8137 36.3474 50.9305 37.4925 51.9385C39.7828 53.9559 42.4504 55.5514 45.3237 56.5907Z" fill="#FCE360"/>
<path d="M54.9461 56.8114C55.9601 57.2483 57.1217 57.1752 58.2027 56.956C59.5656 56.6802 60.9508 56.1389 61.8216 55.0534C61.9886 54.8461 62.1422 54.5897 62.0929 54.3272C62.0169 53.9187 61.5219 53.7546 61.1088 53.7114C58.9303 53.4788 56.7891 54.3287 54.8164 55.2815C54.0753 55.6409 54.2274 56.5012 54.9461 56.8114Z" fill="#FCE360"/>
</svg>
