<svg width="127" height="120" viewBox="0 0 127 120" fill="none" xmlns="http://www.w3.org/2000/svg">
<ellipse cx="63.5" cy="95" rx="63.5" ry="25" fill="#F1F1F1"/>
<g clip-path="url(#clip0_7710_1956)">
<path d="M23.4231 59.3738V98.9064L64.2697 118.681V79.06L23.4231 59.3738Z" fill="black"/>
<path d="M23.4231 59.3738V98.9064L64.2697 118.681V79.06L23.4231 59.3738Z" fill="#AEAEAE"/>
<path d="M105.117 59.3738V98.9064L64.27 118.681V79.06L105.117 59.3738Z" fill="black"/>
<path d="M105.117 59.3738V98.9064L64.27 118.681V79.06L105.117 59.3738Z" fill="#CCCCCC"/>
<path d="M43.8464 69.2122L23.4231 59.3731L64.2697 39.8391V79.0593L43.8464 69.2122Z" fill="black"/>
<path d="M43.8464 69.2122L23.4231 59.3731L64.2697 39.8391V79.0593L43.8464 69.2122Z" fill="#CCCCCC"/>
<path d="M64.27 39.8391V79.0593L105.117 59.3731L64.27 39.8391Z" fill="#AEAEAE"/>
<path d="M64.2539 39.8381L43.8547 49.533L23.4393 59.372L3 49.533L44.4075 30.1272L64.2539 39.8381Z" fill="#D6D6D6"/>
<path d="M125.522 49.6782L105.107 39.8391L84.6915 30L64.2522 39.8391L105.115 59.4452L125.522 49.6782Z" fill="#D6D6D6"/>
<path d="M64.27 79.1234L43.8547 69.2843L23.4393 59.4452L3 69.2843L44.4075 88.6981L64.27 79.1234Z" fill="#D6D6D6"/>
<path d="M125.53 69.0202L105.123 78.8593L84.7079 88.6984L64.2686 78.8593L105.115 59.3734L125.53 69.0202Z" fill="#D6D6D6"/>
</g>
<path d="M51.7996 18.85C49.7996 18 48.9496 15.525 50.1496 13.725C52.5746 10.125 56.6246 7.5 61.9746 7.5C67.8496 7.5 71.8746 10.175 73.9246 13.525C75.6746 16.4 76.6996 21.775 73.9996 25.775C70.9996 30.2 68.1246 31.55 66.5746 34.4C66.1996 35.075 65.9746 35.625 65.8246 36.75C65.5996 38.575 64.0996 40 62.2496 40C60.0746 40 58.2996 38.125 58.5496 35.95C58.6996 34.675 58.9996 33.35 59.6996 32.1C61.6246 28.625 65.3246 26.575 67.4746 23.5C69.7496 20.275 68.4746 14.25 62.0246 14.25C59.0996 14.25 57.1996 15.775 56.0246 17.6C55.1496 19.025 53.3246 19.475 51.7996 18.85ZM66.9996 50C66.9996 52.75 64.7496 55 61.9996 55C59.2496 55 56.9996 52.75 56.9996 50C56.9996 47.25 59.2496 45 61.9996 45C64.7496 45 66.9996 47.25 66.9996 50Z" fill="#919191"/>
<defs>
<clipPath id="clip0_7710_1956">
<rect width="122.532" height="88.68" fill="white" transform="translate(3 30)"/>
</clipPath>
</defs>
</svg>
