<svg width="31" height="31" viewBox="0 0 31 31" fill="none" xmlns="http://www.w3.org/2000/svg">
<path d="M11.515 28.1554C11.2919 28.7886 11.6191 29.4888 12.2668 29.6656C14.1011 30.1662 16.0171 30.3025 17.9091 30.0626C20.2023 29.7718 22.3961 28.9365 24.3135 27.6242C26.231 26.3118 27.8184 24.5592 28.9477 22.5077C30.0769 20.4562 30.7163 18.1633 30.8144 15.814C30.9124 13.4648 30.4663 11.125 29.512 8.9835C28.5577 6.84199 27.122 4.95875 25.3208 3.48575C23.5196 2.01275 21.4032 0.991264 19.1426 0.503719C17.2789 0.101785 15.3601 0.072024 13.4923 0.411721C12.83 0.532157 12.4435 1.2041 12.6133 1.85544V1.85544C12.7852 2.51475 13.4612 2.90101 14.1337 2.79128C15.6272 2.54757 17.1557 2.58503 18.6422 2.90564C20.5329 3.31338 22.3028 4.16766 23.8092 5.39955C25.3156 6.63144 26.5163 8.20643 27.3143 9.99741C28.1124 11.7884 28.4855 13.7452 28.4035 15.7099C28.3215 17.6746 27.7868 19.5922 26.8424 21.3079C25.898 23.0236 24.5704 24.4893 22.9668 25.5869C21.3632 26.6844 19.5285 27.3829 17.6107 27.6261C16.1031 27.8173 14.5774 27.7229 13.1099 27.3515C12.4488 27.1842 11.7415 27.5122 11.515 28.1554V28.1554Z" fill="#008000"/>
<ellipse cx="8.30566" cy="4.03251" rx="2.10596" ry="2.14286" fill="#008000"/>
<ellipse cx="4.09473" cy="9.80301" rx="2.10596" ry="2.14286" fill="#008000"/>
<ellipse cx="2.93457" cy="17.8699" rx="2.10596" ry="2.14286" fill="#008000"/>
<ellipse cx="7.14551" cy="25.0291" rx="2.10596" ry="2.14286" fill="#008000"/>
<path d="M13.5391 17.624L21.0535 9.97797C21.287 9.74038 21.5841 9.62158 21.945 9.62158C22.3059 9.62158 22.603 9.74038 22.8365 9.97797C23.07 10.2156 23.1868 10.5179 23.1868 10.8851C23.1868 11.2523 23.07 11.5547 22.8365 11.7923L14.4306 20.3455C14.1759 20.6047 13.8787 20.7343 13.5391 20.7343C13.1994 20.7343 12.9022 20.6047 12.6475 20.3455L9.33609 16.9761C9.10259 16.7385 8.98584 16.4361 8.98584 16.0689C8.98584 15.7017 9.10259 15.3993 9.33609 15.1617C9.56959 14.9242 9.86677 14.8054 10.2276 14.8054C10.5885 14.8054 10.8857 14.9242 11.1192 15.1617L13.5391 17.624Z" fill="#008000"/>
</svg>
