<svg width="345" height="301" viewBox="0 0 345 301" fill="none" xmlns="http://www.w3.org/2000/svg">
<path opacity="0.3" d="M313.701 115.8C346.514 166.451 311.454 200.684 222.201 227.604C132.948 254.524 157.518 189.701 70.1235 191.68C-17.2713 193.659 2.02697 83.39 146.703 74.1301C291.379 64.8702 306.383 104.503 313.701 115.8Z" fill="#FFCE31"/>
<path d="M180.163 151.883C180.163 154.805 177.795 157.174 174.873 157.174C171.951 157.174 169.582 154.805 169.582 151.883C169.582 148.961 171.951 146.593 174.873 146.593C177.795 146.593 180.163 148.961 180.163 151.883Z" stroke="#263238"/>
<path d="M180.163 136.442C180.163 137.845 179.606 139.191 178.614 140.183C177.622 141.175 176.276 141.733 174.873 141.733C173.47 141.733 172.124 141.175 171.132 140.183C170.14 139.191 169.582 137.845 169.582 136.442V99.769C169.582 98.3659 170.14 97.0202 171.132 96.0281C172.124 95.0359 173.47 94.4785 174.873 94.4785C176.276 94.4785 177.622 95.0359 178.614 96.0281C179.606 97.0202 180.163 98.3659 180.163 99.769V136.442Z" stroke="#263238"/>
<path d="M283.646 128.858L221.481 107.055L214.555 104.449L215.927 117.616L206.396 121.937L208.797 144.978L202.214 145.664L204.272 165.413L187.369 178.821L188.125 202.033L243.363 221.231C251.933 223.665 261.465 219.345 264.244 214.064L287.178 146.791C289.609 138.219 290.57 131.464 283.646 128.858Z" fill="#FFC535" stroke="#FFC535" stroke-width="2.70983"/>
<path d="M186.624 184.816L216.273 194.686L212.817 203.062L186.624 193.09L186.624 184.816Z" fill="white"/>
<path d="M221.874 211.478C224.422 212.377 227.222 211.034 228.126 208.479C229.03 205.924 227.697 203.124 225.148 202.226C222.6 201.327 219.8 202.67 218.896 205.225C217.992 207.78 219.325 210.58 221.874 211.478Z" fill="white"/>
<path d="M234.796 216.048C237.345 216.946 240.144 215.603 241.048 213.048C241.952 210.493 240.619 207.694 238.071 206.795C235.522 205.897 232.723 207.24 231.818 209.795C230.914 212.35 232.247 215.149 234.796 216.048Z" fill="white"/>
<path d="M284.757 131.521L262.508 123.591L261.134 127.431L283.384 135.361L284.757 131.521Z" fill="white"/>
<path d="M282.34 138.393L242.606 124.232L241.232 128.071L280.966 142.233L282.34 138.393Z" fill="white"/>
<path d="M202.945 178.045L201.859 177.84L201.401 180.035C201.374 180.097 201.348 180.16 201.304 180.178C201.246 180.227 201.202 180.245 201.14 180.218L200.435 180.065C200.373 180.039 200.311 180.012 200.293 179.968C200.276 179.924 200.271 179.848 200.267 179.773L200.725 177.578L197.175 176.875C196.976 176.827 196.852 176.774 196.816 176.685C196.75 176.583 196.758 176.477 196.763 176.295L196.855 175.819C196.89 175.65 196.957 175.495 197.103 175.41L201.799 171.012C201.856 170.963 201.9 170.945 201.958 170.896C202.016 170.847 202.091 170.842 202.215 170.895L202.951 171.061C203.15 171.109 203.248 171.224 203.212 171.393L202.075 176.903L203.161 177.108C203.223 177.134 203.285 177.161 203.303 177.205C203.352 177.262 203.369 177.307 203.343 177.369L203.237 177.876C203.184 178 203.113 178.08 202.945 178.045ZM201.791 172.406C201.805 172.375 201.787 172.331 201.756 172.317C201.725 172.304 201.68 172.322 201.654 172.384L197.976 175.855C197.932 175.873 197.919 175.904 197.905 175.936C197.892 175.967 197.91 176.011 197.972 176.037L200.91 176.627L201.791 172.406Z" fill="white"/>
<path d="M209.954 179.996C209.724 180.45 209.441 180.77 209.122 181.002C208.803 181.234 208.405 181.395 207.984 181.437C207.563 181.478 207.093 181.462 206.557 181.344C206.052 181.239 205.653 181.143 205.33 181.042C205.006 180.941 204.727 180.822 204.479 180.716C204.386 180.676 204.323 180.65 204.275 180.592C204.226 180.535 204.208 180.491 204.204 180.415L204.296 179.94C204.323 179.877 204.349 179.815 204.393 179.797C204.438 179.779 204.482 179.761 204.557 179.757L204.588 179.77L204.619 179.783C204.93 179.915 205.24 180.047 205.577 180.117C205.931 180.232 206.299 180.315 206.667 180.398C207.141 180.49 207.535 180.51 207.832 180.416C208.129 180.322 208.408 180.183 208.594 180.005C208.793 179.796 208.943 179.529 209.045 179.204C209.146 178.88 209.261 178.524 209.327 178.111L209.349 177.973C209.092 177.974 208.791 177.993 208.472 177.968C208.153 177.942 207.834 177.916 207.422 177.851C207.023 177.755 206.624 177.659 206.296 177.482C205.955 177.337 205.64 177.129 205.427 176.855C205.201 176.611 205.014 176.274 204.916 175.902C204.818 175.529 204.822 175.089 204.915 174.614L204.941 174.552C205.14 173.57 205.551 172.863 206.144 172.417C206.737 171.971 207.561 171.843 208.572 172.053C209.52 172.236 210.18 172.665 210.584 173.352C211.002 174.007 211.104 174.971 210.844 176.184L210.399 178.347C210.365 179.031 210.17 179.574 209.954 179.996ZM209.834 175.974C209.94 175.467 209.975 175.041 209.97 174.708C209.965 174.375 209.872 174.078 209.752 173.843C209.632 173.608 209.455 173.422 209.251 173.298C209.047 173.175 208.768 173.056 208.493 173.012C208.187 172.956 207.943 172.926 207.673 172.958C207.434 173.003 207.195 173.048 206.978 173.213C206.774 173.347 206.606 173.569 206.469 173.805C206.319 174.072 206.217 174.397 206.107 174.828L206.08 174.89C206.01 175.228 205.997 175.516 206.086 175.738C206.161 175.991 206.263 176.181 206.41 176.354C206.556 176.527 206.76 176.65 206.977 176.743C207.195 176.835 207.412 176.928 207.655 176.958C207.793 176.98 207.961 177.015 208.13 177.05C208.298 177.085 208.48 177.088 208.661 177.092C208.843 177.096 208.98 177.118 209.162 177.122C209.313 177.112 209.45 177.134 209.57 177.111L209.834 175.974Z" fill="white"/>
<path d="M218.528 176.41C218.435 176.885 218.219 177.308 217.904 177.615C217.59 177.922 217.094 178.226 216.43 178.495L215.088 179.063C214.69 179.224 214.366 179.381 214.119 179.533C213.871 179.684 213.654 179.849 213.468 180.028C213.282 180.206 213.158 180.41 213.079 180.597C212.986 180.815 212.893 181.033 212.849 181.308L212.805 181.584L216.953 182.431C217.015 182.458 217.077 182.484 217.095 182.528C217.143 182.586 217.161 182.63 217.135 182.692L217.016 183.23C216.989 183.292 216.963 183.355 216.918 183.373C216.861 183.422 216.799 183.395 216.723 183.4L211.827 182.417C211.765 182.391 211.703 182.365 211.685 182.32C211.636 182.263 211.632 182.187 211.645 182.156L211.856 181.143C211.984 180.499 212.254 179.952 212.648 179.458C213.041 178.963 213.639 178.593 214.405 178.257L215.822 177.684C216.132 177.559 216.354 177.469 216.544 177.366C216.734 177.264 216.894 177.148 217.009 177.05C217.124 176.952 217.221 176.809 217.274 176.685C217.327 176.56 217.394 176.405 217.442 176.205C217.521 175.76 217.454 175.401 217.228 175.158C216.971 174.901 216.537 174.716 215.863 174.576C215.557 174.519 215.176 174.467 214.795 174.415C214.414 174.363 214.02 174.343 213.656 174.335L213.625 174.322C213.488 174.3 213.453 174.211 213.475 174.074L213.554 173.629C213.58 173.567 213.607 173.505 213.651 173.487C213.695 173.469 213.771 173.464 213.815 173.446C214.147 173.441 214.511 173.448 214.905 173.469C215.299 173.49 215.68 173.542 216.048 173.625C217.058 173.835 217.759 174.17 218.162 174.599C218.566 175.029 218.677 175.628 218.528 176.41Z" fill="white"/>
<path d="M222.623 184.512C222.565 184.561 222.521 184.579 222.459 184.553L221.785 184.413C221.723 184.387 221.661 184.36 221.643 184.316C221.595 184.258 221.621 184.196 221.617 184.121L223.207 176.341L221.476 176.706C221.4 176.711 221.356 176.729 221.294 176.703C221.232 176.676 221.183 176.619 221.21 176.556L221.337 175.912C221.351 175.881 221.364 175.85 221.377 175.819C221.39 175.788 221.435 175.77 221.479 175.752L223.534 175.23C223.654 175.207 223.729 175.202 223.804 175.198L224.309 175.303C224.371 175.329 224.434 175.355 224.451 175.4C224.5 175.457 224.505 175.533 224.478 175.595L222.716 184.295C222.707 184.401 222.649 184.45 222.623 184.512Z" fill="white"/>
<path d="M239.966 181.012C239.873 181.488 239.657 181.91 239.343 182.218C239.028 182.525 238.533 182.829 237.868 183.097L236.526 183.666C236.128 183.827 235.805 183.983 235.557 184.135C235.309 184.287 235.092 184.452 234.906 184.63C234.72 184.808 234.596 185.013 234.517 185.2C234.424 185.418 234.331 185.635 234.287 185.911L234.243 186.186L238.391 187.034C238.453 187.06 238.515 187.087 238.533 187.131C238.582 187.188 238.599 187.233 238.573 187.295L238.454 187.833C238.427 187.895 238.401 187.957 238.357 187.975C238.299 188.024 238.237 187.998 238.162 188.002L233.265 187.02C233.203 186.993 233.141 186.967 233.123 186.923C233.074 186.865 233.07 186.79 233.083 186.759L233.295 185.746C233.422 185.101 233.692 184.554 234.086 184.06C234.48 183.566 235.077 183.195 235.843 182.86L237.26 182.287C237.57 182.161 237.792 182.072 237.982 181.969C238.173 181.866 238.332 181.75 238.447 181.652C238.562 181.554 238.659 181.412 238.712 181.287C238.765 181.163 238.832 181.007 238.88 180.807C238.96 180.363 238.893 180.003 238.666 179.76C238.409 179.503 237.975 179.318 237.301 179.179C236.996 179.122 236.614 179.07 236.233 179.018C235.852 178.966 235.458 178.945 235.095 178.937L235.064 178.924C234.926 178.902 234.891 178.814 234.913 178.676L234.992 178.232C235.019 178.17 235.045 178.107 235.089 178.089C235.134 178.071 235.209 178.067 235.253 178.049C235.585 178.043 235.949 178.051 236.343 178.072C236.737 178.093 237.119 178.145 237.486 178.228C238.497 178.438 239.197 178.773 239.601 179.202C240.004 179.631 240.147 180.243 239.966 181.012Z" fill="white"/>
<path d="M246.473 187.572C246.243 188.026 245.947 188.378 245.615 188.641C245.283 188.904 244.929 189.047 244.526 189.133C244.122 189.218 243.697 189.184 243.223 189.093C242.749 189.001 242.345 188.829 242 188.608C241.654 188.388 241.379 188.087 241.192 187.75C240.988 187.369 240.873 186.952 240.841 186.423C240.809 185.895 240.835 185.318 240.99 184.611L241.329 182.954C241.47 182.279 241.646 181.692 241.907 181.252C242.137 180.798 242.434 180.446 242.766 180.183C243.098 179.92 243.452 179.777 243.855 179.691C244.258 179.605 244.683 179.64 245.158 179.731C245.632 179.823 246.035 179.995 246.381 180.215C246.727 180.436 247.002 180.737 247.188 181.074C247.392 181.455 247.508 181.872 247.54 182.4C247.571 182.929 247.545 183.506 247.391 184.212L247.052 185.87C246.897 186.576 246.703 187.119 246.473 187.572ZM246.243 183.981C246.349 183.474 246.397 183.017 246.375 182.64C246.352 182.262 246.303 181.947 246.165 181.668C246.059 181.402 245.895 181.185 245.66 181.048C245.438 180.88 245.19 180.774 244.915 180.731C244.609 180.674 244.352 180.675 244.113 180.72C243.861 180.797 243.626 180.917 243.396 181.114C243.197 181.323 243.015 181.577 242.825 181.937C242.679 182.279 242.525 182.728 242.419 183.235L242.08 184.892C241.974 185.398 241.926 185.856 241.948 186.233C241.971 186.611 242.02 186.926 242.158 187.205C242.264 187.471 242.428 187.688 242.663 187.825C242.885 187.993 243.133 188.098 243.408 188.142C243.683 188.185 243.971 188.198 244.21 188.153C244.462 188.076 244.697 187.956 244.927 187.759C245.126 187.55 245.308 187.296 245.498 186.936C245.644 186.594 245.798 186.145 245.904 185.638L246.243 183.981Z" fill="white"/>
<path d="M254.889 184.023C254.796 184.498 254.58 184.921 254.266 185.228C253.951 185.536 253.455 185.839 252.791 186.108L251.449 186.676C251.051 186.838 250.728 186.994 250.48 187.146C250.232 187.298 250.015 187.463 249.829 187.641C249.643 187.819 249.519 188.024 249.44 188.21C249.347 188.428 249.254 188.646 249.21 188.922L249.166 189.197L253.314 190.044C253.376 190.071 253.438 190.097 253.456 190.142C253.505 190.199 253.522 190.244 253.496 190.306L253.377 190.843C253.35 190.906 253.324 190.968 253.28 190.986C253.222 191.035 253.16 191.008 253.085 191.013L248.188 190.031C248.126 190.004 248.064 189.978 248.046 189.933C247.997 189.876 247.993 189.8 248.006 189.769L248.218 188.756C248.345 188.112 248.615 187.565 249.009 187.071C249.403 186.577 250 186.206 250.766 185.871L252.183 185.297C252.493 185.172 252.715 185.083 252.905 184.98C253.096 184.877 253.255 184.761 253.37 184.663C253.485 184.565 253.582 184.422 253.635 184.298C253.688 184.173 253.755 184.018 253.803 183.818C253.883 183.374 253.816 183.014 253.589 182.771C253.332 182.514 252.898 182.329 252.224 182.189C251.919 182.133 251.537 182.081 251.156 182.029C250.775 181.977 250.381 181.956 250.018 181.948L249.987 181.935C249.849 181.913 249.814 181.825 249.836 181.687L249.915 181.243C249.942 181.18 249.968 181.118 250.012 181.1C250.057 181.082 250.132 181.078 250.176 181.06C250.508 181.054 250.872 181.062 251.266 181.083C251.66 181.103 252.041 181.155 252.409 181.239C253.42 181.448 254.12 181.783 254.524 182.213C254.927 182.642 255.056 183.285 254.889 184.023Z" fill="white"/>
<path d="M258.975 192.129C258.918 192.178 258.873 192.196 258.811 192.17L258.138 192.03C258.076 192.003 258.014 191.977 257.996 191.933C257.947 191.875 257.974 191.813 257.969 191.737L259.56 183.958L257.828 184.323C257.753 184.328 257.708 184.346 257.646 184.319C257.584 184.293 257.536 184.235 257.562 184.173L257.69 183.529C257.703 183.498 257.716 183.467 257.73 183.435C257.743 183.404 257.787 183.386 257.831 183.368L259.887 182.846C260.006 182.824 260.081 182.819 260.157 182.814L260.662 182.919C260.724 182.946 260.786 182.972 260.804 183.017C260.853 183.074 260.857 183.15 260.831 183.212L259.068 191.911C259.046 192.049 259.033 192.08 258.975 192.129Z" fill="white"/>
<rect x="307.265" y="102.627" width="3.2174" height="27.116" rx="1.6087" transform="rotate(39.2074 307.265 102.627)" stroke="#263238"/>
<rect x="326.936" y="140.201" width="3.2174" height="27.116" rx="1.6087" transform="rotate(89.2074 326.936 140.201)" stroke="#263238"/>
<rect x="332.933" y="113.461" width="3.2174" height="41.174" rx="1.6087" transform="rotate(64.2074 332.933 113.461)" stroke="#263238"/>
<path d="M55.0349 102.764L116.098 78.0442L122.894 75.114L122.146 88.3305L131.871 92.1955L130.563 115.324L137.171 115.698L136.049 135.523L153.568 148.116L153.911 171.338L99.6429 193.128C91.1977 195.965 81.4723 192.1 78.4465 186.957L52.3547 120.844C49.521 112.397 48.2421 105.695 55.0349 102.764Z" fill="#FFC535" stroke="#FFC535" stroke-width="2.70983"/>
<path d="M92.5507 96.1052L98.8691 115.153C99.198 116.125 98.6835 117.145 97.7146 117.474L65.2566 128.289C64.2877 128.618 63.2704 128.101 62.9415 127.129L56.6231 108.081C56.2942 107.109 56.8087 106.089 57.7776 105.76L90.2356 94.9454C91.1982 94.5637 92.2741 95.1268 92.5507 96.1052Z" fill="#FECC86"/>
<path d="M76.4351 110.922L59.4402 116.581L59.1699 115.655L75.1959 110.325L73.3397 104.585L74.2103 104.321L76.4351 110.922Z" fill="#EFA348"/>
<path d="M83.3625 122.228L82.4919 122.492L79.5255 113.69L96.5204 108.031L96.8367 108.898L80.7124 114.293L83.3625 122.228Z" fill="#EFA348"/>
<path d="M80.6346 98.1262L79.7346 98.4263L82.883 107.907L83.783 107.607L80.6346 98.1262Z" fill="#EFA348"/>
<path d="M93.6093 99.1977L81.76 103.149L82.0599 104.052L93.9091 100.101L93.6093 99.1977Z" fill="#EFA348"/>
<path d="M72.0902 121.559L71.2259 121.876L70.168 118.808L61.1861 121.803L60.8635 120.883L70.7683 117.618L72.0902 121.559Z" fill="#EFA348"/>
<path d="M122.235 154.436L89.8853 167.897L93.741 177.196L126.091 163.735L122.235 154.436Z" fill="white"/>
<path d="M155.582 158.34L95.4465 181.379L99.3023 190.678L155.486 167.299L155.582 158.34Z" fill="white"/>
<path d="M79.781 159.44C79.8541 159.944 79.8141 160.402 79.694 160.808C79.5738 161.214 79.3666 161.535 79.0863 161.837C78.8059 162.139 78.4385 162.356 77.998 162.554C77.5574 162.752 77.1287 162.844 76.7188 162.862C76.3089 162.881 75.9108 162.793 75.5645 162.624C75.1782 162.43 74.8436 162.156 74.5138 161.742C74.184 161.328 73.873 160.841 73.5926 160.175L72.9164 158.624C72.6431 157.99 72.4499 157.409 72.4099 156.899C72.3368 156.395 72.3768 155.937 72.4969 155.531C72.6171 155.125 72.8243 154.804 73.1046 154.502C73.385 154.2 73.7524 153.983 74.1929 153.785C74.6335 153.587 75.0622 153.495 75.4721 153.477C75.882 153.458 76.2801 153.546 76.6264 153.715C77.0127 153.909 77.3473 154.183 77.6771 154.597C78.0069 155.011 78.3179 155.498 78.5983 156.164L79.2745 157.715C79.5148 158.356 79.708 158.937 79.781 159.44ZM77.5194 156.603C77.3144 156.127 77.0906 155.726 76.855 155.43C76.6194 155.134 76.398 154.905 76.1247 154.756C75.8844 154.6 75.6253 154.517 75.3544 154.54C75.0764 154.53 74.8125 154.586 74.5628 154.709C74.3131 154.831 74.0705 154.987 73.9009 155.162C73.7384 155.369 73.6159 155.603 73.5405 155.896C73.4982 156.182 73.4958 156.494 73.5477 156.898C73.6254 157.262 73.7574 157.718 73.9624 158.193L74.6385 159.743C74.8435 160.219 75.0673 160.62 75.3029 160.916C75.5385 161.212 75.76 161.441 76.0332 161.59C76.2735 161.747 76.5327 161.83 76.8036 161.806C77.0815 161.816 77.3454 161.76 77.5951 161.637C77.8448 161.515 78.0874 161.359 78.257 161.184C78.4195 160.977 78.542 160.743 78.6174 160.45C78.6598 160.164 78.6621 159.852 78.6103 159.448C78.5325 159.084 78.4005 158.628 78.1956 158.153L77.5194 156.603Z" fill="white"/>
<path d="M86.7522 156.389C86.8253 156.892 86.7853 157.35 86.6652 157.756C86.545 158.163 86.3378 158.484 86.0574 158.786C85.7771 159.088 85.4097 159.305 84.9691 159.502C84.5286 159.7 84.0999 159.792 83.69 159.81C83.2801 159.829 82.882 159.741 82.5357 159.573C82.1493 159.379 81.8148 159.104 81.485 158.69C81.1552 158.276 80.8442 157.789 80.5638 157.123L79.8876 155.572C79.6143 154.939 79.4211 154.357 79.381 153.847C79.308 153.344 79.348 152.885 79.4681 152.479C79.5882 152.073 79.7955 151.752 80.0758 151.45C80.3561 151.148 80.7236 150.931 81.1641 150.733C81.6046 150.535 82.0334 150.443 82.4433 150.425C82.8532 150.407 83.2513 150.495 83.5976 150.663C83.9839 150.857 84.3185 151.131 84.6483 151.545C84.9781 151.959 85.2891 152.446 85.5695 153.113L86.2457 154.663C86.486 155.304 86.6792 155.885 86.7522 156.389ZM84.4906 153.551C84.2856 153.076 84.0618 152.674 83.8262 152.378C83.5906 152.083 83.3692 151.853 83.0959 151.704C82.8556 151.548 82.5965 151.465 82.3255 151.488C82.0476 151.478 81.7837 151.535 81.534 151.657C81.2843 151.78 81.0417 151.935 80.8721 152.11C80.7096 152.318 80.5871 152.551 80.5117 152.844C80.4693 153.13 80.467 153.442 80.5189 153.846C80.5966 154.21 80.7286 154.666 80.9335 155.141L81.6097 156.692C81.8147 157.167 82.0385 157.569 82.2741 157.864C82.5097 158.16 82.7311 158.389 83.0044 158.539C83.2447 158.695 83.5038 158.778 83.7748 158.754C84.0527 158.764 84.3166 158.708 84.5663 158.585C84.816 158.463 85.0586 158.307 85.2282 158.133C85.3907 157.925 85.5132 157.691 85.5886 157.398C85.631 157.112 85.6333 156.801 85.5814 156.397C85.5037 156.033 85.3717 155.577 85.1668 155.101L84.4906 153.551Z" fill="white"/>
<path d="M91.5799 148.65C91.7778 149.092 91.8438 149.562 91.7637 149.994C91.6836 150.427 91.4528 150.96 91.0641 151.562L90.2939 152.799C90.0607 153.16 89.8864 153.474 89.771 153.741C89.6556 154.008 89.5731 154.268 89.5237 154.52C89.4742 154.773 89.4907 155.012 89.5332 155.21C89.5826 155.442 89.6321 155.673 89.7546 155.924L89.8771 156.175L93.7569 154.481C93.8229 154.467 93.8888 154.453 93.9289 154.479C94.0019 154.498 94.042 154.524 94.0561 154.59L94.2681 155.098C94.2823 155.164 94.2964 155.23 94.2705 155.27C94.2517 155.344 94.1857 155.358 94.1268 155.405L89.5568 157.419C89.4909 157.433 89.4249 157.447 89.3849 157.421C89.3118 157.402 89.2647 157.343 89.2577 157.31L88.8477 156.36C88.5815 155.76 88.4872 155.157 88.5249 154.526C88.5625 153.896 88.8381 153.249 89.2715 152.533L90.1006 151.249C90.282 150.968 90.4116 150.768 90.5081 150.574C90.6047 150.38 90.6683 150.194 90.706 150.047C90.7437 149.901 90.7413 149.728 90.713 149.596C90.6847 149.464 90.6494 149.298 90.574 149.107C90.3832 148.698 90.1217 148.442 89.7966 148.374C89.4385 148.312 88.9768 148.41 88.3455 148.684C88.0628 148.813 87.7212 148.99 87.3797 149.167C87.0381 149.344 86.7036 149.553 86.4021 149.756L86.3691 149.763C86.2442 149.824 86.1641 149.772 86.1029 149.647L85.9121 149.238C85.8979 149.172 85.8838 149.106 85.9097 149.066C85.9356 149.026 85.9945 148.978 86.0204 148.938C86.2889 148.743 86.5905 148.54 86.925 148.33C87.2595 148.12 87.601 147.943 87.9497 147.8C88.8966 147.39 89.6622 147.261 90.2394 147.38C90.8165 147.498 91.2854 147.917 91.5799 148.65Z" fill="white"/>
<path d="M99.5924 152.921C99.5735 152.994 99.5476 153.034 99.4816 153.049L98.8503 153.322C98.7844 153.336 98.7184 153.35 98.6784 153.324C98.6053 153.305 98.5912 153.239 98.5441 153.18L95.3681 145.902L94.1621 147.197C94.1032 147.244 94.0773 147.285 94.0113 147.299C93.9454 147.313 93.8723 147.294 93.8582 147.228L93.592 146.627C93.5849 146.594 93.5778 146.561 93.5708 146.528C93.5637 146.495 93.5896 146.455 93.6155 146.415L94.9959 144.805C95.0807 144.718 95.1396 144.671 95.1984 144.623L95.6719 144.418C95.7379 144.404 95.8039 144.39 95.8439 144.416C95.9169 144.435 95.964 144.494 95.9782 144.561L99.5429 152.69C99.5971 152.782 99.6112 152.848 99.5924 152.921Z" fill="white"/>
<path d="M113.894 144.498C113.967 145.002 113.927 145.46 113.807 145.866C113.687 146.272 113.48 146.593 113.199 146.895C112.919 147.198 112.552 147.414 112.111 147.612C111.67 147.81 111.242 147.902 110.832 147.92C110.422 147.939 110.024 147.851 109.678 147.683C109.291 147.488 108.957 147.214 108.627 146.8C108.297 146.386 107.986 145.899 107.706 145.233L107.029 143.682C106.756 143.049 106.563 142.467 106.523 141.957C106.45 141.453 106.49 140.995 106.61 140.589C106.73 140.183 106.937 139.862 107.218 139.56C107.498 139.258 107.865 139.041 108.306 138.843C108.746 138.645 109.175 138.553 109.585 138.535C109.995 138.517 110.393 138.604 110.739 138.773C111.126 138.967 111.46 139.241 111.79 139.655C112.12 140.069 112.431 140.556 112.711 141.223L113.388 142.773C113.661 143.407 113.814 143.962 113.894 144.498ZM111.632 141.661C111.427 141.186 111.204 140.784 110.968 140.488C110.732 140.192 110.511 139.963 110.238 139.814C109.997 139.658 109.738 139.575 109.467 139.598C109.189 139.588 108.926 139.645 108.676 139.767C108.393 139.897 108.184 140.045 108.014 140.22C107.851 140.428 107.729 140.661 107.654 140.954C107.611 141.24 107.609 141.552 107.661 141.956C107.738 142.32 107.87 142.776 108.075 143.251L108.752 144.802C108.957 145.277 109.18 145.679 109.416 145.974C109.652 146.27 109.873 146.499 110.146 146.648C110.387 146.805 110.646 146.888 110.917 146.864C111.195 146.874 111.458 146.818 111.708 146.695C111.958 146.573 112.2 146.417 112.37 146.242C112.533 146.035 112.655 145.801 112.73 145.508C112.773 145.222 112.775 144.91 112.723 144.506C112.646 144.143 112.514 143.686 112.309 143.211L111.632 141.661Z" fill="white"/>
<path d="M120.776 142.162C120.787 142.54 120.686 142.873 120.512 143.187C120.338 143.501 120.123 143.789 119.796 144.032C119.501 144.268 119.134 144.485 118.693 144.683C118.312 144.834 117.963 144.977 117.607 145.088C117.252 145.199 116.922 145.269 116.625 145.332C116.559 145.346 116.486 145.327 116.453 145.335C116.38 145.316 116.34 145.29 116.326 145.223L116.135 144.814C116.074 144.689 116.119 144.576 116.25 144.548L116.283 144.541C116.639 144.43 116.995 144.319 117.351 144.209C117.706 144.098 118.022 143.962 118.279 143.872C118.91 143.599 119.322 143.269 119.482 142.888C119.643 142.508 119.61 142.031 119.39 141.49L119.268 141.239C119.2 141.081 119.098 140.929 118.997 140.778C118.896 140.627 118.735 140.523 118.575 140.418C118.415 140.314 118.236 140.283 118.024 140.26C117.812 140.236 117.581 140.285 117.331 140.407L115.254 141.336C115.096 141.404 115.016 141.352 114.955 141.227L114.764 140.818C114.695 140.659 114.747 140.579 114.905 140.511L116.983 139.583C117.265 139.453 117.475 139.304 117.619 139.17C117.755 139.002 117.859 138.842 117.89 138.662C117.92 138.483 117.918 138.31 117.916 138.138C117.88 137.972 117.845 137.807 117.777 137.649L117.708 137.49C117.503 137.015 117.202 136.734 116.837 136.639C116.471 136.544 115.97 136.616 115.312 136.93C114.964 137.073 114.655 137.243 114.413 137.399C114.137 137.562 113.828 137.731 113.461 137.948L113.428 137.955C113.303 138.016 113.19 137.971 113.162 137.839L112.971 137.43C112.957 137.364 112.95 137.331 112.968 137.258C112.987 137.184 113.046 137.137 113.072 137.097C113.308 136.908 113.616 136.739 113.918 136.536C114.219 136.333 114.561 136.156 114.942 136.006C115.383 135.808 115.772 135.69 116.167 135.605C116.563 135.521 116.907 135.517 117.232 135.586C117.557 135.654 117.864 135.797 118.118 136.019C118.372 136.241 118.615 136.57 118.813 137.012L118.881 137.17C119.065 137.546 119.117 137.95 119.063 138.342C119.009 138.735 118.848 139.115 118.575 139.45C118.82 139.467 119.032 139.491 119.258 139.581C119.444 139.645 119.645 139.775 119.805 139.879C119.972 140.016 120.099 140.127 120.208 140.312C120.309 140.463 120.41 140.614 120.486 140.806L120.608 141.056C120.712 141.38 120.804 141.81 120.776 142.162Z" fill="white"/>
<path d="M127.747 139.117C127.759 139.495 127.657 139.828 127.483 140.142C127.309 140.456 127.094 140.744 126.767 140.987C126.473 141.223 126.105 141.44 125.665 141.637C125.283 141.788 124.934 141.932 124.579 142.042C124.223 142.153 123.893 142.224 123.596 142.287C123.53 142.301 123.457 142.282 123.424 142.289C123.351 142.27 123.311 142.244 123.297 142.178L123.106 141.769C123.045 141.644 123.09 141.53 123.222 141.502L123.255 141.495C123.61 141.385 123.966 141.274 124.322 141.163C124.678 141.053 124.993 140.916 125.25 140.827C125.881 140.553 126.294 140.223 126.454 139.843C126.614 139.463 126.581 138.986 126.362 138.444L126.239 138.194C126.171 138.035 126.07 137.884 125.968 137.733C125.867 137.581 125.707 137.477 125.547 137.373C125.386 137.269 125.207 137.238 124.995 137.214C124.783 137.19 124.552 137.24 124.303 137.362L122.225 138.29C122.067 138.359 121.987 138.307 121.926 138.181L121.735 137.772C121.667 137.614 121.719 137.534 121.876 137.465L123.954 136.537C124.237 136.408 124.446 136.259 124.59 136.124C124.727 135.957 124.83 135.796 124.861 135.617C124.892 135.437 124.889 135.265 124.887 135.092C124.851 134.927 124.816 134.762 124.748 134.603L124.679 134.445C124.475 133.97 124.173 133.688 123.808 133.593C123.443 133.498 122.941 133.571 122.284 133.884C121.935 134.028 121.626 134.198 121.384 134.353C121.108 134.516 120.8 134.686 120.432 134.903L120.399 134.91C120.274 134.971 120.161 134.926 120.133 134.794L119.942 134.385C119.928 134.319 119.921 134.285 119.94 134.212C119.959 134.139 120.018 134.092 120.043 134.052C120.279 133.863 120.588 133.693 120.889 133.491C121.191 133.288 121.532 133.111 121.914 132.96C122.354 132.762 122.743 132.645 123.139 132.56C123.534 132.476 123.878 132.471 124.204 132.54C124.529 132.609 124.835 132.751 125.089 132.974C125.344 133.196 125.586 133.525 125.784 133.967L125.853 134.125C126.036 134.501 126.088 134.905 126.034 135.297C125.98 135.689 125.82 136.069 125.547 136.404C125.792 136.421 126.004 136.445 126.23 136.535C126.416 136.599 126.616 136.729 126.776 136.834C126.943 136.971 127.071 137.082 127.179 137.266C127.28 137.418 127.382 137.569 127.457 137.76L127.58 138.011C127.683 138.335 127.768 138.732 127.747 139.117Z" fill="white"/>
<path d="M133.7 137.95C133.681 138.024 133.655 138.064 133.589 138.078L132.958 138.351C132.892 138.365 132.826 138.379 132.786 138.353C132.713 138.334 132.699 138.268 132.652 138.209L129.476 130.931L128.27 132.227C128.211 132.274 128.185 132.314 128.119 132.328C128.053 132.342 127.98 132.323 127.966 132.257L127.699 131.656C127.692 131.623 127.685 131.59 127.678 131.557C127.671 131.524 127.697 131.484 127.723 131.444L129.103 129.834C129.188 129.747 129.247 129.7 129.306 129.653L129.779 129.448C129.845 129.434 129.911 129.42 129.951 129.446C130.024 129.465 130.071 129.524 130.086 129.59L133.65 137.719C133.712 137.844 133.719 137.877 133.7 137.95Z" fill="white"/>
<rect x="19.9522" y="107.064" width="2.23471" height="20.5648" rx="1.11736" transform="rotate(-80.485 19.9522 107.064)" stroke="#263238"/>
<rect x="37.5405" y="79.8188" width="2.23471" height="20.5648" rx="1.11736" transform="rotate(-30.485 37.5405 79.8188)" stroke="#263238"/>
<rect x="17.4504" y="85.9104" width="2.23471" height="31.3471" rx="1.11736" transform="rotate(-55.485 17.4504 85.9104)" stroke="#263238"/>
</svg>
