<svg width="36" height="36" viewBox="0 0 36 36" fill="none" xmlns="http://www.w3.org/2000/svg">
<g clip-path="url(#clip0_7386_7567)">
<path d="M35.9942 5.01555V22.16C35.9942 23.4087 34.993 24.41 33.7443 24.41H6.43011C5.18139 24.41 4.18018 23.4087 4.18018 22.16V5.01555C4.18018 3.77809 5.18139 2.76562 6.43011 2.76562H33.7443C34.993 2.76562 35.9942 3.77809 35.9942 5.01555Z" fill="#6F7070"/>
<path d="M36.0001 6.8584H4.1748V10.5123H36.0001V6.8584Z" fill="#464646"/>
<path d="M27.6999 3.6875H20.4394C19.8184 3.6875 19.3145 4.19036 19.3145 4.81246C19.3145 5.43457 19.8184 5.93743 20.4394 5.93743H27.6999C28.3209 5.93743 28.8249 5.43457 28.8249 4.81246C28.8249 4.19148 28.3209 3.6875 27.6999 3.6875Z" fill="#787878"/>
<path d="M32.9456 3.6875H30.978C30.357 3.6875 29.853 4.19036 29.853 4.81246C29.853 5.43457 30.357 5.93743 30.978 5.93743H32.9456C33.5665 5.93743 34.0705 5.43457 34.0705 4.81246C34.0705 4.19148 33.5677 3.6875 32.9456 3.6875Z" fill="#787878"/>
<path d="M12.6411 7.56055H7.15573C6.53475 7.56055 6.03076 8.06341 6.03076 8.68551C6.03076 9.30762 6.53475 9.81048 7.15573 9.81048H12.6411C13.262 9.81048 13.766 9.30762 13.766 8.68551C13.766 8.06341 13.2632 7.56055 12.6411 7.56055Z" fill="#3E3E3E"/>
<path d="M17.8878 7.56055H15.9214C15.3004 7.56055 14.7964 8.06341 14.7964 8.68551C14.7964 9.30762 15.3004 9.81048 15.9214 9.81048H17.8878C18.5088 9.81048 19.0128 9.30762 19.0128 8.68551C19.0128 8.06341 18.5088 7.56055 17.8878 7.56055Z" fill="#3E3E3E"/>
<g opacity="0.07">
<path opacity="0.07" d="M35.9943 17.8065V22.1601C35.9943 23.4088 34.9931 24.41 33.7444 24.41H31.022L31.7982 13.6104L35.9943 17.8065Z" fill="#010101"/>
</g>
<path d="M29.5731 33.2346H2.24993C1.00684 33.2346 0 32.2278 0 30.9847V13.8368C0 12.5949 1.00684 11.5869 2.24993 11.5869H29.5731C30.8162 11.5869 31.823 12.5949 31.823 13.8368V30.9836C31.823 32.2266 30.8162 33.2346 29.5731 33.2346Z" fill="#4B9FD8"/>
<path d="M14.5345 11.5859C7.51477 16.907 2.57617 23.7243 0.0224993 31.2053C0.0112496 31.1153 0 31.0253 0 30.9241V13.7796C0 12.7109 0.742477 11.8109 1.7437 11.5859H14.5345Z" fill="#3A9BD6"/>
<path d="M17.2896 33.2336C24.3093 27.9126 29.2479 21.0953 31.8016 13.6143C31.8129 13.7043 31.8241 13.7943 31.8241 13.8955V31.04C31.8241 32.1087 31.0816 33.0087 30.0804 33.2336H17.2896Z" fill="#3A9BD6"/>
<path d="M21.7736 20.4418C23.2871 20.4418 24.514 19.2148 24.514 17.7014C24.514 16.1879 23.2871 14.9609 21.7736 14.9609C20.2601 14.9609 19.0332 16.1879 19.0332 17.7014C19.0332 19.2148 20.2601 20.4418 21.7736 20.4418Z" fill="#FEE218"/>
<path d="M25.7087 20.4418C27.2222 20.4418 28.4491 19.2148 28.4491 17.7014C28.4491 16.1879 27.2222 14.9609 25.7087 14.9609C24.1952 14.9609 22.9683 16.1879 22.9683 17.7014C22.9683 19.2148 24.1952 20.4418 25.7087 20.4418Z" fill="#CD494C"/>
<path d="M9.41592 24.5995H4.09371C3.47273 24.5995 2.96875 24.0967 2.96875 23.4746C2.96875 22.8525 3.47273 22.3496 4.09371 22.3496H9.41592C10.0369 22.3496 10.5409 22.8525 10.5409 23.4746C10.5409 24.0956 10.0369 24.5995 9.41592 24.5995Z" fill="white"/>
<path d="M14.17 18.8261H4.09371C3.47273 18.8261 2.96875 18.3232 2.96875 17.7011C2.96875 17.079 3.47273 16.5762 4.09371 16.5762H14.17C14.791 16.5762 15.295 17.079 15.295 17.7011C15.295 18.3232 14.791 18.8261 14.17 18.8261Z" fill="white"/>
<path d="M7.38889 30.373H4.09274C3.47176 30.373 2.96777 29.8701 2.96777 29.248C2.96777 28.6259 3.47176 28.123 4.09274 28.123H7.38889C8.00987 28.123 8.51385 28.6259 8.51385 29.248C8.51385 29.869 8.01099 30.373 7.38889 30.373Z" fill="#8BD5EC"/>
<path d="M14.1701 30.373H10.874C10.253 30.373 9.74902 29.8701 9.74902 29.248C9.74902 28.6259 10.253 28.123 10.874 28.123H14.1701C14.7911 28.123 15.2951 28.6259 15.2951 29.248C15.2951 29.869 14.7911 30.373 14.1701 30.373Z" fill="#DAEFF6"/>
<path d="M20.9504 30.373H17.6543C17.0333 30.373 16.5293 29.8701 16.5293 29.248C16.5293 28.6259 17.0333 28.123 17.6543 28.123H20.9504C21.5714 28.123 22.0754 28.6259 22.0754 29.248C22.0754 29.869 21.5714 30.373 20.9504 30.373Z" fill="#8BD5EC"/>
<path d="M27.7302 30.373H24.434C23.8131 30.373 23.3091 29.8701 23.3091 29.248C23.3091 28.6259 23.8131 28.123 24.434 28.123H27.7302C28.3512 28.123 28.8552 28.6259 28.8552 29.248C28.8552 29.869 28.3512 30.373 27.7302 30.373Z" fill="#DAEFF6"/>
</g>
<defs>
<clipPath id="clip0_7386_7567">
<rect width="36" height="36" fill="white"/>
</clipPath>
</defs>
</svg>
