<svg width="36" height="37" viewBox="0 0 36 37" fill="none" xmlns="http://www.w3.org/2000/svg">
<path opacity="0.5" d="M33.75 12.3626H11.25V22.8142C11.25 23.7381 11.6056 24.6243 12.2385 25.2776C12.8714 25.931 13.7299 26.298 14.625 26.298H30.375C31.2701 26.298 32.1286 25.931 32.7615 25.2776C33.3944 24.6243 33.75 23.7381 33.75 22.8142V12.3626ZM16.875 10.04C16.5766 10.04 16.2905 9.91764 16.0795 9.69986C15.8685 9.48207 15.75 9.1867 15.75 8.8787V4.23355C15.75 3.92556 15.8685 3.63018 16.0795 3.4124C16.2905 3.19462 16.5766 3.07227 16.875 3.07227C17.1734 3.07227 17.4595 3.19462 17.6705 3.4124C17.8815 3.63018 18 3.92556 18 4.23355V8.8787C18 9.1867 17.8815 9.48207 17.6705 9.69986C17.4595 9.91764 17.1734 10.04 16.875 10.04ZM28.125 10.04C27.8266 10.04 27.5405 9.91764 27.3295 9.69986C27.1185 9.48207 27 9.1867 27 8.8787V4.23355C27 3.92556 27.1185 3.63018 27.3295 3.4124C27.5405 3.19462 27.8266 3.07227 28.125 3.07227C28.4234 3.07227 28.7095 3.19462 28.9205 3.4124C29.1315 3.63018 29.25 3.92556 29.25 4.23355V8.8787C29.25 9.1867 29.1315 9.48207 28.9205 9.69986C28.7095 9.91764 28.4234 10.04 28.125 10.04Z" fill="black"/>
<path d="M30.375 5.39551H29.25V8.87937C29.25 9.18736 29.1315 9.48274 28.9205 9.70052C28.7095 9.91831 28.4234 10.0407 28.125 10.0407C27.8266 10.0407 27.5405 9.91831 27.3295 9.70052C27.1185 9.48274 27 9.18736 27 8.87937V5.39551H18V8.87937C18 9.18736 17.8815 9.48274 17.6705 9.70052C17.4595 9.91831 17.1734 10.0407 16.875 10.0407C16.5766 10.0407 16.2905 9.91831 16.0795 9.70052C15.8685 9.48274 15.75 9.18736 15.75 8.87937V5.39551H14.625C13.7299 5.39551 12.8714 5.76256 12.2385 6.41591C11.6056 7.06926 11.25 7.95539 11.25 8.87937V12.3632H33.75V8.87937C33.75 7.95539 33.3944 7.06926 32.7615 6.41591C32.1286 5.76256 31.2701 5.39551 30.375 5.39551Z" fill="black"/>
<path d="M17.965 20.1866C18.355 20.5066 18.925 20.6666 19.665 20.6666C20.365 20.6666 20.925 20.4866 21.345 20.1266C21.765 19.7666 21.975 19.2666 21.975 18.6366V18.4766C21.975 18.0866 21.875 17.7566 21.695 17.4766C21.515 17.2066 21.245 17.0066 20.895 16.8866C21.205 16.7466 21.445 16.5566 21.605 16.3166C21.765 16.0766 21.855 15.7966 21.855 15.4766V15.3466C21.855 14.7866 21.655 14.3466 21.265 14.0266C20.865 13.7066 20.325 13.5466 19.635 13.5466C18.925 13.5466 18.385 13.7166 18.005 14.0466C17.625 14.3766 17.435 14.8466 17.435 15.4666V15.5566H18.635V15.4666C18.635 15.2066 18.715 15.0066 18.885 14.8666C19.045 14.7266 19.285 14.6566 19.605 14.6566C19.905 14.6566 20.145 14.7366 20.315 14.8766C20.475 15.0166 20.565 15.2166 20.565 15.4766V15.5966C20.565 15.8766 20.475 16.0866 20.295 16.2266C20.115 16.3766 19.865 16.4466 19.525 16.4466H19.145V17.5566H19.535C19.915 17.5566 20.205 17.6366 20.395 17.7866C20.585 17.9366 20.685 18.1666 20.685 18.4766V18.6266C20.685 18.9266 20.595 19.1566 20.415 19.3166C20.235 19.4766 19.975 19.5566 19.645 19.5566C19.305 19.5566 19.045 19.4966 18.865 19.3566C18.685 19.2166 18.595 19.0166 18.595 18.7566V18.6766H17.375V18.7866C17.375 19.3966 17.565 19.8666 17.965 20.1866ZM22.8069 18.1366C22.8069 19.8266 23.5769 20.6666 25.1269 20.6666C25.8969 20.6666 26.4769 20.4566 26.8669 20.0266C27.2469 19.6066 27.4469 18.9766 27.4469 18.1366V15.9966C27.4469 15.1966 27.2469 14.5866 26.8669 14.1666C26.4769 13.7566 25.8969 13.5466 25.1269 13.5466C24.3669 13.5466 23.7869 13.7566 23.3969 14.1666C22.9969 14.5866 22.8069 15.1966 22.8069 15.9966V18.1366ZM25.9069 19.1766C25.7469 19.4166 25.4869 19.5266 25.1269 19.5266C24.7669 19.5266 24.5069 19.4166 24.3569 19.1766C24.1969 18.9366 24.1269 18.5566 24.1269 18.0266V16.1866C24.1269 15.6666 24.1969 15.2866 24.3569 15.0466C24.5069 14.8166 24.7669 14.6966 25.1269 14.6966C25.4869 14.6966 25.7369 14.8166 25.8969 15.0466C26.0569 15.2866 26.1369 15.6666 26.1369 16.1866V18.0266C26.1369 18.5566 26.0569 18.9366 25.9069 19.1766Z" fill="white"/>
<rect y="18.1689" width="26.5264" height="18.5807" rx="1.68422" fill="#EEC840"/>
<path d="M18.4118 25.0941C19.7411 25.0941 20.8187 23.9818 20.8187 22.6096C20.8187 21.2374 19.7411 20.125 18.4118 20.125C17.0825 20.125 16.0049 21.2374 16.0049 22.6096C16.0049 23.9818 17.0825 25.0941 18.4118 25.0941Z" fill="#FEE218"/>
<path d="M21.8688 25.0941C23.1982 25.0941 24.2758 23.9818 24.2758 22.6096C24.2758 21.2374 23.1982 20.125 21.8688 20.125C20.5395 20.125 19.4619 21.2374 19.4619 22.6096C19.4619 23.9818 20.5395 25.0941 21.8688 25.0941Z" fill="#CD494C"/>
<path d="M7.55811 28.8641H2.88357C2.33816 28.8641 1.89551 28.4082 1.89551 27.8442C1.89551 27.2801 2.33816 26.8242 2.88357 26.8242H7.55811C8.10352 26.8242 8.54618 27.2801 8.54618 27.8442C8.54618 28.4072 8.10352 28.8641 7.55811 28.8641Z" fill="white"/>
<path d="M11.7337 23.6297H2.88357C2.33816 23.6297 1.89551 23.1738 1.89551 22.6098C1.89551 22.0458 2.33816 21.5898 2.88357 21.5898H11.7337C12.2791 21.5898 12.7217 22.0458 12.7217 22.6098C12.7217 23.1738 12.2791 23.6297 11.7337 23.6297Z" fill="white"/>
<path d="M5.77763 34.0985H2.8826C2.33718 34.0985 1.89453 33.6426 1.89453 33.0785C1.89453 32.5145 2.33718 32.0586 2.8826 32.0586H5.77763C6.32304 32.0586 6.76569 32.5145 6.76569 33.0785C6.76569 33.6415 6.32403 34.0985 5.77763 34.0985Z" fill="#8BD5EC"/>
<path d="M11.7337 34.0985H8.83865C8.29324 34.0985 7.85059 33.6426 7.85059 33.0785C7.85059 32.5145 8.29324 32.0586 8.83865 32.0586H11.7337C12.2791 32.0586 12.7217 32.5145 12.7217 33.0785C12.7217 33.6415 12.2791 34.0985 11.7337 34.0985Z" fill="#DAEFF6"/>
<path d="M17.6888 34.0985H14.7937C14.2483 34.0985 13.8057 33.6426 13.8057 33.0785C13.8057 32.5145 14.2483 32.0586 14.7937 32.0586H17.6888C18.2342 32.0586 18.6768 32.5145 18.6768 33.0785C18.6768 33.6415 18.2342 34.0985 17.6888 34.0985Z" fill="#8BD5EC"/>
<path d="M23.6438 34.0985H20.7488C20.2034 34.0985 19.7607 33.6426 19.7607 33.0785C19.7607 32.5145 20.2034 32.0586 20.7488 32.0586H23.6438C24.1893 32.0586 24.6319 32.5145 24.6319 33.0785C24.6319 33.6415 24.1893 34.0985 23.6438 34.0985Z" fill="#DAEFF6"/>
</svg>
