<svg width="36" height="35" viewBox="0 0 36 35" fill="none" xmlns="http://www.w3.org/2000/svg">
<path d="M18.8695 6.59012C18.7489 6.7794 18.4978 6.83505 18.3085 6.71453L17.4811 6.18741C16.0859 5.29867 15.6753 3.44716 16.5642 2.05194L17.1289 1.16532C17.2287 1.00878 17.4365 0.962705 17.593 1.06244L18.4797 1.62723C19.8748 2.51597 20.2854 4.36748 19.3966 5.7627L18.8695 6.59012Z" fill="#3DD358"/>
<path d="M22.2883 5.49184C22.2246 5.70704 21.9986 5.82988 21.7834 5.76624L20.8426 5.48795C19.2563 5.01866 18.3508 3.35233 18.8201 1.76605L19.1184 0.757956C19.171 0.579948 19.358 0.478298 19.5361 0.531003L20.5442 0.829255C22.1304 1.29854 23.0359 2.96487 22.5666 4.55115L22.2883 5.49184Z" fill="#6FDB75"/>
<path d="M27.846 8.22485C27.846 8.22485 28.7298 6.4417 28.7763 6.34866C28.8229 6.25562 29.1485 4.19336 29.1485 4.19336L27.6134 0.766572L25.811 0.223867L24.654 0.143066C22.6011 0.659316 21.0811 2.51685 21.0811 4.72984C21.0811 7.15728 22.91 9.15646 25.2649 9.42736L27.846 8.22485Z" fill="#FFCF82"/>
<path d="M25.8114 0C25.4121 0 25.0247 0.0499707 24.6544 0.143145C26.5569 0.595068 27.9725 2.30412 27.9725 4.34492C27.9725 6.73066 26.0385 8.66469 23.6528 8.66469C23.4793 8.66469 23.3087 8.65327 23.1406 8.63345C23.9007 9.15448 24.8202 9.45984 25.8114 9.45984C28.4236 9.45984 30.5413 7.34221 30.5413 4.72992C30.5412 2.11764 28.4236 0 25.8114 0V0Z" fill="#FFC25E"/>
<path d="M25.8018 4.70578C25.8044 4.65875 25.7876 4.61274 25.7552 4.5785C25.7229 4.54425 25.6778 4.5249 25.6307 4.5249H5.96433C5.91723 4.5249 5.87218 4.54432 5.83985 4.5785C5.80752 4.61274 5.79063 4.65875 5.79323 4.70578L7.34806 32.5751H24.2469L25.8018 4.70578Z" fill="#D4E8ED"/>
<path d="M23.9517 4.5249L22.3867 32.5751H24.2474L25.8022 4.70578C25.8048 4.65875 25.788 4.61274 25.7556 4.5785C25.7233 4.54425 25.6782 4.5249 25.6311 4.5249H23.9517Z" fill="#C0D4DE"/>
<path d="M23.9491 34.9999C24.0401 34.9999 24.1151 34.9289 24.1202 34.8381L24.2465 32.5747H7.34766L7.47392 34.8381C7.47897 34.9289 7.5541 34.9999 7.64502 34.9999H23.9491Z" fill="#C0D4DE"/>
<path d="M22.3863 32.5747L22.251 34.9999H23.9496C24.0406 34.9999 24.1156 34.9289 24.1207 34.8381L24.247 32.5747H22.3863Z" fill="#B2C5D1"/>
<path d="M20.85 29.6674L21.8734 26.1786L21.292 22.8293L21.8734 19.0847L21.0146 17.9946C19.8888 18.0733 19.8072 18.6906 18.5289 18.6906C17.1635 18.6906 17.1635 17.9863 15.7981 17.9863C14.4327 17.9863 14.4327 18.6906 13.0674 18.6906C11.7018 18.6906 11.7018 17.9863 10.3363 17.9863C9.55084 17.9863 9.21704 18.2192 8.81543 18.4172L9.38377 28.6037C9.43757 29.5674 10.2347 30.3213 11.1999 30.3213H19.5322L20.85 29.6674Z" fill="#6FDB75"/>
<path d="M21.2594 17.9863C21.1724 17.9863 21.0911 17.9893 21.0145 17.9946L20.9909 18.4171L20.4225 28.6036C20.3688 29.5674 19.5716 30.3213 18.6064 30.3213H20.3953C21.3606 30.3213 22.1577 29.5674 22.2114 28.6036L22.7798 18.4171C22.3784 18.2192 22.0446 17.9863 21.2594 17.9863Z" fill="#3DD358"/>
<path d="M21.8035 16.1307L22.1617 14.0374L22.5943 11.5952L21.5299 8.75635H8.4575C8.4104 8.75635 8.36535 8.77576 8.33301 8.80994C8.30068 8.84412 8.2838 8.8902 8.28639 8.93723L8.81529 18.4171C9.2169 18.2191 9.5507 17.9862 10.3361 17.9862C11.7017 17.9862 11.7017 18.6905 13.0672 18.6905C14.4326 18.6905 14.4326 17.9862 15.7979 17.9862C17.1633 17.9862 17.1633 18.6905 18.5287 18.6905C19.8071 18.6905 19.8887 18.0732 21.0145 17.9945L21.8035 16.1307Z" fill="#FFCF82"/>
<path d="M21.5301 8.75635L21.0146 17.9945C21.0913 17.9892 21.1726 17.9862 21.2596 17.9862C22.0448 17.9862 22.3786 18.2191 22.78 18.417L23.3089 8.9373C23.3115 8.89026 23.2946 8.84426 23.2622 8.81001C23.2299 8.77576 23.1849 8.75642 23.1378 8.75642H21.5301V8.75635Z" fill="#FFC25E"/>
<path d="M12.3691 22.1247C12.1821 22.1247 12.0009 22.0251 11.905 21.8494L11.7189 21.5082C11.5792 21.2522 11.6736 20.9313 11.9297 20.7916C12.1857 20.652 12.5065 20.7464 12.6462 21.0024L12.8323 21.3436C12.972 21.5996 12.8776 21.9205 12.6215 22.0602C12.5413 22.1039 12.4546 22.1247 12.3691 22.1247Z" fill="#FFCF82"/>
<path d="M15.5633 21.7837C15.2716 21.7837 15.0352 21.5472 15.0352 21.2555V20.7904C15.0352 20.4986 15.2716 20.2622 15.5633 20.2622C15.855 20.2622 16.0914 20.4987 16.0914 20.7904V21.2555C16.0914 21.5472 15.855 21.7837 15.5633 21.7837Z" fill="#FFCF82"/>
<path d="M19.6865 22.1251C19.6005 22.1251 19.5132 22.1041 19.4324 22.0597L19.1223 21.889C18.8668 21.7485 18.7735 21.4273 18.9141 21.1717C19.0547 20.9161 19.3758 20.8228 19.6315 20.9635L19.9416 21.1341C20.1972 21.2747 20.2904 21.5959 20.1498 21.8515C20.0536 22.0263 19.8729 22.1251 19.6865 22.1251Z" fill="#FFCF82"/>
<path d="M19.3778 25.0087C19.086 25.0087 18.8496 24.7723 18.8496 24.4806V24.1536C18.8496 23.8619 19.0861 23.6255 19.3778 23.6255C19.6694 23.6255 19.9059 23.8619 19.9059 24.1536V24.4806C19.906 24.7724 19.6695 25.0087 19.3778 25.0087Z" fill="#FFCF82"/>
<path d="M15.5622 25.4121C15.4452 25.4121 15.3274 25.3734 15.2294 25.2939L14.7332 24.8908C14.5068 24.7068 14.4724 24.3742 14.6564 24.1478C14.8403 23.9214 15.1729 23.887 15.3994 24.0709L15.8956 24.474C16.122 24.6579 16.1564 24.9906 15.9724 25.217C15.868 25.3454 15.7158 25.4121 15.5622 25.4121Z" fill="#FFCF82"/>
<path d="M12.3681 27.056C12.1359 27.056 11.923 26.9016 11.8589 26.6667L11.7658 26.3256C11.6891 26.0441 11.855 25.7538 12.1364 25.677C12.4176 25.6001 12.7082 25.7661 12.7849 26.0476L12.878 26.3887C12.9547 26.6702 12.7888 26.9605 12.5074 27.0372C12.4609 27.0499 12.4141 27.056 12.3681 27.056Z" fill="#FFCF82"/>
<path d="M16.9584 28.2035C16.7878 28.2035 16.6203 28.1209 16.5185 27.9682L16.2704 27.596C16.1086 27.3534 16.1742 27.0254 16.4169 26.8636C16.6596 26.7019 16.9876 26.7674 17.1493 27.0101L17.3974 27.3823C17.5592 27.6249 17.4936 27.9529 17.2509 28.1147C17.1609 28.1747 17.0591 28.2035 16.9584 28.2035Z" fill="#FFCF82"/>
<path d="M19.3775 27.4899H19.0985C18.8067 27.4899 18.5703 27.2534 18.5703 26.9617C18.5703 26.67 18.8068 26.4336 19.0985 26.4336H19.3775C19.6693 26.4336 19.9056 26.67 19.9056 26.9617C19.9056 27.2534 19.6693 27.4899 19.3775 27.4899Z" fill="#FFCF82"/>
<path d="M12.9583 15.0445L11.4415 13.7586C11.2726 13.6154 11.2517 13.3622 11.395 13.1932L12.6809 11.6764C12.8242 11.5074 13.0773 11.4866 13.2464 11.6299L14.7631 12.9158C14.9321 13.059 14.953 13.3122 14.8097 13.4812L13.5238 14.998C13.3805 15.167 13.1273 15.1878 12.9583 15.0445Z" fill="#FFB532"/>
<path d="M18.1653 15.5436L16.6486 14.2577C16.4796 14.1144 16.4587 13.8612 16.602 13.6922L17.8879 12.1754C18.0312 12.0064 18.2843 11.9856 18.4534 12.1289L19.9702 13.4148C20.1391 13.5581 20.16 13.8112 20.0167 13.9803L18.7308 15.497C18.5875 15.666 18.3344 15.6868 18.1653 15.5436Z" fill="#FFB532"/>
<path d="M16.3668 14.8762L14.405 14.5513C14.1864 14.5151 14.0386 14.3086 14.0748 14.09L14.3997 12.1282C14.4359 11.9096 14.6425 11.7617 14.8611 11.7979L16.8228 12.1229C17.0415 12.1591 17.1893 12.3656 17.1531 12.5842L16.8282 14.546C16.7919 14.7646 16.5854 14.9124 16.3668 14.8762Z" fill="#FFC25E"/>
</svg>
