<svg width="50" height="51" viewBox="0 0 50 51" fill="none" xmlns="http://www.w3.org/2000/svg">
<rect x="22.4586" y="3.45679" width="19.9054" height="11.6039" rx="1.99738" transform="rotate(-10 22.4586 3.45679)" fill="#CCCCCC"/>
<rect x="26.4172" y="9.38745" width="19.9054" height="11.6039" rx="1.99738" transform="rotate(11.7477 26.4172 9.38745)" fill="#CCCCCC"/>
<rect x="17.3285" y="3.39526" width="19.9054" height="11.6039" rx="1.99738" transform="rotate(80.7801 17.3285 3.39526)" fill="#CCCCCC"/>
<rect x="23.2522" y="28.3621" width="19.9054" height="11.6039" rx="1.99738" transform="rotate(6.89106 23.2522 28.3621)" fill="#BCBBB6"/>
<rect x="9.0228" y="2.54624" width="34.854" height="37.801" rx="0.85" fill="white" stroke="#CCCCCC" stroke-width="0.3"/>
<rect x="9.87427" y="3.39526" width="33.3563" height="33.7558" fill="#CCCCCC"/>
<g clip-path="url(#clip0_6870_3115)">
<path d="M28.632 11.3404C28.632 12.7062 29.1811 14.016 30.1585 14.9817C31.1359 15.9474 32.4616 16.4899 33.8439 16.4899C35.2262 16.4899 36.5519 15.9474 37.5293 14.9817C38.5067 14.016 39.0558 12.7062 39.0558 11.3404C39.0558 9.97469 38.5067 8.66489 37.5293 7.69917C36.5519 6.73345 35.2262 6.19092 33.8439 6.19092C32.4616 6.19092 31.1359 6.73345 30.1585 7.69917C29.1811 8.66489 28.632 9.97469 28.632 11.3404ZM19.8238 19.6888C20.0193 19.592 20.2407 19.5585 20.4566 19.5928C20.6724 19.6272 20.8719 19.7278 21.0267 19.8804L28.7612 29.582L34.3067 23.8723C34.5069 23.7406 34.7471 23.6813 34.9865 23.7046C35.2259 23.7279 35.4497 23.8322 35.6201 24L43.2212 32.9683V37.0879C43.2212 37.6342 43.0015 38.1582 42.6106 38.5444C42.2196 38.9307 41.6893 39.1477 41.1364 39.1477H11.9497C11.6759 39.1477 11.4048 39.0945 11.1518 38.991C10.8989 38.8874 10.6691 38.7357 10.4755 38.5444C10.2819 38.3532 10.1283 38.1261 10.0236 37.8762C9.91881 37.6263 9.86488 37.3584 9.86488 37.0879V27.8188L19.8238 19.6888Z" fill="white"/>
</g>
<path d="M0.991726 46.2618H2.88123V45.6668H0.307957V49.2683H0.991726V47.7807H2.62547V47.1857H0.991726V46.2618ZM3.39283 48.9969C3.61205 49.2109 3.91479 49.3153 4.30104 49.3153C4.68207 49.3153 4.97959 49.2109 5.19882 48.9969C5.41804 48.7881 5.52765 48.4749 5.52765 48.0678V47.7442C5.52765 47.3475 5.41804 47.0395 5.19882 46.8255C4.97959 46.6167 4.68207 46.5071 4.30104 46.5071C3.91479 46.5071 3.61205 46.6167 3.39283 46.8255C3.17361 47.0343 3.06399 47.3423 3.06399 47.7442V48.0678C3.06399 48.4749 3.17361 48.7881 3.39283 48.9969ZM4.88564 48.0626C4.88564 48.5115 4.68729 48.7359 4.30104 48.7359C3.90435 48.7359 3.70601 48.5115 3.70601 48.0626V47.7546C3.70601 47.3057 3.90435 47.0813 4.30104 47.0813C4.48895 47.0813 4.62988 47.1387 4.73427 47.2483C4.83344 47.3579 4.88564 47.525 4.88564 47.7546V48.0626ZM6.91056 47.0082H7.52648V46.5541H6.91056V45.7973L6.26855 46.0217V46.5541H5.79357V47.0082H6.26855V48.4332C6.26855 48.7046 6.34163 48.9082 6.48777 49.0543C6.63392 49.2005 6.84271 49.2683 7.11935 49.2683H7.46906V48.7203H7.2394C7.11935 48.7203 7.03583 48.6994 6.98364 48.6472C6.93144 48.595 6.91056 48.5115 6.91056 48.3914V47.0082ZM8.21485 48.9969C8.43408 49.2109 8.73682 49.3153 9.12307 49.3153C9.5041 49.3153 9.80162 49.2109 10.0208 48.9969C10.2401 48.7881 10.3497 48.4749 10.3497 48.0678V47.7442C10.3497 47.3475 10.2401 47.0395 10.0208 46.8255C9.80162 46.6167 9.5041 46.5071 9.12307 46.5071C8.73682 46.5071 8.43408 46.6167 8.21485 46.8255C7.99563 47.0343 7.88602 47.3423 7.88602 47.7442V48.0678C7.88602 48.4749 7.99563 48.7881 8.21485 48.9969ZM9.70766 48.0626C9.70766 48.5115 9.50932 48.7359 9.12307 48.7359C8.72638 48.7359 8.52803 48.5115 8.52803 48.0626V47.7546C8.52803 47.3057 8.72638 47.0813 9.12307 47.0813C9.31097 47.0813 9.4519 47.1387 9.5563 47.2483C9.65547 47.3579 9.70766 47.525 9.70766 47.7546V48.0626ZM14.8124 47.7337C14.7185 47.598 14.5775 47.4884 14.3948 47.4153C14.5566 47.3423 14.6819 47.2431 14.7706 47.1126C14.8594 46.9821 14.9064 46.836 14.9064 46.6689C14.9064 46.3453 14.7967 46.1 14.5827 45.9278C14.3635 45.7555 14.0556 45.6668 13.6484 45.6668H12.0878V49.2683H13.7163C14.113 49.2683 14.4209 49.1796 14.6349 49.0021C14.8489 48.8246 14.9586 48.5689 14.9586 48.2348C14.9586 48.0417 14.9064 47.8747 14.8124 47.7337ZM12.7715 46.2618H13.6797C14.0399 46.2618 14.2226 46.4132 14.2226 46.7107C14.2226 46.9978 14.0295 47.1387 13.6537 47.1387H12.7715V46.2618ZM14.28 48.1879C14.28 48.5115 14.0921 48.6733 13.7267 48.6733H12.7715V47.7337H13.7006C14.0869 47.7337 14.28 47.8851 14.28 48.1879ZM16.0771 48.0887H17.9405V47.7755C17.9405 47.3684 17.8257 47.0552 17.6064 46.836C17.382 46.6167 17.074 46.5071 16.6878 46.5071C16.2963 46.5071 15.9884 46.622 15.7691 46.8412C15.5447 47.0604 15.4351 47.3788 15.4351 47.7912V48.026C15.4351 48.4488 15.5447 48.7672 15.7744 48.9865C16.004 49.2057 16.3172 49.3153 16.7191 49.3153C17.0688 49.3153 17.3507 49.237 17.5647 49.0804C17.7787 48.9238 17.8935 48.7098 17.9144 48.4488V48.4175H17.2828L17.2776 48.4332C17.262 48.5376 17.2045 48.6159 17.1106 48.6681C17.0166 48.7255 16.8914 48.7516 16.7452 48.7516C16.2963 48.7516 16.0771 48.5376 16.0771 48.0991V48.0887ZM16.0771 47.645C16.098 47.2588 16.3015 47.0604 16.6878 47.0604C16.8705 47.0604 17.0166 47.1074 17.1262 47.2013C17.2359 47.2953 17.2933 47.431 17.2933 47.6085V47.645H16.0771ZM18.678 49.0543C18.8241 49.2005 19.0538 49.2683 19.3617 49.2683H19.7219V48.7098H19.4766C19.3356 48.7098 19.2365 48.6837 19.1843 48.6315C19.1321 48.5793 19.106 48.4854 19.106 48.3497V45.6668H18.4588V48.3914C18.4588 48.6889 18.5318 48.9082 18.678 49.0543ZM20.3875 49.0178C20.5911 49.2161 20.8938 49.3153 21.2957 49.3153C21.6924 49.3153 21.9952 49.2161 22.1987 49.0178C22.4023 48.8194 22.5067 48.5271 22.5067 48.1304V46.5541H21.8595V48.0991C21.8595 48.3131 21.8125 48.4749 21.729 48.5793C21.6402 48.6837 21.4941 48.7359 21.2957 48.7359C21.0974 48.7359 20.9512 48.6837 20.8625 48.5741C20.7738 48.4697 20.732 48.3079 20.732 48.0991V46.5541H20.0848V48.1304C20.0848 48.5219 20.184 48.8194 20.3875 49.0178ZM23.0718 46.5541V49.2683H23.719V47.7337C23.719 47.5302 23.766 47.3736 23.8652 47.264C23.9643 47.1544 24.1053 47.097 24.288 47.097C24.455 47.097 24.5803 47.1491 24.669 47.2431C24.7577 47.3423 24.8047 47.4884 24.8047 47.6815V49.2683H25.4519V47.7233C25.4519 47.525 25.4989 47.3736 25.5981 47.264C25.6973 47.1544 25.8382 47.097 26.0157 47.097C26.1827 47.097 26.3132 47.1491 26.4019 47.2535C26.4906 47.3579 26.5376 47.5093 26.5376 47.7076V49.2683H27.1848V47.5772C27.1848 47.2483 27.0909 46.9926 26.9082 46.8047C26.7203 46.6167 26.4645 46.5228 26.1305 46.5228C25.7755 46.5228 25.4885 46.6481 25.2588 46.8882C25.1649 46.7681 25.0552 46.6794 24.9195 46.6167C24.7838 46.5541 24.6325 46.5228 24.4706 46.5228C24.3245 46.5228 24.1836 46.5541 24.0479 46.6063C23.9121 46.6637 23.7973 46.742 23.7034 46.8464V46.5541H23.0718ZM31.538 46.2618V45.6668H28.6933V46.2618H29.7738V49.2683H30.4575V46.2618H31.538ZM32.0978 48.0887H33.9612V47.7755C33.9612 47.3684 33.8464 47.0552 33.6272 46.836C33.4027 46.6167 33.0948 46.5071 32.7085 46.5071C32.3171 46.5071 32.0091 46.622 31.7899 46.8412C31.5654 47.0604 31.4558 47.3788 31.4558 47.7912V48.026C31.4558 48.4488 31.5654 48.7672 31.7951 48.9865C32.0248 49.2057 32.3379 49.3153 32.7399 49.3153C33.0896 49.3153 33.3714 49.237 33.5854 49.0804C33.7994 48.9238 33.9143 48.7098 33.9351 48.4488V48.4175H33.3036L33.2984 48.4332C33.2827 48.5376 33.2253 48.6159 33.1313 48.6681C33.0374 48.7255 32.9121 48.7516 32.766 48.7516C32.3171 48.7516 32.0978 48.5376 32.0978 48.0991V48.0887ZM32.0978 47.645C32.1187 47.2588 32.3223 47.0604 32.7085 47.0604C32.8912 47.0604 33.0374 47.1074 33.147 47.2013C33.2566 47.2953 33.314 47.431 33.314 47.6085V47.645H32.0978ZM34.4795 46.5541V49.2683H35.1267V47.7651C35.1267 47.5406 35.1789 47.3684 35.2938 47.2483C35.4086 47.1283 35.5652 47.0656 35.774 47.0656C35.9097 47.0656 36.0402 47.0917 36.1602 47.1335V46.5176C36.0871 46.5071 36.0036 46.4967 35.9045 46.4967C35.7374 46.4967 35.5861 46.528 35.4503 46.5906C35.3146 46.6533 35.1998 46.742 35.1111 46.8621V46.5541H34.4795ZM36.7529 49.0752C36.9565 49.2266 37.2436 49.2996 37.6142 49.2996C37.99 49.2996 38.2823 49.2266 38.5015 49.0752C38.7207 48.929 38.8303 48.7098 38.8303 48.428C38.8303 48.2035 38.752 48.026 38.6059 47.8956C38.4545 47.7651 38.2249 47.6815 37.9117 47.645L37.4785 47.5928C37.3375 47.5824 37.2383 47.5511 37.1809 47.5041C37.1183 47.4623 37.0922 47.3997 37.0922 47.3214C37.0922 47.2274 37.134 47.1596 37.2175 47.1074C37.301 47.0552 37.4367 47.0291 37.6142 47.0291C37.8021 47.0291 37.943 47.0604 38.037 47.1126C38.1309 47.17 38.1779 47.2483 38.1779 47.3527V47.3684H38.7781V47.3475C38.7781 47.0917 38.6737 46.8882 38.4702 46.742C38.2614 46.5959 37.9795 46.5228 37.6194 46.5228C37.2644 46.5228 36.9878 46.5959 36.7895 46.742C36.5859 46.8882 36.4867 47.097 36.4867 47.3632C36.4867 47.5928 36.5546 47.7703 36.7007 47.8956C36.8469 48.0208 37.0713 48.0991 37.3793 48.1357L37.7812 48.1826C37.9326 48.2035 38.0422 48.2348 38.11 48.2766C38.1779 48.3236 38.2144 48.3862 38.2144 48.4697C38.2144 48.5741 38.1622 48.6472 38.0683 48.6994C37.9743 48.7516 37.8334 48.7777 37.6507 48.7777C37.4524 48.7777 37.301 48.7463 37.2018 48.6837C37.0974 48.6211 37.0504 48.5376 37.0504 48.428V48.4175H36.445V48.4332C36.445 48.7098 36.5441 48.9238 36.7529 49.0752ZM39.8814 48.0887H41.7448V47.7755C41.7448 47.3684 41.63 47.0552 41.4107 46.836C41.1863 46.6167 40.8783 46.5071 40.4921 46.5071C40.1006 46.5071 39.7927 46.622 39.5734 46.8412C39.349 47.0604 39.2394 47.3788 39.2394 47.7912V48.026C39.2394 48.4488 39.349 48.7672 39.5787 48.9865C39.8083 49.2057 40.1215 49.3153 40.5234 49.3153C40.8731 49.3153 41.155 49.237 41.369 49.0804C41.583 48.9238 41.6978 48.7098 41.7187 48.4488V48.4175H41.0871L41.0819 48.4332C41.0662 48.5376 41.0088 48.6159 40.9149 48.6681C40.8209 48.7255 40.6956 48.7516 40.5495 48.7516C40.1006 48.7516 39.8814 48.5376 39.8814 48.0991V48.0887ZM39.8814 47.645C39.9023 47.2588 40.1058 47.0604 40.4921 47.0604C40.6748 47.0604 40.8209 47.1074 40.9305 47.2013C41.0401 47.2953 41.0976 47.431 41.0976 47.6085V47.645H39.8814ZM42.5084 48.9969C42.7015 49.2109 42.9572 49.3153 43.2809 49.3153C43.6149 49.3153 43.8707 49.2057 44.0481 48.976V49.2683H44.6797V45.6668H44.0377V46.8464C43.8446 46.622 43.5888 46.5071 43.2704 46.5071C43.0616 46.5071 42.879 46.5593 42.7224 46.6533C42.5658 46.7472 42.4405 46.8882 42.3518 47.0709C42.263 47.2588 42.2213 47.478 42.2213 47.739V48.0782C42.2213 48.4801 42.3152 48.7881 42.5084 48.9969ZM43.8707 48.5637C43.7611 48.6785 43.6149 48.7359 43.427 48.7359C43.2495 48.7359 43.1086 48.6837 43.0147 48.5689C42.9155 48.4541 42.8685 48.2818 42.8685 48.0521V47.7703C42.8685 47.5406 42.9155 47.3684 43.0147 47.2535C43.1138 47.1387 43.2548 47.0813 43.4427 47.0813C43.6306 47.0813 43.7767 47.1439 43.8811 47.2588C43.9855 47.3736 44.0377 47.5354 44.0377 47.7442V48.0887C44.0377 48.2922 43.9803 48.4488 43.8707 48.5637ZM45.271 45.6511V46.1679H45.9131V45.6511H45.271ZM45.271 46.5541V49.2683H45.9131V46.5541H45.271ZM48.5135 46.7838C48.3047 46.6115 48.0124 46.5228 47.6262 46.5228C47.2817 46.5228 47.0051 46.6011 46.8015 46.7472C46.5979 46.8934 46.4988 47.097 46.4988 47.3527V47.3684H47.1147V47.3527C47.1147 47.2588 47.1512 47.1752 47.2295 47.1126C47.3078 47.05 47.4331 47.0187 47.6105 47.0187C47.9916 47.0187 48.1847 47.1805 48.1847 47.5041V47.6659H47.4592C47.1199 47.6659 46.8589 47.7337 46.6814 47.8695C46.504 48.0052 46.4152 48.2035 46.4152 48.4593C46.4152 48.7307 46.4988 48.9343 46.6658 49.0804C46.8328 49.2266 47.0834 49.2996 47.4122 49.2996C47.5844 49.2996 47.7306 49.2787 47.8559 49.237C47.9759 49.1952 48.0907 49.1222 48.2003 49.0178V49.2683H48.8267V47.5354C48.8267 47.2118 48.7223 46.9612 48.5135 46.7838ZM48.1847 48.2766C48.1847 48.6159 47.9707 48.7829 47.5531 48.7829C47.3809 48.7829 47.2504 48.7568 47.1669 48.6942C47.0834 48.6367 47.0416 48.5532 47.0416 48.4436C47.0416 48.3288 47.0834 48.2453 47.1721 48.1931C47.2556 48.1409 47.3913 48.1096 47.5792 48.1096H48.1847V48.2766Z" fill="#838383"/>
<defs>
<clipPath id="clip0_6870_3115">
<rect width="33.3563" height="32.9568" fill="white" transform="matrix(-1 0 0 1 43.2246 6.19067)"/>
</clipPath>
</defs>
</svg>
