<svg width="215" height="196" viewBox="0 0 215 196" fill="none" xmlns="http://www.w3.org/2000/svg">
<path opacity="0.7" d="M68.4876 181.768C79.8832 189.858 102.314 181.642 111.097 173.352C139.602 146.445 189.919 101.087 182.75 51.1895C179.702 29.9792 159.014 22.6154 150.644 20.91C130.537 16.8105 109.699 18.5058 89.4117 21.5787C68.2211 24.7884 45.8339 29.9697 28.9386 43.9553C22.5415 49.2541 16.7633 55.564 13.4747 63.2753C10.1355 71.1087 9.0578 79.8612 9.97769 88.3023C11.4627 101.917 17.7176 114.626 25.5896 125.833C33.4616 137.04 42.9677 146.978 51.9409 157.328C57.7923 164.085 58.8877 174.95 68.4876 181.768Z" fill="#FFEE8E"/>
<g clip-path="url(#clip0_7754_6357)">
<path d="M144.358 159.962H37.0437V69.1792L90.6925 35.1123L144.358 69.1792V159.962Z" fill="#FFC727"/>
<path opacity="0.2" d="M144.358 159.962H37.0437V69.1792L90.6925 35.1123L144.358 69.1792V159.962Z" fill="black"/>
<path d="M138.309 30.7949H43.0981V153.023H138.309V30.7949Z" fill="white"/>
<path d="M144.358 91.9062V159.963H37.0437V91.9062C41.6522 94.5189 46.1836 97.26 50.7408 99.9326C55.2893 102.657 59.8293 105.381 64.3435 108.156C69.3718 111.214 74.4 114.332 79.4111 117.467C79.4625 117.433 79.5225 117.399 79.5739 117.373C79.5225 117.407 79.4968 117.45 79.4454 117.484C83.1973 119.823 86.9578 122.178 90.7097 124.526C94.4444 122.17 98.2049 119.806 101.957 117.484C101.905 117.45 101.88 117.407 101.828 117.373C101.88 117.407 101.94 117.441 101.991 117.45C107.002 114.323 112.013 111.214 117.059 108.139C121.573 105.381 126.096 102.639 130.644 99.9326C135.227 97.2514 139.75 94.5189 144.358 91.9062Z" fill="#FFC727"/>
<g opacity="0.2">
<path d="M144.357 91.906C140.023 94.9555 135.603 97.868 131.243 100.866C126.84 103.796 122.428 106.734 117.991 109.629C113.366 112.661 108.723 115.66 104.08 118.64C103.935 118.735 103.806 118.838 103.66 118.932C99.5487 121.561 95.4285 124.183 91.2997 126.812L90.6915 127.181L90.0919 126.812C85.9631 124.183 81.8599 121.561 77.7483 118.915C77.6027 118.838 77.457 118.735 77.3114 118.64C72.6515 115.66 68.0087 112.661 63.3831 109.612C58.9631 106.725 54.5516 103.796 50.1487 100.857C45.78 97.8594 41.3685 94.947 37.0341 91.8975C41.6426 94.5101 46.174 97.2512 50.7311 99.9238C55.2797 102.648 59.8197 105.372 64.3339 108.147C69.3622 111.205 74.3904 114.323 79.4015 117.458C79.4186 117.458 79.4186 117.458 79.4358 117.476C83.1877 119.814 86.9481 122.17 90.7001 124.517C94.4348 122.161 98.1953 119.797 101.947 117.476C101.964 117.441 101.964 117.441 101.981 117.441C106.993 114.315 112.004 111.205 117.049 108.13C121.563 105.372 126.086 102.631 130.635 99.9238C135.226 97.2512 139.749 94.5186 144.357 91.906Z" fill="black"/>
<path d="M79.5714 117.374C79.52 117.408 79.4943 117.451 79.4429 117.485C78.8775 117.965 78.3122 118.453 77.7468 118.916C75.0571 121.186 72.2989 123.362 69.4978 125.477C66.0799 128.09 62.585 130.583 59.073 133.067C55.5438 135.5 51.9975 137.915 48.374 140.237C44.7506 142.558 41.093 144.828 37.2982 146.91C40.5533 144.057 43.9369 141.402 47.3547 138.806C50.7897 136.194 54.2846 133.701 57.7795 131.217C61.3258 128.767 64.8721 126.351 68.4956 124.03C71.3823 122.18 74.3119 120.355 77.31 118.65C78.0038 118.248 78.6977 117.862 79.4086 117.477C79.46 117.434 79.52 117.4 79.5714 117.374Z" fill="black"/>
<path d="M144.102 146.91C140.316 144.828 136.641 142.558 133.026 140.237C129.403 137.915 125.857 135.5 122.31 133.067C118.798 130.583 115.303 128.09 111.886 125.477C109.102 123.37 106.343 121.203 103.662 118.933C103.08 118.453 102.514 117.965 101.958 117.485C101.906 117.451 101.88 117.408 101.829 117.374C101.88 117.408 101.94 117.443 101.992 117.451C102.703 117.854 103.397 118.239 104.09 118.642C107.089 120.346 110.001 122.171 112.905 124.021C116.528 126.343 120.075 128.758 123.604 131.208C127.116 133.692 130.611 136.185 134.029 138.798C137.464 141.402 140.847 144.057 144.102 146.91Z" fill="black"/>
</g>
<rect x="48.187" y="37.0596" width="23.8842" height="23.8842" rx="3.9807" fill="#7A61FF"/>
<rect x="48.187" y="68.5322" width="47.7683" height="5.57297" rx="2.78649" fill="#CCCCCC"/>
<rect x="48.187" y="78.084" width="62.0988" height="5.57297" rx="2.78649" fill="#CCCCCC"/>
<rect x="48.187" y="87.6396" width="78.8178" height="5.57297" rx="2.78649" fill="#CCCCCC"/>
<g clip-path="url(#clip1_7754_6357)">
<path d="M63.7989 50.7296C63.7989 51.3984 63.9891 51.6651 64.4867 51.6651C65.5957 51.6651 66.3019 50.2519 66.3019 47.9017C66.3019 44.3095 63.6842 42.5899 60.4161 42.5899C57.054 42.5899 53.996 44.8445 53.996 49.1055C53.996 53.1753 56.671 55.3918 60.7791 55.3918C62.1739 55.3918 63.1102 55.2389 64.5424 54.7613L64.8498 56.0406C63.4358 56.5 61.9247 56.633 60.76 56.633C55.3717 56.633 52.4857 53.6713 52.4857 49.1047C52.4857 44.4998 55.8303 41.3662 60.4352 41.3662C65.2311 41.3662 67.7716 44.2323 67.7716 47.7481C67.7716 50.7288 66.8361 53.0026 63.8936 53.0026C62.5553 53.0026 61.6771 52.4676 61.5625 51.2821C61.2186 52.6005 60.3014 53.0026 59.0586 53.0026C57.3963 53.0026 56.0015 51.7216 56.0015 49.1429C56.0015 46.5443 57.2251 44.9393 59.4225 44.9393C60.588 44.9393 61.3141 45.3979 61.6373 46.1239L62.1922 45.1112H63.7973V50.7296H63.7989ZM61.4494 48.2074C61.4494 47.1573 60.6653 46.7171 60.0156 46.7171C59.3086 46.7171 58.526 47.2895 58.526 48.9717C58.526 50.3092 59.1184 51.0544 60.0156 51.0544C60.6461 51.0544 61.4494 50.6532 61.4494 49.5449V48.2074Z" fill="white"/>
</g>
</g>
<g clip-path="url(#clip2_7754_6357)">
<g filter="url(#filter0_d_7754_6357)">
<path fill-rule="evenodd" clip-rule="evenodd" d="M129.266 66.1618L121.026 71.5771L123.615 59.0629C120.761 53.8893 119.661 47.826 120.921 41.7329C123.844 27.6021 138.346 18.654 153.307 21.7488C168.269 24.8436 178.031 38.8106 175.108 52.9414C172.185 67.0722 157.683 76.0204 142.722 72.9256C137.715 71.9067 133.071 69.572 129.266 66.1618Z" fill="#F08200"/>
</g>
<path d="M132.603 44.5048C131.863 44.2582 131.856 43.8599 132.617 43.6062L159.671 34.5889C160.42 34.3394 160.85 34.7589 160.64 35.4931L152.91 62.5451C152.697 63.2949 152.265 63.3204 151.947 62.6089L146.853 51.1452L155.358 39.8062L144.019 48.3104L132.603 44.5048Z" fill="white"/>
</g>
<circle cx="22.0964" cy="142.185" r="6.76478" fill="#FFC535"/>
<circle cx="22.0947" cy="142.183" r="5.86281" fill="white"/>
<circle cx="7.21601" cy="111.97" r="3.60788" fill="#FFC535"/>
<circle cx="7.21497" cy="111.97" r="3.12683" fill="white"/>
<circle cx="15.3302" cy="127.305" r="4.50985" fill="#FFC535"/>
<circle cx="15.3318" cy="127.306" r="3.90854" fill="#FFC535"/>
<circle cx="3.1569" cy="96.1881" r="3.1569" fill="#FFC535"/>
<circle cx="3.15785" cy="96.1891" r="2.73598" fill="#FFC535"/>
<circle cx="5.41182" cy="85.8127" r="1.80394" fill="#FFC535"/>
<circle cx="5.41214" cy="85.8134" r="1.56342" fill="#FFC535"/>
<circle r="6.76478" transform="matrix(-0.465102 0.885257 0.885257 0.465102 195.903 59.9679)" fill="#FFC535"/>
<circle r="5.86281" transform="matrix(-0.465102 0.885257 0.885257 0.465102 195.902 59.9687)" fill="white"/>
<circle r="3.60788" transform="matrix(-0.465102 0.885257 0.885257 0.465102 178.353 27.0624)" fill="#FFC535"/>
<circle r="3.12683" transform="matrix(-0.465102 0.885257 0.885257 0.465102 178.354 27.0622)" fill="white"/>
<circle r="4.50985" transform="matrix(-0.465102 0.885257 0.885257 0.465102 188.151 41.3819)" fill="#FFC535"/>
<circle r="3.90854" transform="matrix(-0.465102 0.885257 0.885257 0.465102 188.149 41.3824)" fill="#FFC535"/>
<circle r="3.1569" transform="matrix(-0.465102 0.885257 0.885257 0.465102 166.268 16.1262)" fill="#FFC535"/>
<circle r="2.73598" transform="matrix(-0.465102 0.885257 0.885257 0.465102 166.269 16.1272)" fill="#FFC535"/>
<circle r="1.80394" transform="matrix(-0.465102 0.885257 0.885257 0.465102 156.033 13.3002)" fill="#FFC535"/>
<circle r="1.56342" transform="matrix(-0.465102 0.885257 0.885257 0.465102 156.032 13.3006)" fill="#FFC535"/>
<defs>
<filter id="filter0_d_7754_6357" x="115.793" y="21.1367" width="64.4437" height="61.6228" filterUnits="userSpaceOnUse" color-interpolation-filters="sRGB">
<feFlood flood-opacity="0" result="BackgroundImageFix"/>
<feColorMatrix in="SourceAlpha" type="matrix" values="0 0 0 0 0 0 0 0 0 0 0 0 0 0 0 0 0 0 127 0" result="hardAlpha"/>
<feOffset dy="4.61119"/>
<feGaussianBlur stdDeviation="2.3056"/>
<feComposite in2="hardAlpha" operator="out"/>
<feColorMatrix type="matrix" values="0 0 0 0 0 0 0 0 0 0 0 0 0 0 0 0 0 0 0.25 0"/>
<feBlend mode="normal" in2="BackgroundImageFix" result="effect1_dropShadow_7754_6357"/>
<feBlend mode="normal" in="SourceGraphic" in2="effect1_dropShadow_7754_6357" result="shape"/>
</filter>
<clipPath id="clip0_7754_6357">
<rect width="136.936" height="149.177" fill="white" transform="translate(21.9159 10.7871)"/>
</clipPath>
<clipPath id="clip1_7754_6357">
<rect width="15.9228" height="15.9228" fill="white" transform="translate(52.17 41.041)"/>
</clipPath>
<clipPath id="clip2_7754_6357">
<rect width="73.7791" height="73.7791" fill="white" transform="translate(129.759) rotate(25.0306)"/>
</clipPath>
</defs>
</svg>
