<svg width="35" height="35" viewBox="0 0 35 35" fill="none" xmlns="http://www.w3.org/2000/svg">
<g clip-path="url(#clip0_7211_1525)">
<path d="M33.6754 32.0625L33.2304 33.6199C33.0587 34.2201 32.4079 34.7112 31.7835 34.7112H4.54028C3.91596 34.7112 3.26518 34.22 3.09339 33.6199L2.64844 32.0625H33.6754Z" fill="#F9EBDB"/>
<path d="M34.4323 32.6298H1.89181C1.57831 32.6298 1.32422 32.3758 1.32422 32.0622C1.32422 31.7487 1.57824 31.4946 1.89181 31.4946H34.4324C34.7459 31.4946 35 31.7487 35 32.0622C34.9999 32.3758 34.7459 32.6298 34.4323 32.6298Z" fill="#E8D6BD"/>
<path d="M30.2703 11.9063V17.9604C30.2703 24.6478 24.8489 30.0684 18.1622 30.0684C14.6992 30.0684 11.5769 28.6147 9.37022 26.2847H6.05411C4.43693 26.2847 2.91662 25.6551 1.77311 24.5116C0.62959 23.3681 0 21.8478 0 20.2306C0 18.6135 0.62959 17.0932 1.77311 15.9496C2.91662 14.8061 4.43687 14.1765 6.05411 14.1765V11.9062H30.2703V11.9063ZM6.05404 24.0144H7.67423C6.64351 22.2338 6.05404 20.1656 6.05404 17.9604V16.4468C5.04301 16.4468 4.09329 16.8404 3.37818 17.5547C2.66383 18.2698 2.27028 19.2196 2.27028 20.2306C2.27028 21.2415 2.66383 22.1913 3.37894 22.9065C4.09329 23.6209 5.04301 24.0144 6.05404 24.0144Z" fill="#C8FEFF"/>
<path d="M14.3143 1.11475L19.1874 3.56625L22.0098 8.81017C20.5455 10.2745 17.635 9.73869 15.51 7.61374C13.385 5.48879 12.8492 2.57907 14.3143 1.11475Z" fill="#B75548"/>
<path d="M28 14.1768V17.9605C28 23.385 23.5865 27.7984 18.1621 27.7984C12.7376 27.7984 8.32422 23.385 8.32422 17.9605V14.1768C10.7837 14.1768 10.7837 15.2362 13.2432 15.2362C15.7027 15.2362 15.7026 14.1768 18.1613 14.1768C20.6215 14.1768 20.6215 15.2362 23.081 15.2362C25.5405 15.2362 25.5405 14.1768 28 14.1768Z" fill="#8E4238"/>
<path d="M20.8135 2.31145C22.9385 4.4364 23.4743 7.34619 22.0099 8.81045L14.3145 1.11503C15.7788 -0.35005 18.6877 0.18575 20.8135 2.31145Z" fill="#8E4238"/>
</g>
<defs>
<clipPath id="clip0_7211_1525">
<rect width="35" height="35" fill="white"/>
</clipPath>
</defs>
</svg>
