<svg width="35" height="35" viewBox="0 0 35 35" fill="none" xmlns="http://www.w3.org/2000/svg">
<g clip-path="url(#clip0_7211_1668)">
<path d="M32.6392 15.1392C32.6392 13.5145 32.3831 11.9499 31.91 10.483C29.5084 10.483 17.4992 7.88916 17.4992 7.88916C17.4992 7.88916 5.49151 10.483 3.08998 10.483C2.61693 11.9499 2.36072 13.5145 2.36072 15.1392C1.0569 15.1392 0 16.1961 0 17.4999C0 18.8038 1.0569 19.8607 2.36079 19.8607L17.5001 22.1684L32.6392 19.8607C33.9431 19.8607 35 18.8038 35 17.4999C35 16.1961 33.9431 15.1392 32.6392 15.1392Z" fill="#FF9A52"/>
<path d="M31.9097 10.483C29.5082 10.483 29.5082 12.5046 27.1059 12.5046C24.7044 12.5046 24.7044 10.483 22.3021 10.483C19.9006 10.483 19.9006 12.5046 17.499 12.5046C15.0975 12.5046 15.0975 10.483 12.696 10.483C10.2944 10.483 10.2944 12.5046 7.89291 12.5046C5.49138 12.5046 5.49138 10.483 3.08984 10.483C5.05436 4.40002 10.7636 0 17.4997 0C24.2359 0 29.9451 4.40002 31.9097 10.483Z" fill="#8E4238"/>
<path d="M2.36035 19.8608L5.558 35H29.4411L32.6388 19.8608H2.36035Z" fill="#B75548"/>
<path d="M26.8208 33.2696C26.7908 33.2696 26.7605 33.2673 26.7298 33.2624C26.415 33.2125 26.2005 32.917 26.2504 32.6023L27.9224 22.0536C27.9723 21.739 28.2676 21.5241 28.5825 21.5741C28.8973 21.624 29.1119 21.9195 29.062 22.2342L27.3899 32.7829C27.3449 33.067 27.0997 33.2696 26.8208 33.2696Z" fill="#8E4238"/>
<path d="M24.3921 26.849C24.3717 26.849 24.3514 26.8478 24.3307 26.8457C24.0138 26.8121 23.7842 26.5282 23.8177 26.2113L24.254 22.0855C24.2876 21.7687 24.5707 21.5394 24.8884 21.5725C25.2053 21.6061 25.4349 21.89 25.4014 22.2069L24.965 26.3327C24.9338 26.6288 24.6835 26.849 24.3921 26.849Z" fill="#8E4238"/>
<path d="M23.7133 33.2698C23.693 33.2698 23.6727 33.2687 23.652 33.2665C23.3351 33.233 23.1055 32.949 23.139 32.6322L23.5753 28.5064C23.6089 28.1896 23.8922 27.9602 24.2097 27.9934C24.5265 28.027 24.7562 28.311 24.7227 28.6278L24.2863 32.7536C24.255 33.0497 24.0047 33.2698 23.7133 33.2698Z" fill="#8E4238"/>
<path d="M20.6058 33.2694C20.5954 33.2694 20.585 33.2692 20.5748 33.2686C20.2566 33.2517 20.0123 32.9801 20.0291 32.6619L20.5878 22.1178C20.6047 21.7996 20.878 21.5544 21.1945 21.5722C21.5127 21.589 21.757 21.8607 21.7401 22.1788L21.1814 32.7229C21.1651 33.0307 20.9104 33.2694 20.6058 33.2694Z" fill="#8E4238"/>
<path d="M17.4988 33.2698C17.1801 33.2698 16.9218 33.0114 16.9219 32.6928L16.9238 22.151C16.9239 21.8324 17.1821 21.5742 17.5007 21.5742C17.8195 21.5743 18.0778 21.8326 18.0777 22.1512L18.0758 32.693C18.0756 33.0116 17.8174 33.2698 17.4988 33.2698Z" fill="#8E4238"/>
<path d="M14.3908 33.2697C14.0862 33.2697 13.8314 33.031 13.8153 32.7232L13.2606 22.1838C13.2438 21.8655 13.4882 21.5941 13.8064 21.5773C14.1269 21.5576 14.3961 21.8049 14.4128 22.1231L14.9676 32.6625C14.9843 32.9807 14.7399 33.2522 14.4218 33.269C14.4113 33.2695 14.401 33.2697 14.3908 33.2697Z" fill="#8E4238"/>
<path d="M11.2835 33.2696C10.992 33.2696 10.7416 33.0494 10.7104 32.7531L9.59894 22.2159C9.56545 21.899 9.79534 21.615 10.1122 21.5816C10.4297 21.5495 10.7131 21.778 10.7465 22.0949L11.8579 32.632C11.8913 32.9489 11.6615 33.2329 11.3446 33.2663C11.3241 33.2685 11.3036 33.2696 11.2835 33.2696Z" fill="#8E4238"/>
<path d="M8.17614 33.2698C7.8973 33.2698 7.65196 33.0672 7.60705 32.783L5.93881 22.2482C5.88904 21.9335 6.10382 21.638 6.41841 21.5882C6.73348 21.5385 7.02873 21.753 7.07842 22.0678L8.74667 32.6026C8.79643 32.9172 8.58165 33.2128 8.26706 33.2626C8.23643 33.2675 8.20615 33.2698 8.17614 33.2698Z" fill="#8E4238"/>
</g>
<defs>
<clipPath id="clip0_7211_1668">
<rect width="35" height="35" fill="white"/>
</clipPath>
</defs>
</svg>
