<svg width="36" height="35" viewBox="0 0 36 35" fill="none" xmlns="http://www.w3.org/2000/svg">
<g clip-path="url(#clip0_7211_1576)">
<path d="M16.965 7.0964L7.39391 9.04539C6.59301 9.2085 6.29551 10.1972 6.87342 10.7752L14.4956 18.3974C15.0735 18.9753 16.0623 18.6778 16.2254 17.8769L18.1744 8.30574C18.321 7.58578 17.685 6.94983 16.965 7.0964Z" fill="#FE9901"/>
<path d="M9.47334 10.023C9.07001 9.61973 9.09346 9.01652 9.41639 8.6333L7.39391 9.04517C6.59301 9.20827 6.29551 10.197 6.87342 10.775L14.4956 18.3971C15.0735 18.9751 16.0623 18.6776 16.2254 17.8767L16.4117 16.9615L9.47334 10.023Z" fill="#FB8801"/>
<path d="M14.6416 15.71C14.9248 15.71 15.1543 15.4804 15.1543 15.1973C15.1543 14.9141 14.9248 14.6846 14.6416 14.6846C14.3584 14.6846 14.1289 14.9141 14.1289 15.1973C14.1289 15.4804 14.3584 15.71 14.6416 15.71Z" fill="#FEF0AE"/>
<path d="M12.4668 10.731C12.75 10.731 12.9795 10.5014 12.9795 10.2183C12.9795 9.93511 12.75 9.70557 12.4668 9.70557C12.1836 9.70557 11.9541 9.93511 11.9541 10.2183C11.9541 10.5014 12.1836 10.731 12.4668 10.731Z" fill="#FEF0AE"/>
<path d="M9.75977 11.2144C10.0429 11.2144 10.2725 10.9848 10.2725 10.7017C10.2725 10.4185 10.0429 10.189 9.75977 10.189C9.47661 10.189 9.24707 10.4185 9.24707 10.7017C9.24707 10.9848 9.47661 11.2144 9.75977 11.2144Z" fill="#FEF0AE"/>
<path d="M14.7383 12.3262C15.0214 12.3262 15.251 12.0966 15.251 11.8135C15.251 11.5303 15.0214 11.3008 14.7383 11.3008C14.4551 11.3008 14.2256 11.5303 14.2256 11.8135C14.2256 12.0966 14.4551 12.3262 14.7383 12.3262Z" fill="#FEF0AE"/>
<path d="M15.4639 10.0542C15.747 10.0542 15.9766 9.82466 15.9766 9.5415C15.9766 9.25835 15.747 9.02881 15.4639 9.02881C15.1807 9.02881 14.9512 9.25835 14.9512 9.5415C14.9512 9.82466 15.1807 10.0542 15.4639 10.0542Z" fill="#FEF0AE"/>
<path d="M12.3223 14.0664C12.6054 14.0664 12.835 13.8369 12.835 13.5537C12.835 13.2706 12.6054 13.041 12.3223 13.041C12.0391 13.041 11.8096 13.2706 11.8096 13.5537C11.8096 13.8369 12.0391 14.0664 12.3223 14.0664Z" fill="#FEF0AE"/>
<path d="M11.6868 24.7332C11.4418 24.7332 11.2425 24.5339 11.2425 24.2889C11.2425 24.0439 11.4418 23.8446 11.6868 23.8446H13.6162C13.6935 23.6342 13.7989 23.4374 13.927 23.2578L9.16429 18.1764C8.66185 17.6403 7.77516 17.7912 7.4782 18.4633L3.59375 27.2562H13.1183L12.3956 24.7332H11.6868Z" fill="#FED402"/>
<path d="M5.83819 27.2562L9.62995 18.6733L9.16429 18.1764C8.66185 17.6403 7.77516 17.7912 7.4782 18.4633L3.59375 27.2562H5.83819Z" fill="#FAC600"/>
<path d="M7.42285 24.4512C7.70601 24.4512 7.93555 24.2216 7.93555 23.9385C7.93555 23.6553 7.70601 23.4258 7.42285 23.4258C7.1397 23.4258 6.91016 23.6553 6.91016 23.9385C6.91016 24.2216 7.1397 24.4512 7.42285 24.4512Z" fill="#FEF0AE"/>
<path d="M6.25098 26.939C6.53413 26.939 6.76367 26.7094 6.76367 26.4263C6.76367 26.1431 6.53413 25.9136 6.25098 25.9136C5.96782 25.9136 5.73828 26.1431 5.73828 26.4263C5.73828 26.7094 5.96782 26.939 6.25098 26.939Z" fill="#FEF0AE"/>
<path d="M10.0381 23.5205C10.3212 23.5205 10.5508 23.291 10.5508 23.0078C10.5508 22.7247 10.3212 22.4951 10.0381 22.4951C9.75493 22.4951 9.52539 22.7247 9.52539 23.0078C9.52539 23.291 9.75493 23.5205 10.0381 23.5205Z" fill="#FEF0AE"/>
<path d="M8.60449 21.6152C8.88765 21.6152 9.11719 21.3857 9.11719 21.1025C9.11719 20.8194 8.88765 20.5898 8.60449 20.5898C8.32134 20.5898 8.0918 20.8194 8.0918 21.1025C8.0918 21.3857 8.32134 21.6152 8.60449 21.6152Z" fill="#FEF0AE"/>
<path d="M9.56055 25.8989C9.8437 25.8989 10.0732 25.6694 10.0732 25.3862C10.0732 25.1031 9.8437 24.8735 9.56055 24.8735C9.27739 24.8735 9.04785 25.1031 9.04785 25.3862C9.04785 25.6694 9.27739 25.8989 9.56055 25.8989Z" fill="#FEF0AE"/>
<path d="M20.4808 22.1857L20.5011 22.2072H21.0182C21.923 22.2072 22.7167 22.6914 23.1542 23.4141L29.9138 22.0377L25.9261 15.6278C25.538 15.0039 24.6389 14.9787 24.2165 15.58L19.9033 21.7183C20.1142 21.8464 20.3092 22.0027 20.4808 22.1857Z" fill="#FE9901"/>
<path d="M20.5307 22.1388H21.0182C21.3886 22.1388 21.7409 22.2191 22.0596 22.362L26.3326 16.2809L25.9262 15.6278C25.5381 15.0039 24.639 14.9787 24.2166 15.58L19.9434 21.6614C20.1599 21.794 20.3578 21.9545 20.5307 22.1388Z" fill="#FB8801"/>
<path d="M23.0928 21.4517C23.3759 21.4517 23.6055 21.2221 23.6055 20.939C23.6055 20.6558 23.3759 20.4263 23.0928 20.4263C22.8096 20.4263 22.5801 20.6558 22.5801 20.939C22.5801 21.2221 22.8096 21.4517 23.0928 21.4517Z" fill="#FEF0AE"/>
<path d="M25.8398 21.0498C26.123 21.0498 26.3525 20.8203 26.3525 20.5371C26.3525 20.254 26.123 20.0244 25.8398 20.0244C25.5567 20.0244 25.3271 20.254 25.3271 20.5371C25.3271 20.8203 25.5567 21.0498 25.8398 21.0498Z" fill="#FEF0AE"/>
<path d="M24.8057 18.9009C25.0888 18.9009 25.3184 18.6713 25.3184 18.3882C25.3184 18.105 25.0888 17.8755 24.8057 17.8755C24.5225 17.8755 24.293 18.105 24.293 18.3882C24.293 18.6713 24.5225 18.9009 24.8057 18.9009Z" fill="#FEF0AE"/>
<path d="M31.8975 21.5637L23.1143 23.3522C23.2134 23.5056 23.2967 23.6702 23.3606 23.8442H25.29C25.535 23.8442 25.7343 24.0435 25.7343 24.2885C25.7343 24.5335 25.535 24.7328 25.29 24.7328H24.5454L23.8227 27.2558H32.194L33.1068 22.773C33.2535 22.053 32.6174 21.4171 31.8975 21.5637Z" fill="#FED402"/>
<path d="M27.3994 25.1982C27.6826 25.1982 27.9121 24.9687 27.9121 24.6855C27.9121 24.4024 27.6826 24.1729 27.3994 24.1729C27.1163 24.1729 26.8867 24.4024 26.8867 24.6855C26.8867 24.9687 27.1163 25.1982 27.3994 25.1982Z" fill="#FEF0AE"/>
<path d="M29.6709 26.7935C29.9541 26.7935 30.1836 26.5639 30.1836 26.2808C30.1836 25.9976 29.9541 25.7681 29.6709 25.7681C29.3877 25.7681 29.1582 25.9976 29.1582 26.2808C29.1582 26.5639 29.3877 26.7935 29.6709 26.7935Z" fill="#FEF0AE"/>
<path d="M30.3965 24.5215C30.6796 24.5215 30.9092 24.2919 30.9092 24.0088C30.9092 23.7256 30.6796 23.4961 30.3965 23.4961C30.1133 23.4961 29.8838 23.7256 29.8838 24.0088C29.8838 24.2919 30.1133 24.5215 30.3965 24.5215Z" fill="#FEF0AE"/>
<path d="M23.4324 23.8442C23.0775 22.853 22.1273 22.1387 21.018 22.1387H20.5304C20.0182 21.5928 19.2917 21.25 18.4887 21.25C17.6856 21.25 16.9591 21.5928 16.4469 22.1387H15.9594C14.85 22.1387 13.8998 22.853 13.5449 23.8442H23.4324Z" fill="#FE646F"/>
<path d="M15.5096 23.7759C15.979 23.1619 16.7183 22.7637 17.5463 22.7637H18.0338C18.5461 22.2178 19.2726 21.875 20.0756 21.875C20.135 21.875 20.1939 21.8775 20.2524 21.8812C19.7698 21.4876 19.1558 21.25 18.4882 21.25C17.6851 21.25 16.9586 21.5928 16.4464 22.1387H15.9589C14.8753 22.1387 13.9438 22.8204 13.5703 23.7758H15.5096V23.7759Z" fill="#FD4755"/>
<path d="M12.3242 24.7329L13.047 27.2558H23.8938L24.6165 24.7329H12.3242Z" fill="#017B4E"/>
<path d="M12.3242 24.7329L13.047 27.2558H15.0221L14.2994 24.7329H12.3242Z" fill="#026841"/>
<path d="M31.6973 35H4.96823C4.819 35 4.68707 34.9032 4.64223 34.7609L2.39689 27.632C2.32751 27.4117 2.49198 27.1875 2.7229 27.1875H33.9426C34.1735 27.1875 34.338 27.4117 34.2686 27.632L32.0234 34.7609C31.9785 34.9032 31.8465 35 31.6973 35Z" fill="#FD4755"/>
<path d="M8.08433 34.7609L5.83899 27.632C5.76961 27.4117 5.93408 27.1875 6.165 27.1875H2.7229C2.49198 27.1875 2.32751 27.4117 2.39689 27.632L4.64216 34.7609C4.687 34.9032 4.81894 35 4.96816 35H8.41026C8.2611 35 8.12917 34.9032 8.08433 34.7609Z" fill="#FB2B3A"/>
<path d="M3.80664 32.1094L4.64172 34.7609C4.68656 34.9032 4.8185 35 4.96772 35H31.6969C31.8461 35 31.978 34.9032 32.0229 34.7609L32.8579 32.1094H3.80664Z" fill="#FB2B3A"/>
<path d="M8.08389 34.7609L7.24881 32.1094H3.80664L4.64172 34.7609C4.68656 34.9032 4.8185 35 4.96772 35H8.40982C8.26066 35 8.12873 34.9032 8.08389 34.7609Z" fill="#E41F2D"/>
<path d="M19.7302 1.23062L21.6792 10.8017C21.8423 11.6026 22.8311 11.9001 23.409 11.3222L31.0312 3.70003C31.6091 3.12205 31.3116 2.1333 30.5107 1.9702L20.9395 0.0212011C20.2196 -0.125361 19.5836 0.510586 19.7302 1.23062Z" fill="#FED402"/>
<path d="M23.9259 10.8017L21.9769 1.23063C21.9026 0.865524 22.0297 0.522292 22.2667 0.29151L20.9395 0.0212175C20.2196 -0.125413 19.5836 0.510602 19.7302 1.23056L21.6792 10.8017C21.8423 11.6026 22.8311 11.9001 23.409 11.3222L23.9266 10.8046C23.9264 10.8036 23.9261 10.8027 23.9259 10.8017Z" fill="#FAC600"/>
<path d="M27.8311 4.06641C28.1142 4.06641 28.3438 3.83686 28.3438 3.55371C28.3438 3.27056 28.1142 3.04102 27.8311 3.04102C27.5479 3.04102 27.3184 3.27056 27.3184 3.55371C27.3184 3.83686 27.5479 4.06641 27.8311 4.06641Z" fill="#FEF0AE"/>
<path d="M22.8525 6.2417C23.1357 6.2417 23.3652 6.01216 23.3652 5.729C23.3652 5.44585 23.1357 5.21631 22.8525 5.21631C22.5694 5.21631 22.3398 5.44585 22.3398 5.729C22.3398 6.01216 22.5694 6.2417 22.8525 6.2417Z" fill="#FEF0AE"/>
<path d="M23.3359 8.94824C23.6191 8.94824 23.8486 8.7187 23.8486 8.43555C23.8486 8.15239 23.6191 7.92285 23.3359 7.92285C23.0528 7.92285 22.8232 8.15239 22.8232 8.43555C22.8232 8.7187 23.0528 8.94824 23.3359 8.94824Z" fill="#FEF0AE"/>
<path d="M24.4473 3.96973C24.7304 3.96973 24.96 3.74019 24.96 3.45703C24.96 3.17388 24.7304 2.94434 24.4473 2.94434C24.1641 2.94434 23.9346 3.17388 23.9346 3.45703C23.9346 3.74019 24.1641 3.96973 24.4473 3.96973Z" fill="#FEF0AE"/>
<path d="M21.6904 2.76025C21.9736 2.76025 22.2031 2.53071 22.2031 2.24756C22.2031 1.9644 21.9736 1.73486 21.6904 1.73486C21.4073 1.73486 21.1777 1.9644 21.1777 2.24756C21.1777 2.53071 21.4073 2.76025 21.6904 2.76025Z" fill="#FEF0AE"/>
<path d="M26.1875 6.38672C26.4707 6.38672 26.7002 6.15718 26.7002 5.87402C26.7002 5.59087 26.4707 5.36133 26.1875 5.36133C25.9043 5.36133 25.6748 5.59087 25.6748 5.87402C25.6748 6.15718 25.9043 6.38672 26.1875 6.38672Z" fill="#FEF0AE"/>
<path d="M25.29 24.8013H11.6865C11.4034 24.8013 11.1738 24.5718 11.1738 24.2886C11.1738 24.0054 11.4034 23.7759 11.6865 23.7759H25.29C25.5732 23.7759 25.8027 24.0054 25.8027 24.2886C25.8027 24.5718 25.5732 24.8013 25.29 24.8013Z" fill="#026841"/>
</g>
<defs>
<clipPath id="clip0_7211_1576">
<rect width="35" height="35" fill="white" transform="translate(0.833008)"/>
</clipPath>
</defs>
</svg>
