<svg width="35" height="35" viewBox="0 0 35 35" fill="none" xmlns="http://www.w3.org/2000/svg">
<g clip-path="url(#clip0_7211_1419)">
<path d="M17.5 35C27.165 35 35 27.165 35 17.5C35 7.83502 27.165 0 17.5 0C7.83502 0 0 7.83502 0 17.5C0 27.165 7.83502 35 17.5 35Z" fill="#918291"/>
<path d="M17.4997 32.8875C25.9979 32.8875 32.887 25.9983 32.887 17.5001C32.887 9.00195 25.9979 2.11279 17.4997 2.11279C9.00146 2.11279 2.1123 9.00195 2.1123 17.5001C2.1123 25.9983 9.00146 32.8875 17.4997 32.8875Z" fill="#685E68"/>
<path d="M30.8807 17.4999C30.8807 16.6993 30.45 15.9996 29.8079 15.6188C29.7519 15.5856 29.7383 15.5114 29.7776 15.4594C30.049 15.0996 30.1579 14.6232 30.0322 14.1542C29.9052 13.6801 29.5668 13.3194 29.1456 13.1456C29.0843 13.1203 29.0578 13.048 29.0908 12.9905C29.4648 12.3373 29.4916 11.5085 29.0881 10.8097C28.6867 10.1144 27.9611 9.72366 27.2125 9.71703C27.1472 9.71648 27.0982 9.65893 27.1061 9.59419C27.1608 9.14739 27.0173 8.68111 26.6743 8.33815C26.3285 7.99232 25.8573 7.84959 25.4071 7.90817C25.3418 7.91665 25.2836 7.86709 25.2834 7.80126C25.2813 7.04794 24.8899 6.31602 24.1906 5.91222C23.5226 5.52653 22.7359 5.53398 22.0972 5.86204C22.043 5.88986 21.977 5.86683 21.9502 5.81207C21.7669 5.43753 21.4309 5.13976 20.9977 5.01849C20.4935 4.87732 19.9774 5.00864 19.6065 5.32405C19.5522 5.37026 19.4703 5.35529 19.4372 5.29213C19.0718 4.59521 18.3419 4.11963 17.5004 4.11963C16.6939 4.11963 15.9899 4.55665 15.6111 5.20654C15.5781 5.26321 15.5032 5.27709 15.451 5.23744C15.0908 4.96428 14.613 4.85429 14.1426 4.98034C13.6736 5.10599 13.3155 5.43855 13.1396 5.85336C13.1141 5.91352 13.0426 5.93888 12.9858 5.90654C12.3334 5.53542 11.5072 5.50985 10.8102 5.91228C10.1109 6.31608 9.7195 7.04801 9.71745 7.80133C9.71725 7.86716 9.659 7.91679 9.59372 7.90824C9.14351 7.84966 8.6723 7.99239 8.32647 8.33822C7.98352 8.68118 7.84003 9.14746 7.89472 9.59426C7.90265 9.65899 7.85356 9.71655 7.78835 9.7171C7.03975 9.72373 6.31411 10.1145 5.91271 10.8098C5.50925 11.5086 5.53598 12.3374 5.90997 12.9906C5.94292 13.0481 5.91653 13.1204 5.85522 13.1457C5.43405 13.3194 5.09567 13.6802 4.96859 14.1542C4.84295 14.6233 4.95191 15.0996 5.22323 15.4594C5.26247 15.5114 5.24887 15.5857 5.19288 15.6189C4.55078 15.9997 4.12012 16.6993 4.12012 17.5C4.12012 18.3056 4.55618 19.009 5.20491 19.3881C5.2622 19.4216 5.27532 19.4975 5.23472 19.5499C4.95499 19.9114 4.84117 20.3945 4.96859 20.87C5.09465 21.3405 5.42893 21.6993 5.84564 21.8746C5.90573 21.8999 5.93123 21.971 5.89937 22.0279C5.53543 22.6782 5.51301 23.4979 5.91264 24.1901C6.31466 24.8865 7.042 25.2773 7.79184 25.2828C7.8578 25.2833 7.90723 25.3419 7.8982 25.4073C7.83559 25.8609 7.97757 26.3372 8.32641 26.686C8.6723 27.0319 9.14364 27.1746 9.59393 27.116C9.65873 27.1076 9.7167 27.1565 9.71752 27.2218C9.7275 27.9669 10.1179 28.688 10.8101 29.0876C11.4749 29.4715 12.2573 29.4659 12.8942 29.1425C12.9489 29.1148 13.0152 29.1385 13.0414 29.1939C13.2226 29.5771 13.5627 29.8825 14.0029 30.0057C14.5109 30.1479 15.0308 30.0135 15.4024 29.6928C15.4564 29.6462 15.5383 29.6607 15.5719 29.7235C15.9399 30.4117 16.6652 30.8803 17.5002 30.8803C18.3 30.8803 18.999 30.4505 19.38 29.8096C19.4138 29.7529 19.4889 29.7401 19.5412 29.7803C19.9023 30.0582 20.384 30.171 20.8581 30.044C21.3337 29.9165 21.6952 29.5763 21.8684 29.1533C21.8934 29.0921 21.9653 29.0655 22.0229 29.0979C22.674 29.4648 23.4962 29.4884 24.1904 29.0877C24.8826 28.6881 25.273 27.967 25.2829 27.2219C25.2838 27.1565 25.3418 27.1077 25.4065 27.1161C25.8568 27.1747 26.3282 27.032 26.6741 26.6861C27.0228 26.3373 27.1648 25.861 27.1023 25.4074C27.0932 25.342 27.1427 25.2833 27.2086 25.2829C27.9585 25.2774 28.6858 24.8865 29.0878 24.1901C29.4875 23.4979 29.465 22.6782 29.1011 22.0279C29.0693 21.9711 29.0948 21.9 29.1548 21.8747C29.5715 21.6994 29.9058 21.3405 30.0319 20.8701C30.1593 20.3946 30.0455 19.9114 29.7658 19.55C29.7251 19.4975 29.7382 19.4216 29.7956 19.3882C30.4446 19.0088 30.8807 18.3055 30.8807 17.4999Z" fill="#FFFBE5"/>
<path d="M29.796 19.388C30.4447 19.0089 30.8808 18.3056 30.8808 17.4999C30.8808 16.6993 30.4501 15.9996 29.808 15.6188C29.7521 15.5856 29.7385 15.5114 29.7777 15.4594C30.0491 15.0996 30.158 14.6232 30.0323 14.1542C29.9053 13.6801 29.5669 13.3194 29.1457 13.1456C29.0844 13.1203 29.0579 13.048 29.091 12.9905C29.465 12.3373 29.4917 11.5085 29.0882 10.8097C28.6868 10.1145 27.9612 9.72366 27.2126 9.71703C27.1474 9.71648 27.0983 9.65893 27.1062 9.59419C27.1609 9.14739 27.0174 8.68111 26.6745 8.33815C26.3286 7.99232 25.8574 7.84966 25.4072 7.90817C25.3419 7.91665 25.2837 7.86709 25.2835 7.80119C25.2814 7.04787 24.8901 6.31595 24.1907 5.91215C23.5227 5.52646 22.736 5.53392 22.0974 5.86197C22.0432 5.8898 21.9772 5.86676 21.9504 5.812C21.7671 5.43746 21.4311 5.13969 20.9979 5.01842C20.4937 4.87726 19.9776 5.00857 19.6067 5.32398C19.5524 5.3702 19.4705 5.35522 19.4374 5.29206C19.0719 4.59521 18.342 4.11963 17.5006 4.11963C17.1171 4.11963 16.7575 4.2193 16.4443 4.39279C16.8184 4.59999 17.1258 4.91287 17.3247 5.2922C17.3578 5.35536 17.4396 5.37033 17.494 5.32412C17.865 5.00871 18.381 4.87739 18.8852 5.01855C19.3184 5.13982 19.6544 5.4376 19.8377 5.81214C19.8645 5.86689 19.9305 5.88993 19.9847 5.86211C20.6233 5.53405 21.41 5.5266 22.078 5.91229C22.7774 6.31608 23.1687 7.04801 23.1708 7.80133C23.171 7.86716 23.2292 7.91679 23.2945 7.90831C23.7447 7.84973 24.2159 7.99246 24.5617 8.33829C24.9047 8.68125 25.0482 9.14753 24.9935 9.59433C24.9856 9.65906 25.0346 9.71662 25.0999 9.71717C25.8485 9.7238 26.5741 10.1146 26.9755 10.8098C27.379 11.5087 27.3522 12.3375 26.9782 12.9906C26.9453 13.0482 26.9717 13.1204 27.033 13.1457C27.4542 13.3195 27.7925 13.6802 27.9196 14.1543C28.0453 14.6233 27.9363 15.0997 27.665 15.4595C27.6257 15.5114 27.6393 15.5858 27.6953 15.619C28.3374 15.9997 28.7681 16.6994 28.7681 17.5C28.7681 18.3056 28.332 19.0091 27.6833 19.3882C27.626 19.4217 27.6129 19.4976 27.6535 19.55C27.9332 19.9115 28.047 20.3946 27.9196 20.8701C27.7936 21.3406 27.4593 21.6995 27.0426 21.8747C26.9825 21.9 26.957 21.9711 26.9888 22.028C27.3528 22.6783 27.3752 23.498 26.9756 24.1902C26.5736 24.8866 25.8462 25.2775 25.0964 25.2829C25.0304 25.2834 24.981 25.3421 24.99 25.4074C25.0526 25.8611 24.9106 26.3374 24.5618 26.6862C24.2159 27.0321 23.7446 27.1748 23.2943 27.1161C23.2295 27.1077 23.1715 27.1566 23.1707 27.222C23.1607 27.9671 22.7703 28.6881 22.0781 29.0878C22.0659 29.0948 22.0535 29.1007 22.0413 29.1074C22.6895 29.4647 23.5029 29.4849 24.1908 29.0878C24.883 28.6881 25.2734 27.9671 25.2833 27.222C25.2842 27.1566 25.3422 27.1077 25.4069 27.1161C25.8572 27.1748 26.3286 27.0321 26.6745 26.6862C27.0232 26.3374 27.1652 25.8611 27.1027 25.4074C27.0936 25.3421 27.1431 25.2834 27.209 25.2829C27.9589 25.2775 28.6862 24.8866 29.0882 24.1902C29.4879 23.498 29.4654 22.6783 29.1015 22.028C29.0697 21.9711 29.0952 21.9 29.1552 21.8747C29.5719 21.6995 29.9062 21.3406 30.0323 20.8701C30.1597 20.3946 30.0459 19.9115 29.7661 19.55C29.7256 19.4973 29.7387 19.4215 29.796 19.388Z" fill="#FFFACE"/>
<path d="M13.4594 29.7235C13.4452 29.697 13.4222 29.6797 13.3965 29.6714C13.4175 29.6903 13.439 29.7088 13.4611 29.7266C13.4605 29.7255 13.4599 29.7246 13.4594 29.7235Z" fill="#FFFACE"/>
<path d="M19.9106 29.0979C19.8529 29.0654 19.7811 29.0921 19.7561 29.1533C19.5829 29.5763 19.2214 29.9165 18.7458 30.0439C18.2717 30.171 17.7899 30.0582 17.4288 29.7803C17.3766 29.7401 17.3014 29.7529 17.2677 29.8095C17.0694 30.1431 16.7844 30.4188 16.4443 30.6071C16.7575 30.7805 17.1171 30.8803 17.5006 30.8803C18.3004 30.8803 18.9993 30.4505 19.3804 29.8095C19.4141 29.7529 19.4893 29.7401 19.5415 29.7803C19.9026 30.0582 20.3843 30.171 20.8584 30.0439C21.3153 29.9215 21.6664 29.6025 21.8468 29.2026C21.2067 29.4783 20.4907 29.4248 19.9106 29.0979Z" fill="#FFFACE"/>
<path d="M15.9529 8.87416C17.1616 9.43108 18.4462 8.76082 18.6192 8.38772C18.7969 8.00442 18.7055 7.47136 18.4622 7.13079C17.9868 6.4649 17.2349 6.55268 16.6176 6.64571C16.1484 6.7164 15.5969 7.14672 15.5352 7.79169C15.4957 8.20554 15.6245 8.72281 15.9529 8.87416Z" fill="#C4573A"/>
<path d="M18.7452 8.72776C19.6529 9.70099 21.0956 9.56721 21.397 9.28742C21.7067 8.99996 21.8239 8.47202 21.7279 8.06467C21.54 7.26828 20.811 7.06478 20.2045 6.91705C19.7435 6.80481 19.0701 6.9941 18.7687 7.5677C18.5753 7.93575 18.4986 8.46334 18.7452 8.72776Z" fill="#C4573A"/>
<path d="M9.95329 10.9315C9.92766 15.5022 12.8444 19.4412 12.8444 19.4412L14.3537 18.7825C14.3537 18.7825 12.4611 14.8752 12.7648 11.23C12.8455 10.2607 11.9423 9.50327 11.0008 9.74732C10.4429 9.8919 9.95657 10.3552 9.95329 10.9315Z" fill="#80D261"/>
<path d="M9.95329 10.9315C9.92766 15.5022 12.8444 19.4412 12.8444 19.4412L14.3537 18.7825C14.3537 18.7825 12.4611 14.8752 12.7648 11.23C12.8455 10.2607 11.9423 9.50327 11.0008 9.74732C10.4429 9.8919 9.95657 10.3552 9.95329 10.9315Z" fill="#80D261"/>
<path d="M25.4038 10.4771C25.4098 10.028 24.8461 9.82179 24.5638 10.1712C23.3896 11.6252 21.2884 14.6659 20.8429 18.2645C20.7916 18.6792 21.2389 18.7389 21.6631 18.3776C23.638 16.6949 25.3535 14.2225 25.4038 10.4771Z" fill="#FD5426"/>
<path d="M19.8147 10.9335C20.9039 11.6981 22.2879 11.2691 22.525 10.9331C22.7686 10.5878 22.7742 10.0471 22.596 9.66834C22.2477 8.92794 21.4923 8.87954 20.8684 8.86033C20.3941 8.84577 19.7744 9.17014 19.598 9.79364C19.4848 10.1937 19.5188 10.7257 19.8147 10.9335Z" fill="#D6694B"/>
<path d="M14.1692 10.1952C15.2584 10.9599 16.6424 10.5308 16.8795 10.1948C17.1231 9.84956 17.1287 9.30877 16.9505 8.93006C16.6022 8.18966 15.8468 8.14126 15.2229 8.12205C14.7486 8.10749 14.1289 8.43186 13.9525 9.05536C13.8393 9.4554 13.8733 9.98737 14.1692 10.1952Z" fill="#D6694B"/>
<path d="M16.8868 10.7319C18.0308 11.6281 19.5046 11.0965 19.761 10.6924C20.0243 10.2771 20.038 9.63211 19.8546 9.18306C19.4959 8.30512 18.6955 8.25822 18.0341 8.24435C17.5313 8.23382 16.8694 8.62955 16.6735 9.37569C16.5477 9.85441 16.576 10.4884 16.8868 10.7319Z" fill="#A74B30"/>
<path d="M15.3906 12.3855C16.6337 12.958 17.9773 12.3043 18.1633 11.9334C18.3544 11.5524 18.2689 11.0181 18.0228 10.6744C17.5417 10.0024 16.7608 10.0805 16.1192 10.1656C15.6315 10.2303 15.0522 10.6535 14.9769 11.2977C14.9285 11.711 15.0529 12.23 15.3906 12.3855Z" fill="#C4573A"/>
<path d="M18.1604 12.1879C18.9863 13.3079 20.5044 13.4102 20.8525 13.1801C21.2099 12.9437 21.3965 12.4358 21.3462 12.0134C21.248 11.1876 20.514 10.8653 19.9006 10.6186C19.4344 10.4312 18.7104 10.5102 18.3265 11.0336C18.0803 11.3694 17.936 11.8836 18.1604 12.1879Z" fill="#C4573A"/>
<path d="M7.47205 12.8325C8.4517 17.2971 12.1629 20.4986 12.1629 20.4986L13.4905 19.5243C13.4905 19.5243 10.7854 16.1285 10.2804 12.5057C10.1461 11.5423 9.09852 11.002 8.23357 11.447C7.72115 11.7107 7.34852 12.2696 7.47205 12.8325Z" fill="#4FC123"/>
<path d="M5.96263 16.1905C7.80573 20.3732 12.0768 22.7777 12.0768 22.7777L13.1854 21.5602C13.1854 21.5602 9.86226 18.7663 8.65093 15.3149C8.32882 14.3971 7.19501 14.0746 6.43519 14.6818C5.98491 15.0416 5.7302 15.6631 5.96263 16.1905Z" fill="#47A920"/>
<path d="M27.3351 12.7423C27.4363 12.3046 26.9291 11.9835 26.5792 12.2652C25.1234 13.437 22.4251 15.9631 21.2266 19.3853C21.0885 19.7796 21.513 19.9329 22.0041 19.6697C24.2909 18.4441 26.4917 16.3918 27.3351 12.7423Z" fill="#EF4424"/>
<path d="M28.3353 15.4632C28.4861 15.0401 28.0193 14.6627 27.6393 14.9023C26.0582 15.8987 23.0871 18.0973 21.5026 21.3588C21.32 21.7346 21.7241 21.9358 22.2422 21.7308C24.6549 20.7766 27.0773 18.9913 28.3353 15.4632Z" fill="#D73D24"/>
<path d="M17.4583 27.774C22.0477 27.774 25.7681 24.2213 25.7681 19.8387C25.7681 15.4561 22.0477 11.9033 17.4583 11.9033C12.8689 11.9033 9.14844 15.4561 9.14844 19.8387C9.14844 24.2213 12.8689 27.774 17.4583 27.774Z" fill="#FFEAD8"/>
<path d="M17.4587 11.9033C17.1008 11.9033 16.7483 11.9249 16.4023 11.9668C20.493 12.4624 23.6559 15.7978 23.6559 19.8386C23.6559 23.8795 20.493 27.2149 16.4023 27.7104C16.7483 27.7523 17.1008 27.7739 17.4587 27.7739C22.0481 27.7739 25.7685 24.2211 25.7685 19.8385C25.7685 15.4561 22.0481 11.9033 17.4587 11.9033Z" fill="#FFE3CB"/>
<path d="M19.4792 23.5199C21.6133 22.3557 22.442 19.7598 21.3302 17.7218C20.2184 15.6839 17.5871 14.9757 15.453 16.1399C13.3189 17.3042 12.4902 19.9001 13.602 21.938C14.7138 23.976 17.3451 24.6842 19.4792 23.5199Z" fill="#FDB441"/>
<path d="M21.3225 17.7322C20.3996 16.039 18.428 15.2643 16.5634 15.7171C17.6646 15.9882 18.6385 16.6839 19.2098 17.7322C20.3206 19.7702 19.491 22.3654 17.3567 23.5286C16.9956 23.7254 16.6201 23.8673 16.2402 23.9596C17.2798 24.2156 18.433 24.0935 19.4694 23.5286C21.6036 22.3654 22.4333 19.7702 21.3225 17.7322Z" fill="#FE860A"/>
</g>
<defs>
<clipPath id="clip0_7211_1419">
<rect width="35" height="35" fill="white"/>
</clipPath>
</defs>
</svg>
