<svg width="47" height="39" viewBox="0 0 47 39" fill="none" xmlns="http://www.w3.org/2000/svg">
<path d="M17.8187 16.2929L15.1775 17.8936C15.0673 17.9604 15 18.0799 15 18.2088V27.6758C15 27.8793 15.165 28.0443 15.3686 28.0443H33.9805C34.1841 28.0443 34.3491 27.8793 34.3491 27.6758V18.3891C34.3491 18.2624 34.284 18.1446 34.1767 18.0771L31.3413 16.2949C31.2108 16.2129 31.0431 16.2207 30.9208 16.3145L24.6289 21.1412C24.4936 21.245 24.3047 21.2424 24.1723 21.1349L18.242 16.3219C18.1212 16.2239 17.9518 16.2123 17.8187 16.2929Z" stroke="#CCCCCC" stroke-width="0.5"/>
<g filter="url(#filter0_d_6870_2592)">
<path d="M24.2631 18.458L18.5148 13.7393C18.3967 13.6423 18.2309 13.6283 18.0982 13.7042L15.6452 15.1059C15.3995 15.2463 15.0938 15.0689 15.0938 14.7859V1.87661C15.0938 1.67306 15.2588 1.50806 15.4623 1.50806H29.1176C29.2229 1.50806 29.3231 1.55307 29.393 1.63176L34.3498 7.20806C34.4097 7.27552 34.4429 7.36265 34.4429 7.45291V14.8884C34.4429 15.169 34.1417 15.3467 33.896 15.2109L31.1554 13.6964C31.0258 13.6248 30.8659 13.6377 30.7495 13.7292L24.7246 18.463C24.5887 18.5698 24.3967 18.5677 24.2631 18.458Z" stroke="#CCCCCC" stroke-width="0.5" shape-rendering="crispEdges"/>
</g>
<g filter="url(#filter1_d_6870_2592)">
<path d="M28.9111 7.41578L33.9312 7.66136C34.2566 7.67728 34.4411 7.29415 34.2258 7.04967L29.4596 1.6375C29.2409 1.38915 28.831 1.53254 28.8149 1.86307L28.5621 7.02971C28.5522 7.23302 28.7078 7.40584 28.9111 7.41578Z" fill="#CCCCCC"/>
<path d="M28.9111 7.41578L33.9312 7.66136C34.2566 7.67728 34.4411 7.29415 34.2258 7.04967L29.4596 1.6375C29.2409 1.38915 28.831 1.53254 28.8149 1.86307L28.5621 7.02971C28.5522 7.23302 28.7078 7.40584 28.9111 7.41578Z" stroke="#CCCCCC" stroke-width="0.195445"/>
</g>
<path d="M0.325 33.5942V37.0442H0.98V33.5942H0.325ZM1.84871 36.7842C2.05871 36.9892 2.34871 37.0892 2.71871 37.0892C3.07871 37.0892 3.35871 37.0042 3.56371 36.8342C3.76371 36.6642 3.86871 36.4342 3.86871 36.1342V36.1142H3.26371V36.1342C3.26371 36.2592 3.21371 36.3592 3.12371 36.4292C3.03371 36.4992 2.90871 36.5342 2.74871 36.5342C2.54871 36.5342 2.39871 36.4842 2.29871 36.3842C2.19871 36.2842 2.14871 36.1192 2.14871 35.8892V35.5942C2.14871 35.3742 2.19371 35.2092 2.29371 35.1042C2.39371 35.0042 2.53871 34.9492 2.73371 34.9492C2.89871 34.9492 3.02871 34.9892 3.12371 35.0642C3.21871 35.1392 3.26871 35.2392 3.26871 35.3692V35.3892H3.87371V35.3592C3.87371 35.0592 3.76871 34.8242 3.56871 34.6542C3.36371 34.4842 3.07871 34.3992 2.71871 34.3992C2.34871 34.3992 2.05871 34.5042 1.84871 34.7042C1.63871 34.9042 1.53371 35.1992 1.53371 35.5842V35.8942C1.53371 36.2842 1.63871 36.5842 1.84871 36.7842ZM4.64168 36.7842C4.85168 36.9892 5.14168 37.0892 5.51168 37.0892C5.87668 37.0892 6.16168 36.9892 6.37168 36.7842C6.58168 36.5842 6.68668 36.2842 6.68668 35.8942V35.5842C6.68668 35.2042 6.58168 34.9092 6.37168 34.7042C6.16168 34.5042 5.87668 34.3992 5.51168 34.3992C5.14168 34.3992 4.85168 34.5042 4.64168 34.7042C4.43168 34.9042 4.32668 35.1992 4.32668 35.5842V35.8942C4.32668 36.2842 4.43168 36.5842 4.64168 36.7842ZM6.07168 35.8892C6.07168 36.3192 5.88168 36.5342 5.51168 36.5342C5.13168 36.5342 4.94168 36.3192 4.94168 35.8892V35.5942C4.94168 35.1642 5.13168 34.9492 5.51168 34.9492C5.69168 34.9492 5.82668 35.0042 5.92668 35.1092C6.02168 35.2142 6.07168 35.3742 6.07168 35.5942V35.8892ZM7.18406 34.4442V37.0442H7.80406V35.5742C7.80406 35.3742 7.85406 35.2192 7.95406 35.1192C8.05406 35.0192 8.18906 34.9642 8.36906 34.9642C8.70906 34.9642 8.88406 35.1592 8.88406 35.5492V37.0442H9.50406V35.4242C9.50406 35.1092 9.41906 34.8642 9.25406 34.6842C9.08406 34.5042 8.85406 34.4142 8.55406 34.4142C8.39906 34.4142 8.25406 34.4442 8.12406 34.4942C7.99406 34.5492 7.87906 34.6242 7.78906 34.7242V34.4442H7.18406ZM13.823 35.5742C13.733 35.4442 13.598 35.3392 13.423 35.2692C13.578 35.1992 13.698 35.1042 13.783 34.9792C13.868 34.8542 13.913 34.7142 13.913 34.5542C13.913 34.2442 13.808 34.0092 13.603 33.8442C13.393 33.6792 13.098 33.5942 12.708 33.5942H11.213V37.0442H12.773C13.153 37.0442 13.448 36.9592 13.653 36.7892C13.858 36.6192 13.963 36.3742 13.963 36.0542C13.963 35.8692 13.913 35.7092 13.823 35.5742ZM11.868 34.1642H12.738C13.083 34.1642 13.258 34.3092 13.258 34.5942C13.258 34.8692 13.073 35.0042 12.713 35.0042H11.868V34.1642ZM13.313 36.0092C13.313 36.3192 13.133 36.4742 12.783 36.4742H11.868V35.5742H12.758C13.128 35.5742 13.313 35.7192 13.313 36.0092ZM15.0345 35.9142H16.8195V35.6142C16.8195 35.2242 16.7095 34.9242 16.4995 34.7142C16.2845 34.5042 15.9895 34.3992 15.6195 34.3992C15.2445 34.3992 14.9495 34.5092 14.7395 34.7192C14.5245 34.9292 14.4195 35.2342 14.4195 35.6292V35.8542C14.4195 36.2592 14.5245 36.5642 14.7445 36.7742C14.9645 36.9842 15.2645 37.0892 15.6495 37.0892C15.9845 37.0892 16.2545 37.0142 16.4595 36.8642C16.6645 36.7142 16.7745 36.5092 16.7945 36.2592V36.2292H16.1895L16.1845 36.2442C16.1695 36.3442 16.1145 36.4192 16.0245 36.4692C15.9345 36.5242 15.8145 36.5492 15.6745 36.5492C15.2445 36.5492 15.0345 36.3442 15.0345 35.9242V35.9142ZM15.0345 35.4892C15.0545 35.1192 15.2495 34.9292 15.6195 34.9292C15.7945 34.9292 15.9345 34.9742 16.0395 35.0642C16.1445 35.1542 16.1995 35.2842 16.1995 35.4542V35.4892H15.0345ZM17.5259 36.8392C17.6659 36.9792 17.8859 37.0442 18.1809 37.0442H18.5259V36.5092H18.2909C18.1559 36.5092 18.0609 36.4842 18.0109 36.4342C17.9609 36.3842 17.9359 36.2942 17.9359 36.1642V33.5942H17.3159V36.2042C17.3159 36.4892 17.3859 36.6992 17.5259 36.8392ZM19.1635 36.8042C19.3585 36.9942 19.6485 37.0892 20.0335 37.0892C20.4135 37.0892 20.7035 36.9942 20.8985 36.8042C21.0935 36.6142 21.1935 36.3342 21.1935 35.9542V34.4442H20.5735V35.9242C20.5735 36.1292 20.5285 36.2842 20.4485 36.3842C20.3635 36.4842 20.2235 36.5342 20.0335 36.5342C19.8435 36.5342 19.7035 36.4842 19.6185 36.3792C19.5335 36.2792 19.4935 36.1242 19.4935 35.9242V34.4442H18.8735V35.9542C18.8735 36.3292 18.9685 36.6142 19.1635 36.8042ZM21.7348 34.4442V37.0442H22.3548V35.5742C22.3548 35.3792 22.3998 35.2292 22.4948 35.1242C22.5898 35.0192 22.7248 34.9642 22.8998 34.9642C23.0598 34.9642 23.1798 35.0142 23.2648 35.1042C23.3498 35.1992 23.3948 35.3392 23.3948 35.5242V37.0442H24.0148V35.5642C24.0148 35.3742 24.0598 35.2292 24.1548 35.1242C24.2498 35.0192 24.3848 34.9642 24.5548 34.9642C24.7148 34.9642 24.8398 35.0142 24.9248 35.1142C25.0098 35.2142 25.0548 35.3592 25.0548 35.5492V37.0442H25.6748V35.4242C25.6748 35.1092 25.5848 34.8642 25.4098 34.6842C25.2298 34.5042 24.9848 34.4142 24.6648 34.4142C24.3248 34.4142 24.0498 34.5342 23.8298 34.7642C23.7398 34.6492 23.6348 34.5642 23.5048 34.5042C23.3748 34.4442 23.2298 34.4142 23.0748 34.4142C22.9348 34.4142 22.7998 34.4442 22.6698 34.4942C22.5398 34.5492 22.4298 34.6242 22.3398 34.7242V34.4442H21.7348ZM29.8448 34.1642V33.5942H27.1198V34.1642H28.1548V37.0442H28.8098V34.1642H29.8448ZM30.3811 35.9142H32.1661V35.6142C32.1661 35.2242 32.0561 34.9242 31.8461 34.7142C31.6311 34.5042 31.3361 34.3992 30.9661 34.3992C30.5911 34.3992 30.2961 34.5092 30.0861 34.7192C29.8711 34.9292 29.7661 35.2342 29.7661 35.6292V35.8542C29.7661 36.2592 29.8711 36.5642 30.0911 36.7742C30.3111 36.9842 30.6111 37.0892 30.9961 37.0892C31.3311 37.0892 31.6011 37.0142 31.8061 36.8642C32.0111 36.7142 32.1211 36.5092 32.1411 36.2592V36.2292H31.5361L31.5311 36.2442C31.5161 36.3442 31.4611 36.4192 31.3711 36.4692C31.2811 36.5242 31.1611 36.5492 31.0211 36.5492C30.5911 36.5492 30.3811 36.3442 30.3811 35.9242V35.9142ZM30.3811 35.4892C30.4011 35.1192 30.5961 34.9292 30.9661 34.9292C31.1411 34.9292 31.2811 34.9742 31.3861 35.0642C31.4911 35.1542 31.5461 35.2842 31.5461 35.4542V35.4892H30.3811ZM32.6626 34.4442V37.0442H33.2826V35.6042C33.2826 35.3892 33.3326 35.2242 33.4426 35.1092C33.5526 34.9942 33.7026 34.9342 33.9026 34.9342C34.0326 34.9342 34.1576 34.9592 34.2726 34.9992V34.4092C34.2026 34.3992 34.1226 34.3892 34.0276 34.3892C33.8676 34.3892 33.7226 34.4192 33.5926 34.4792C33.4626 34.5392 33.3526 34.6242 33.2676 34.7392V34.4442H32.6626ZM34.8404 36.8592C35.0354 37.0042 35.3104 37.0742 35.6654 37.0742C36.0254 37.0742 36.3054 37.0042 36.5154 36.8592C36.7254 36.7192 36.8304 36.5092 36.8304 36.2392C36.8304 36.0242 36.7554 35.8542 36.6154 35.7292C36.4704 35.6042 36.2504 35.5242 35.9504 35.4892L35.5354 35.4392C35.4004 35.4292 35.3054 35.3992 35.2504 35.3542C35.1904 35.3142 35.1654 35.2542 35.1654 35.1792C35.1654 35.0892 35.2054 35.0242 35.2854 34.9742C35.3654 34.9242 35.4954 34.8992 35.6654 34.8992C35.8454 34.8992 35.9804 34.9292 36.0704 34.9792C36.1604 35.0342 36.2054 35.1092 36.2054 35.2092V35.2242H36.7804V35.2042C36.7804 34.9592 36.6804 34.7642 36.4854 34.6242C36.2854 34.4842 36.0154 34.4142 35.6704 34.4142C35.3304 34.4142 35.0654 34.4842 34.8754 34.6242C34.6804 34.7642 34.5854 34.9642 34.5854 35.2192C34.5854 35.4392 34.6504 35.6092 34.7904 35.7292C34.9304 35.8492 35.1454 35.9242 35.4404 35.9592L35.8254 36.0042C35.9704 36.0242 36.0754 36.0542 36.1404 36.0942C36.2054 36.1392 36.2404 36.1992 36.2404 36.2792C36.2404 36.3792 36.1904 36.4492 36.1004 36.4992C36.0104 36.5492 35.8754 36.5742 35.7004 36.5742C35.5104 36.5742 35.3654 36.5442 35.2704 36.4842C35.1704 36.4242 35.1254 36.3442 35.1254 36.2392V36.2292H34.5454V36.2442C34.5454 36.5092 34.6404 36.7142 34.8404 36.8592ZM37.8372 35.9142H39.6222V35.6142C39.6222 35.2242 39.5122 34.9242 39.3022 34.7142C39.0872 34.5042 38.7922 34.3992 38.4222 34.3992C38.0472 34.3992 37.7522 34.5092 37.5422 34.7192C37.3272 34.9292 37.2222 35.2342 37.2222 35.6292V35.8542C37.2222 36.2592 37.3272 36.5642 37.5472 36.7742C37.7672 36.9842 38.0672 37.0892 38.4522 37.0892C38.7872 37.0892 39.0572 37.0142 39.2622 36.8642C39.4672 36.7142 39.5772 36.5092 39.5972 36.2592V36.2292H38.9922L38.9872 36.2442C38.9722 36.3442 38.9172 36.4192 38.8272 36.4692C38.7372 36.5242 38.6172 36.5492 38.4772 36.5492C38.0472 36.5492 37.8372 36.3442 37.8372 35.9242V35.9142ZM37.8372 35.4892C37.8572 35.1192 38.0522 34.9292 38.4222 34.9292C38.5972 34.9292 38.7372 34.9742 38.8422 35.0642C38.9472 35.1542 39.0022 35.2842 39.0022 35.4542V35.4892H37.8372ZM40.3536 36.7842C40.5386 36.9892 40.7836 37.0892 41.0936 37.0892C41.4136 37.0892 41.6586 36.9842 41.8286 36.7642V37.0442H42.4336V33.5942H41.8186V34.7242C41.6336 34.5092 41.3886 34.3992 41.0836 34.3992C40.8836 34.3992 40.7086 34.4492 40.5586 34.5392C40.4086 34.6292 40.2886 34.7642 40.2036 34.9392C40.1186 35.1192 40.0786 35.3292 40.0786 35.5792V35.9042C40.0786 36.2892 40.1686 36.5842 40.3536 36.7842ZM41.6586 36.3692C41.5536 36.4792 41.4136 36.5342 41.2336 36.5342C41.0636 36.5342 40.9286 36.4842 40.8386 36.3742C40.7436 36.2642 40.6986 36.0992 40.6986 35.8792V35.6092C40.6986 35.3892 40.7436 35.2242 40.8386 35.1142C40.9336 35.0042 41.0686 34.9492 41.2486 34.9492C41.4286 34.9492 41.5686 35.0092 41.6686 35.1192C41.7686 35.2292 41.8186 35.3842 41.8186 35.5842V35.9142C41.8186 36.1092 41.7636 36.2592 41.6586 36.3692ZM43.0001 33.5792V34.0742H43.6151V33.5792H43.0001ZM43.0001 34.4442V37.0442H43.6151V34.4442H43.0001ZM46.1061 34.6642C45.9061 34.4992 45.6261 34.4142 45.2561 34.4142C44.9261 34.4142 44.6611 34.4892 44.4661 34.6292C44.2711 34.7692 44.1761 34.9642 44.1761 35.2092V35.2242H44.7661V35.2092C44.7661 35.1192 44.8011 35.0392 44.8761 34.9792C44.9511 34.9192 45.0711 34.8892 45.2411 34.8892C45.6061 34.8892 45.7911 35.0442 45.7911 35.3542V35.5092H45.0961C44.7711 35.5092 44.5211 35.5742 44.3511 35.7042C44.1811 35.8342 44.0961 36.0242 44.0961 36.2692C44.0961 36.5292 44.1761 36.7242 44.3361 36.8642C44.4961 37.0042 44.7361 37.0742 45.0511 37.0742C45.2161 37.0742 45.3561 37.0542 45.4761 37.0142C45.5911 36.9742 45.7011 36.9042 45.8061 36.8042V37.0442H46.4061V35.3842C46.4061 35.0742 46.3061 34.8342 46.1061 34.6642ZM45.7911 36.0942C45.7911 36.4192 45.5861 36.5792 45.1861 36.5792C45.0211 36.5792 44.8961 36.5542 44.8161 36.4942C44.7361 36.4392 44.6961 36.3592 44.6961 36.2542C44.6961 36.1442 44.7361 36.0642 44.8211 36.0142C44.9011 35.9642 45.0311 35.9342 45.2111 35.9342H45.7911V36.0942Z" fill="#838383"/>
<defs>
<filter id="filter0_d_6870_2592" x="14.1066" y="1.25806" width="21.3233" height="19.0079" filterUnits="userSpaceOnUse" color-interpolation-filters="sRGB">
<feFlood flood-opacity="0" result="BackgroundImageFix"/>
<feColorMatrix in="SourceAlpha" type="matrix" values="0 0 0 0 0 0 0 0 0 0 0 0 0 0 0 0 0 0 127 0" result="hardAlpha"/>
<feOffset dy="0.737109"/>
<feGaussianBlur stdDeviation="0.368554"/>
<feComposite in2="hardAlpha" operator="out"/>
<feColorMatrix type="matrix" values="0 0 0 0 0 0 0 0 0 0 0 0 0 0 0 0 0 0 0.25 0"/>
<feBlend mode="normal" in2="BackgroundImageFix" result="effect1_dropShadow_6870_2592"/>
<feBlend mode="normal" in="SourceGraphic" in2="effect1_dropShadow_6870_2592" result="shape"/>
</filter>
<filter id="filter1_d_6870_2592" x="27.8497" y="1.41406" width="7.18115" height="7.57397" filterUnits="userSpaceOnUse" color-interpolation-filters="sRGB">
<feFlood flood-opacity="0" result="BackgroundImageFix"/>
<feColorMatrix in="SourceAlpha" type="matrix" values="0 0 0 0 0 0 0 0 0 0 0 0 0 0 0 0 0 0 127 0" result="hardAlpha"/>
<feOffset dy="0.614257"/>
<feGaussianBlur stdDeviation="0.307129"/>
<feComposite in2="hardAlpha" operator="out"/>
<feColorMatrix type="matrix" values="0 0 0 0 0 0 0 0 0 0 0 0 0 0 0 0 0 0 0.1 0"/>
<feBlend mode="normal" in2="BackgroundImageFix" result="effect1_dropShadow_6870_2592"/>
<feBlend mode="normal" in="SourceGraphic" in2="effect1_dropShadow_6870_2592" result="shape"/>
</filter>
</defs>
</svg>
