<svg width="215" height="192" viewBox="0 0 215 192" fill="none" xmlns="http://www.w3.org/2000/svg">
<path opacity="0.7" d="M68.4876 177.768C79.8832 185.858 102.314 177.642 111.097 169.352C139.602 142.445 189.919 97.0865 182.75 47.1895C179.702 25.9792 159.014 18.6154 150.644 16.91C130.537 12.8105 109.699 14.5058 89.4117 17.5787C68.2211 20.7884 45.8339 25.9697 28.9386 39.9553C22.5415 45.2541 16.7633 51.564 13.4747 59.2753C10.1355 67.1087 9.05779 75.8612 9.97769 84.3023C11.4627 97.9166 17.7176 110.626 25.5896 121.833C33.4616 133.04 42.9677 142.978 51.9409 153.328C57.7923 160.085 58.8877 170.95 68.4876 177.768Z" fill="#FFEE8E"/>
<path d="M144.324 128.463H37.0096V60.0005L93.4647 60L144.324 60.0011V128.463Z" fill="#FFC727"/>
<path d="M144.324 60.4072V128.464H37.0096V60.4072C41.6181 63.0199 46.1496 65.761 50.7067 68.4336C55.2552 71.1575 59.7952 73.8815 64.3095 76.6569C69.3377 79.715 74.3659 82.833 79.377 85.9681C79.4284 85.9339 79.4884 85.8996 79.5398 85.8739C79.4884 85.9082 79.4627 85.951 79.4113 85.9853C83.1632 88.3238 86.9237 90.6794 90.6756 93.0265C94.4103 90.6709 98.1708 88.3067 101.923 85.9853C101.871 85.951 101.846 85.9082 101.794 85.8739C101.846 85.9082 101.906 85.9424 101.957 85.951C106.968 82.8244 111.979 79.715 117.025 76.6398C121.539 73.8815 126.062 71.1404 130.61 68.4336C135.193 65.7524 139.716 63.0199 144.324 60.4072Z" fill="#FFC727"/>
<g opacity="0.2">
<path d="M144.323 60.406C139.989 63.4555 135.569 66.368 131.209 69.3661C126.806 72.2956 122.394 75.2338 117.957 78.1291C113.332 81.1614 108.689 84.1595 104.046 87.1405C103.9 87.2347 103.772 87.3375 103.626 87.4317C99.5146 90.0615 95.3944 92.6827 91.2656 95.3124L90.6574 95.6808L90.0577 95.3124C85.9289 92.6827 81.8258 90.0615 77.7142 87.4146C77.5685 87.3375 77.4229 87.2347 77.2773 87.1405C72.6174 84.1595 67.9746 81.1614 63.349 78.1119C58.9289 75.2252 54.5175 72.2956 50.1145 69.3575C45.7459 66.3594 41.3344 63.447 37 60.3975C41.6085 63.0101 46.1399 65.7512 50.697 68.4238C55.2456 71.1478 59.7855 73.8718 64.2998 76.6471C69.3281 79.7052 74.3563 82.8232 79.3674 85.9584C79.3845 85.9584 79.3845 85.9584 79.4017 85.9755C83.1536 88.314 86.914 90.6697 90.6659 93.0168C94.4007 90.6611 98.1612 88.2969 101.913 85.9755C101.93 85.9412 101.93 85.9412 101.947 85.9412C106.958 82.8147 111.97 79.7052 117.015 76.63C121.529 73.8718 126.052 71.1306 130.601 68.4238C135.192 65.7512 139.715 63.0186 144.323 60.406Z" fill="black"/>
<path d="M79.5372 85.874C79.4858 85.9083 79.4601 85.9511 79.4087 85.9854C78.8434 86.4651 78.278 86.9533 77.7127 87.4159C75.0229 89.6859 72.2647 91.8617 69.4636 93.9775C66.0458 96.5901 62.5508 99.0828 59.0388 101.567C55.5096 104 51.9633 106.415 48.3399 108.737C44.7165 111.058 41.0588 113.328 37.264 115.41C40.5191 112.557 43.9027 109.902 47.3205 107.306C50.7555 104.694 54.2504 102.201 57.7453 99.7167C61.2916 97.2668 64.838 94.8512 68.4614 92.5298C71.3481 90.6795 74.2777 88.855 77.2758 87.1504C77.9696 86.7478 78.6635 86.3623 79.3745 85.9768C79.4259 85.934 79.4858 85.8997 79.5372 85.874Z" fill="black"/>
<path d="M144.068 115.41C140.282 113.328 136.607 111.058 132.992 108.737C129.369 106.415 125.823 104 122.276 101.567C118.764 99.0828 115.269 96.5901 111.851 93.9775C109.067 91.8702 106.309 89.703 103.628 87.433C103.046 86.9533 102.48 86.4651 101.923 85.9854C101.872 85.9511 101.846 85.9083 101.795 85.874C101.846 85.9083 101.906 85.9425 101.958 85.9511C102.669 86.3537 103.362 86.7392 104.056 87.1418C107.054 88.8464 109.967 90.671 112.871 92.5212C116.494 94.8426 120.04 97.2582 123.57 99.7081C127.082 102.192 130.577 104.685 133.994 107.298C137.429 109.902 140.813 112.557 144.068 115.41Z" fill="black"/>
</g>
<circle cx="22.0964" cy="138.185" r="6.76478" fill="#FFC535"/>
<circle cx="22.0947" cy="138.183" r="5.86281" fill="white"/>
<circle cx="7.21604" cy="107.97" r="3.60788" fill="#FFC535"/>
<circle cx="7.21497" cy="107.97" r="3.12683" fill="white"/>
<circle cx="15.3302" cy="123.305" r="4.50985" fill="#FFC535"/>
<circle cx="15.3318" cy="123.306" r="3.90854" fill="#FFC535"/>
<circle cx="3.1569" cy="92.1881" r="3.1569" fill="#FFC535"/>
<circle cx="3.15785" cy="92.1891" r="2.73598" fill="#FFC535"/>
<circle cx="5.41185" cy="81.8127" r="1.80394" fill="#FFC535"/>
<circle cx="5.41217" cy="81.8134" r="1.56342" fill="#FFC535"/>
<circle r="6.76478" transform="matrix(-0.465102 0.885257 0.885257 0.465102 195.903 55.9679)" fill="#FFC535"/>
<circle r="5.86281" transform="matrix(-0.465102 0.885257 0.885257 0.465102 195.902 55.9687)" fill="white"/>
<circle r="3.60788" transform="matrix(-0.465102 0.885257 0.885257 0.465102 178.353 23.0624)" fill="#FFC535"/>
<circle r="3.12683" transform="matrix(-0.465102 0.885257 0.885257 0.465102 178.354 23.0622)" fill="white"/>
<circle r="4.50985" transform="matrix(-0.465102 0.885257 0.885257 0.465102 188.151 37.3819)" fill="#FFC535"/>
<circle r="3.90854" transform="matrix(-0.465102 0.885257 0.885257 0.465102 188.149 37.3824)" fill="#FFC535"/>
<circle r="3.1569" transform="matrix(-0.465102 0.885257 0.885257 0.465102 166.268 12.1262)" fill="#FFC535"/>
<circle r="2.73598" transform="matrix(-0.465102 0.885257 0.885257 0.465102 166.269 12.1272)" fill="#FFC535"/>
<circle r="1.80394" transform="matrix(-0.465102 0.885257 0.885257 0.465102 156.033 9.30023)" fill="#FFC535"/>
<circle r="1.56342" transform="matrix(-0.465102 0.885257 0.885257 0.465102 156.032 9.30063)" fill="#FFC535"/>
<circle cx="136.5" cy="62.5" r="27.5" fill="#FFF3B0"/>
<circle cx="136.5" cy="62.5" r="23.5" fill="#0075FF"/>
<path d="M132.696 66.4098L145.397 52.6417C145.791 52.2139 146.294 52 146.904 52C147.514 52 148.016 52.2139 148.411 52.6417C148.805 53.0696 149.002 53.6141 149.002 54.2752C149.002 54.9364 148.805 55.4809 148.411 55.9087L134.203 71.3103C133.772 71.7771 133.27 72.0104 132.696 72.0104C132.122 72.0104 131.62 71.7771 131.189 71.3103L125.592 65.243C125.197 64.8152 125 64.2707 125 63.6095C125 62.9484 125.197 62.4039 125.592 61.976C125.987 61.5482 126.489 61.3343 127.099 61.3343C127.709 61.3343 128.211 61.5482 128.606 61.976L132.696 66.4098Z" fill="white"/>
</svg>
