<svg width="36" height="36" viewBox="0 0 36 36" fill="none" xmlns="http://www.w3.org/2000/svg">
<path d="M19.8159 3.09473V6.01139C26.218 6.79889 30.7534 12.6176 29.9659 19.0197C29.644 21.5995 28.4711 23.9983 26.6328 25.8366C24.7945 27.6749 22.3957 28.8478 19.8159 29.1697V32.0864C27.8368 31.2114 33.5972 24.0072 32.7222 16.001C31.9638 9.20514 26.6118 3.82389 19.8159 3.09473ZM16.8993 3.09473C14.0409 3.35723 11.343 4.48014 9.12633 6.30306L11.2118 8.54889C12.8451 7.23639 14.8138 6.39056 16.8993 6.09889V3.18223M7.07009 8.44681C5.24087 10.6561 4.11798 13.3643 3.84717 16.2197H6.76384C7.04092 14.1489 7.85758 12.1801 9.1555 10.5322L7.07009 8.44681ZM3.86175 19.1364C4.15342 21.9947 5.27633 24.6926 7.08467 26.9093L9.1555 24.8239C7.86769 23.1754 7.04668 21.211 6.77842 19.1364H3.86175M11.1534 26.9676L9.12633 28.9656C11.3354 30.807 14.0399 31.9537 16.8993 32.2614V29.3447C14.8246 29.0765 12.8603 28.2555 11.2118 26.9676H11.1534ZM19.8159 19.1364V10.3864H16.8993V19.1364H19.8159ZM19.8159 24.9697V22.0531H16.8993V24.9697H19.8159Z" fill="#FFCE31"/>
</svg>
