<svg width="38" height="38" viewBox="0 0 38 38" fill="none" xmlns="http://www.w3.org/2000/svg">
<circle cx="19" cy="19" r="18.5" fill="white" stroke="white"/>
<path d="M22.1602 12.7812H27.1477L29.6209 17.589L34.0726 18.7206L34.6834 23.3672H22.1602V12.7812Z" fill="#C7C7C7"/>
<path d="M34.6872 21.1865H22.1602V23.3712H34.6872V21.1865Z" fill="#C7C7C7"/>
<path d="M22.8672 13.415V17.5895H28.6867L26.6032 13.415H22.8672Z" fill="white"/>
<path d="M21.6759 21.0479H3.31445V23.2962H21.6759V21.0479Z" fill="#C7C7C7"/>
<path d="M21.6759 21.0479H3.31445V21.7973H21.6759V21.0479Z" fill="#2E4150"/>
<path d="M34.6872 21.1191H22.1602V21.6625H34.6872V21.1191Z" fill="#2E4150"/>
<path d="M28.4324 19.9834C26.5626 19.9834 25.0449 21.4973 25.0449 23.3672H31.8162C31.8199 21.4973 30.3023 19.9834 28.4324 19.9834Z" fill="#2E4150"/>
<path d="M31.3744 23.3669C31.3744 24.9969 30.0516 26.3197 28.4216 26.3197C26.7915 26.3197 25.4688 24.9969 25.4688 23.3669C25.4688 21.7368 26.7915 20.4141 28.4216 20.4141C30.0516 20.4141 31.3744 21.7368 31.3744 23.3669Z" fill="#E7E7E7"/>
<path d="M30.1268 23.3671C30.1268 24.3077 29.3624 25.0721 28.4218 25.0721C27.4812 25.0721 26.7168 24.3077 26.7168 23.3671C26.7168 22.4265 27.4812 21.6621 28.4218 21.6621C29.3624 21.6621 30.1268 22.4265 30.1268 23.3671Z" fill="#8E8E8E"/>
<path d="M18.8249 11.6797H8.25391V21.0478H18.8249V11.6797Z" fill="#E7E7E7"/>
<path d="M18.0065 11.6797H7.43555V21.0478H18.0065V11.6797Z" fill="#FFC535"/>
<path d="M10.7051 17.3562L11.681 17.2018C11.7676 17.4077 11.8752 17.554 12.0039 17.6406C12.1327 17.7248 12.3082 17.767 12.5305 17.767C12.7598 17.767 12.9436 17.7155 13.0816 17.6125C13.1776 17.5423 13.2256 17.4569 13.2256 17.3562C13.2256 17.2884 13.201 17.2275 13.1518 17.1737C13.1004 17.1222 12.9611 17.059 12.7341 16.9841C12.1256 16.7829 11.7488 16.6237 11.6037 16.5067C11.3767 16.3242 11.2632 16.0855 11.2632 15.7906C11.2632 15.4957 11.3732 15.2418 11.5932 15.0288C11.8998 14.7316 12.355 14.583 12.9588 14.583C13.4385 14.583 13.8013 14.6708 14.047 14.8463C14.2927 15.0218 14.4484 15.2594 14.5139 15.5589L13.5836 15.7204C13.5345 15.5846 13.4549 15.4828 13.3449 15.415C13.1951 15.3237 13.0149 15.2781 12.8043 15.2781C12.5937 15.2781 12.4416 15.3132 12.348 15.3834C12.2567 15.4536 12.2111 15.5343 12.2111 15.6256C12.2111 15.7192 12.2579 15.7964 12.3515 15.8573C12.41 15.8947 12.5984 15.9603 12.9166 16.0539C13.4081 16.1966 13.7369 16.3371 13.9031 16.4751C14.1371 16.6694 14.2541 16.9034 14.2541 17.1772C14.2541 17.5306 14.1055 17.8372 13.8083 18.0969C13.5111 18.3567 13.0922 18.4866 12.5516 18.4866C12.0133 18.4866 11.5967 18.3883 11.3019 18.1917C11.0093 17.9928 10.8104 17.7143 10.7051 17.3562Z" fill="white"/>
<path d="M9.325 19.9834C7.45513 19.9834 5.9375 21.4973 5.9375 23.3672H12.7088C12.7088 21.4973 11.1949 19.9834 9.325 19.9834Z" fill="#2E4150"/>
<path d="M12.2787 23.3669C12.2787 24.9969 10.9559 26.3197 9.32586 26.3197C7.69581 26.3197 6.37305 24.9969 6.37305 23.3669C6.37305 21.7368 7.69581 20.4141 9.32586 20.4141C10.9559 20.4141 12.2787 21.7368 12.2787 23.3669Z" fill="#E7E7E7"/>
<path d="M11.0291 23.3671C11.0291 24.3077 10.2647 25.0721 9.32413 25.0721C8.38357 25.0721 7.61914 24.3077 7.61914 23.3671C7.61914 22.4265 8.38357 21.6621 9.32413 21.6621C10.2647 21.6621 11.0291 22.4265 11.0291 23.3671Z" fill="#8E8E8E"/>
</svg>
