<svg width="38" height="39" viewBox="0 0 38 39" fill="none" xmlns="http://www.w3.org/2000/svg">
<circle cx="19" cy="19.5264" r="19" fill="white"/>
<path d="M34.1923 22.0025C30.3421 24.4298 26.3854 27.1158 22.4896 29.6547C22.0153 29.9616 21.5435 30.271 21.0717 30.5728C18.756 32.0642 18.0465 32.954 15.8221 34.2145C16.9629 33.5574 15.0468 33.1068 14.958 32.8532C17.2052 31.4303 18.51 30.6794 20.775 29.2539C25.1933 26.4741 29.5812 23.6283 33.9666 20.8535C34.068 21.1959 34.1416 21.6195 34.1923 22.0025Z" fill="#CCCCCC"/>
<path d="M33.9661 20.8553C32.0385 22.2274 26.7578 25.6388 22.2609 28.4998C21.7688 28.8144 21.2844 29.1213 20.8177 29.4155C20.8101 29.4205 20.7999 29.4282 20.7923 29.4332C17.9617 31.229 15.6765 32.6569 15.1438 32.9638C15.5522 32.7254 14.8572 33.1287 15.1438 32.9638C14.5656 32.4134 13.5353 32.0958 12.9418 31.5556C12.602 31.2462 11.631 31.3532 11.286 31.0463C8.76491 28.789 7.20189 26.2256 4.58691 24.1331C5.14122 23.7613 4.663 24.0798 4.58691 24.1331C5.30977 23.5979 7.23041 22.2376 10.3907 20.4596C10.8777 20.1882 11.3723 19.9092 11.8719 19.6302C14.7152 18.045 17.6624 16.4369 19.6104 15.4123C20.1531 15.1257 20.6173 14.8847 20.98 14.7021C21.3579 14.5119 21.6268 14.385 21.7561 14.3368C22.2177 14.1618 22.687 13.9158 23.1613 13.7256C23.704 14.0883 24.2493 14.4535 24.7997 14.8162C25.2461 15.113 25.6951 15.4097 26.144 15.7039C27.8713 16.8453 29.6137 17.9841 31.3435 19.1229L32.9516 20.1857C33.2915 20.4063 33.6288 20.6295 33.9661 20.8553Z" fill="#BBBBBB"/>
<path d="M22.931 18.8808L16.6307 23.6669L11.875 19.6037C14.7183 18.0185 17.6655 16.4104 19.6134 15.3857L22.931 18.8808Z" fill="#CCCCCC"/>
<path d="M32.9517 20.1809C32.9517 20.1809 26.5626 26.1768 21.6903 21.8777L17.9745 24.8401L22.2584 28.5001C21.7664 28.8146 21.2819 29.1215 20.8152 29.4157L18.9941 27.8508L12.3083 31.9698C11.9684 31.6604 11.626 31.351 11.2811 31.0441L17.8578 26.8743L10.3857 20.4548C10.8727 20.1834 11.3673 19.9044 11.867 19.6254L16.6226 23.6886C18.3702 22.3545 22.9229 18.9025 22.9229 18.9025L19.6054 15.4074C20.1482 15.1208 20.6123 14.8799 20.975 14.6973L22.3751 16.1912L24.7948 14.8089C25.2412 15.1056 25.6901 15.4024 26.139 15.6966L23.4099 17.292L25.1321 19.1283L23.0396 20.7972C24.3636 21.7255 27.6127 23.0317 31.7216 19.3692L32.9517 20.1809Z" fill="#FFFFFD"/>
<path d="M22.4897 29.654C22.0154 29.9635 21.5437 30.2704 21.0719 30.5722L20.8081 29.3953L22.2564 28.4873L22.4897 29.654Z" fill="#D9D9D7"/>
<path d="M7.771 22.8517L10.1907 21.3096L13.7187 24.5028L11.3675 25.9663L7.771 22.8517Z" fill="#B99D88"/>
<path d="M12.4121 27.2982L13.8781 28.8124L16.2217 27.1485L14.8369 25.9717L12.4121 27.2982Z" fill="#B99D88"/>
<path d="M9.9624 29.0426L11.7556 27.7363L13.0542 29.2936L11.2838 30.506L9.9624 29.0426Z" fill="#B99D88"/>
<path d="M19.0503 24.9543L20.217 24.0742L21.0718 25.1496L20.0192 25.9486L19.0503 24.9543Z" fill="#B99D88"/>
<path d="M20.3921 26.2456L22.4313 24.7061L24.7648 26.4105L22.2639 27.9272L20.3921 26.2456Z" fill="#FFC535"/>
<path d="M24.5791 17.5001L26.0958 16.5059L26.9633 17.5813L25.3172 18.6009L24.5791 17.5001Z" fill="#B99D88"/>
<path d="M9.79025 17.707C11.7508 19.6676 24.7649 31.6849 24.7649 31.6849C24.7649 31.6849 17.8984 35.8509 16.5491 34.5016C13.8024 34.5016 3.79054 24.8197 3.77786 24.2718C3.76264 23.7214 9.79025 17.707 9.79025 17.707Z" fill="white"/>
<path d="M21.8856 28.1777L22.2585 28.4872L22.9306 30.7394C22.9306 30.7394 22.7835 32.2156 21.8856 31.5232C20.9878 30.8308 19.0043 28.9615 19.3721 28.8118C19.7424 28.6622 21.4494 28.1777 21.4494 28.1777H21.8856Z" fill="white"/>
<path d="M20.319 8.44355C20.319 6.39371 18.6508 4.73047 16.5922 4.73047C14.5336 4.73047 12.8633 6.39158 12.8633 8.44355C12.8633 8.44355 12.6947 9.73081 14.1688 11.8274C14.8322 12.7705 16.5922 15.5702 16.5922 15.5702C16.5922 15.5702 18.35 12.7705 19.0134 11.8274C20.4875 9.73081 20.319 8.44355 20.319 8.44355ZM16.5922 10.4424C15.4829 10.4424 14.5848 9.54813 14.5848 8.44355C14.5848 7.33897 15.4829 6.44469 16.5922 6.44469C17.7015 6.44469 18.5996 7.33897 18.5996 8.44355C18.5974 9.54813 17.6993 10.4424 16.5922 10.4424Z" fill="#FFC535"/>
<path d="M15.2522 8.74943V8.74794C15.2522 8.73334 15.2401 8.72098 15.225 8.72098H15.1048C15.09 8.72098 15.0776 8.73296 15.0776 8.74794V8.74943C15.0776 8.76403 15.0897 8.77639 15.1048 8.77639H15.2114C15.239 8.77639 15.2635 8.78799 15.2802 8.80671C15.2813 8.80783 15.2824 8.80933 15.2836 8.81045C15.2968 8.82618 15.3047 8.84677 15.3047 8.86923C15.3047 8.92014 15.2628 8.96169 15.2114 8.96169H15.1191C15.0677 8.96169 15.0258 8.92014 15.0258 8.86923H15.0787C15.0787 8.89131 15.0968 8.90928 15.1191 8.90928H15.2117C15.234 8.90928 15.2526 8.89131 15.2526 8.86923C15.2526 8.84714 15.234 8.82917 15.2117 8.82917H15.1051C15.0836 8.82917 15.0643 8.82094 15.0496 8.80708C15.0458 8.80334 15.0424 8.79922 15.0394 8.79436C15.0307 8.78163 15.0254 8.76628 15.0254 8.74943V8.74794C15.0254 8.70451 15.0609 8.66895 15.1048 8.66895H15.225C15.2688 8.66895 15.3047 8.70451 15.3047 8.74794V8.74943H15.2522Z" fill="#010101"/>
<path d="M15.7272 8.96109H15.6679L15.6406 8.90868L15.576 8.7829L15.5114 8.90868L15.4842 8.96109H15.4248L15.452 8.90868L15.576 8.66797L15.7 8.90868L15.7272 8.96109Z" fill="#010101"/>
<path d="M16.1676 8.66834V8.96147L16.1146 8.92141L15.9245 8.77616V8.96184H15.8716V8.66947L15.9245 8.70952L16.1146 8.85477V8.66797L16.1676 8.66834Z" fill="#010101"/>
<path d="M16.476 8.66872C16.5577 8.66872 16.6238 8.73386 16.6238 8.81472C16.6238 8.85066 16.6106 8.88397 16.5887 8.90943C16.586 8.91243 16.583 8.91542 16.5804 8.91804C16.5539 8.94499 16.5169 8.96109 16.4764 8.96109H16.3286V8.66797L16.476 8.66872ZM16.3808 8.90943H16.476C16.5286 8.90943 16.5713 8.86713 16.5713 8.81509C16.5713 8.76306 16.5286 8.72075 16.476 8.72075H16.3808V8.90943Z" fill="#010101"/>
<path d="M17.0811 8.86788C17.0811 8.91954 17.0388 8.96109 16.987 8.96109H16.7852V8.66797H16.9715C17.0154 8.66797 17.0513 8.70353 17.0513 8.74696C17.0513 8.76268 17.0467 8.77766 17.0384 8.78964C17.0641 8.80686 17.0811 8.83531 17.0811 8.86788ZM16.8377 8.77429H16.9719C16.9866 8.77429 16.9991 8.76231 16.9991 8.74733C16.9991 8.73273 16.987 8.72038 16.9719 8.72038H16.8377V8.77429ZM16.9866 8.90868C17.0093 8.90868 17.0282 8.89034 17.0282 8.8675C17.0282 8.84467 17.0097 8.82632 16.9866 8.82632H16.8377V8.90868H16.9866Z" fill="#010101"/>
<path fill-rule="evenodd" clip-rule="evenodd" d="M16.7554 8.6377H16.9718C17.032 8.6377 17.0817 8.68647 17.0817 8.7468C17.0817 8.75867 17.0798 8.77044 17.0761 8.78153C17.0978 8.80375 17.1116 8.83391 17.1116 8.86771C17.1116 8.93636 17.0554 8.99104 16.9873 8.99104H16.7554V8.6377ZM16.8681 8.85627V8.87841H16.987C16.9935 8.87841 16.9984 8.87309 16.9984 8.86734C16.9984 8.86141 16.9937 8.85627 16.987 8.85627H16.8681Z" fill="#010101"/>
<path d="M17.5168 8.81434C17.5168 8.8952 17.4503 8.96072 17.369 8.96072C17.2877 8.96072 17.2212 8.89483 17.2212 8.81434C17.2212 8.73348 17.2877 8.66797 17.369 8.66797C17.4503 8.66797 17.5168 8.73348 17.5168 8.81434ZM17.4639 8.81434C17.4639 8.76231 17.4212 8.72 17.3686 8.72C17.3161 8.72 17.2734 8.76231 17.2734 8.81434C17.2734 8.86638 17.3161 8.90868 17.3686 8.90868C17.4212 8.90868 17.4639 8.86638 17.4639 8.81434Z" fill="#010101"/>
<path fill-rule="evenodd" clip-rule="evenodd" d="M17.1909 8.81516C17.1909 8.71734 17.2713 8.63867 17.3688 8.63867C17.4664 8.63867 17.5467 8.71734 17.5467 8.81516C17.5467 8.91297 17.4664 8.99164 17.3688 8.99164C17.2712 8.99164 17.1909 8.91255 17.1909 8.81516ZM17.3685 8.75093C17.3323 8.75093 17.3033 8.78002 17.3033 8.81516C17.3033 8.85029 17.3323 8.87939 17.3685 8.87939C17.4046 8.87939 17.4336 8.85029 17.4336 8.81516C17.4336 8.78002 17.4046 8.75093 17.3685 8.75093Z" fill="#010101"/>
<path d="M17.9159 8.66895L17.8013 8.81607L17.9155 8.96207H17.8486L17.7677 8.85875L17.6868 8.96207H17.6199L17.7337 8.81607L17.6191 8.66895H17.686L17.7673 8.77302L17.8486 8.66895H17.9151H17.9159Z" fill="#010101"/>
<path fill-rule="evenodd" clip-rule="evenodd" d="M17.5576 8.63867H17.7008L17.7674 8.72393L17.834 8.63867H17.9776L17.8396 8.81586L17.9773 8.99202H17.834L17.7678 8.90743L17.7015 8.99202H17.5583L17.6956 8.8159L17.5576 8.63867Z" fill="#010101"/>
<path fill-rule="evenodd" clip-rule="evenodd" d="M16.4847 8.23084L15.7578 7.81418C15.7578 7.81418 16.1691 8.05714 16.4874 7.81793C16.6083 7.72696 16.7486 7.6869 16.8673 7.68653C16.9841 7.68615 17.0876 7.72134 17.139 7.75503C17.1511 7.7629 17.2093 7.79734 17.2093 7.79734C17.2093 7.79734 17.2093 7.80707 17.209 7.81568L16.4847 8.23084Z" fill="#FFC535"/>
<path fill-rule="evenodd" clip-rule="evenodd" d="M16.965 7.81609C16.9359 7.81013 16.9029 7.8062 16.8677 7.80632C16.774 7.80661 16.6593 7.83874 16.5598 7.91353C16.493 7.96375 16.4233 7.99649 16.3541 8.01647L16.4848 8.09137L16.965 7.81609ZM17.2094 7.79668L17.3298 7.79669L17.3298 7.79695L17.3298 7.79743L17.3298 7.79902L17.3298 7.80425C17.3297 7.80833 17.3296 7.81427 17.3293 7.82031L17.3264 7.88655L16.4848 8.36902L15.7 7.9192L15.6991 7.91867L15.6975 7.91778L15.697 7.91746L15.6968 7.91733C15.6967 7.91731 15.6966 7.91723 15.7579 7.81353L15.6968 7.91733L15.8178 7.70904L15.8199 7.71027L15.8212 7.71098C15.8233 7.71218 15.8269 7.71413 15.8318 7.71666C15.8415 7.72174 15.8564 7.7291 15.8754 7.73741C15.9136 7.75414 15.9672 7.77408 16.0287 7.78739C16.1534 7.81435 16.2948 7.81133 16.415 7.72102M17.2048 7.65344C17.131 7.60522 17.0038 7.565 16.8669 7.56543L17.2048 7.65344ZM17.2048 7.65344C17.2048 7.65346 17.2049 7.65351 17.205 7.65357L17.2059 7.65412L17.2088 7.65592L17.2176 7.66128C17.2244 7.66543 17.2326 7.67033 17.2405 7.67507L17.2616 7.68761L17.2706 7.69294L17.3298 7.728L17.3298 7.79669L17.2094 7.79668M16.8669 7.56543C16.7232 7.56589 16.5575 7.61388 16.415 7.72102L16.8669 7.56543Z" fill="#FFC535"/>
<path d="M15.7354 7.82871L16.4849 8.25548L17.2375 7.82422V8.00429L16.4838 8.44453L15.7354 8.00616V7.82871Z" fill="#FCB017"/>
<path d="M16.0473 7.97601L16.0327 8.00098L16.181 8.08573L16.1956 8.06077L16.0473 7.97601Z" fill="white"/>
<path d="M16.1957 8.06L16.1812 8.08496L16.3294 8.16982L16.344 8.14486L16.1957 8.06Z" fill="white"/>
<path d="M16.3446 8.14593L16.3301 8.1709L16.4784 8.25562L16.493 8.23065L16.3446 8.14593Z" fill="white"/>
<path d="M16.9294 8.00183C16.9245 8.00183 16.9196 7.99921 16.9169 7.99471C16.9154 7.99247 16.915 7.98985 16.915 7.9876C16.915 7.98273 16.9177 7.97787 16.9222 7.97525L17.0704 7.89064C17.0772 7.88652 17.0863 7.88914 17.0901 7.89588C17.0916 7.89813 17.0919 7.90075 17.0919 7.903C17.0919 7.90786 17.0893 7.91273 17.0848 7.91535L16.9366 8.00033C16.9347 8.00108 16.932 8.00183 16.9294 8.00183Z" fill="white"/>
<path d="M16.7815 8.08679C16.7765 8.08679 16.7716 8.08417 16.769 8.07967C16.7675 8.07743 16.7671 8.07481 16.7671 8.07256C16.7671 8.06769 16.7697 8.06283 16.7743 8.06021L16.9224 7.9756C16.9293 7.97148 16.9383 7.97411 16.9421 7.98084C16.9432 7.98309 16.944 7.98571 16.944 7.98796C16.944 7.99282 16.9413 7.99769 16.9368 8.00031L16.7886 8.08492C16.7864 8.08604 16.7841 8.08679 16.7815 8.08679Z" fill="white"/>
<path d="M16.633 8.17077C16.6281 8.17077 16.6232 8.16815 16.6205 8.16366C16.619 8.16141 16.6187 8.15879 16.6187 8.15655C16.6187 8.15168 16.6213 8.14681 16.6258 8.14419L16.774 8.05959C16.7808 8.05547 16.7899 8.05809 16.7937 8.06483C16.7948 8.06707 16.7956 8.06969 16.7956 8.07194C16.7956 8.07681 16.7929 8.08167 16.7884 8.08429L16.6402 8.1689C16.6379 8.1704 16.6357 8.17077 16.633 8.17077Z" fill="white"/>
<path d="M16.4851 8.25671C16.4802 8.25671 16.4752 8.25409 16.4726 8.2496C16.4711 8.24735 16.4707 8.24473 16.4707 8.24248C16.4707 8.23762 16.4733 8.23275 16.4779 8.23013L16.6261 8.14552C16.6329 8.14141 16.6419 8.14403 16.6457 8.15077C16.6472 8.15301 16.6476 8.15563 16.6476 8.15788C16.6476 8.16275 16.645 8.16761 16.6404 8.17023L16.4922 8.25484C16.49 8.25596 16.4873 8.25671 16.4851 8.25671Z" fill="white"/>
<path fill-rule="evenodd" clip-rule="evenodd" d="M16.1831 7.8076C16.1831 7.78027 16.2054 7.75781 16.2334 7.75781C16.261 7.75781 16.2837 7.7799 16.2837 7.8076C16.2837 7.83493 16.2614 7.85739 16.2334 7.85739C16.2054 7.85702 16.1831 7.83493 16.1831 7.8076Z" fill="#010101"/>
<path fill-rule="evenodd" clip-rule="evenodd" d="M16.2886 7.83037C16.2886 7.81652 16.2999 7.80566 16.3135 7.80566C16.3271 7.80566 16.3385 7.81689 16.3385 7.83037C16.3385 7.84422 16.3271 7.85508 16.3135 7.85508C16.2999 7.85508 16.2886 7.84385 16.2886 7.83037Z" fill="#010101"/>
<path d="M15.7581 7.82584L15.7362 7.83033C15.7316 7.82771 15.729 7.82284 15.729 7.81798C15.729 7.81274 15.7316 7.80824 15.7362 7.80562L16.4775 7.38185C16.482 7.37923 16.4877 7.37923 16.4918 7.38185L16.64 7.46683L16.6256 7.49191L16.4846 7.41142L15.7725 7.81873L15.7581 7.82584Z" fill="#010101"/>
<path d="M16.64 7.46624L16.6255 7.49121L16.7738 7.57595L16.7884 7.55098L16.64 7.46624Z" fill="#010101"/>
<path d="M16.789 7.55024L16.7744 7.5752L16.9227 7.66004L16.9372 7.63508L16.789 7.55024Z" fill="#010101"/>
<path d="M17.0701 7.74543L16.9219 7.66082L16.9362 7.63574L17.1283 7.74543H17.0701Z" fill="#010101"/>
<path d="M16.485 8.25574C16.4824 8.25574 16.4801 8.25499 16.4778 8.25387L16.3297 8.16927L16.344 8.14418L16.485 8.22467L17.1972 7.81737L17.0706 7.74512H17.1288L17.2335 7.80501C17.238 7.80763 17.2407 7.8125 17.2407 7.81737C17.2407 7.82261 17.238 7.8271 17.2335 7.82972L16.4922 8.2535C16.4899 8.25499 16.4877 8.25574 16.485 8.25574ZM16.0329 7.99968L15.9517 7.95326L15.966 7.92818L16.0473 7.9746L16.0329 7.99968Z" fill="#010101"/>
<path d="M16.4851 8.44284C16.4824 8.44284 16.4802 8.44209 16.4779 8.44096C16.4733 8.43834 16.4707 8.43348 16.4707 8.42861V8.2418C16.4707 8.23656 16.4733 8.23207 16.4779 8.22945L17.2192 7.80568C17.2237 7.80306 17.2294 7.80306 17.2335 7.80568C17.2381 7.8083 17.2407 7.81316 17.2407 7.81803V7.99548C17.2407 8.00072 17.2381 8.00521 17.2335 8.00783L16.4922 8.44096C16.49 8.44209 16.4877 8.44284 16.4851 8.44284ZM16.4994 8.25004V8.40353L17.2116 7.98687V7.84236L16.4994 8.25004Z" fill="#010101"/>
<path d="M16.0329 8.18156L15.8848 8.09209L15.8991 8.06738L16.0477 8.15685L16.0329 8.18156Z" fill="#010101"/>
<path d="M16.4848 8.44293C16.4822 8.44293 16.4799 8.44218 16.4776 8.44106L16.0327 8.182L16.0471 8.15692L16.4701 8.40363V8.24976L16.0327 7.99969L16.0471 7.97461L16.492 8.2288C16.4965 8.23142 16.4992 8.23629 16.4992 8.24115V8.42796C16.4992 8.4332 16.4965 8.43769 16.492 8.44031C16.4897 8.44218 16.4875 8.44293 16.4848 8.44293Z" fill="#010101"/>
<path d="M15.8844 8.09281L15.7362 8.00783C15.7316 8.00521 15.729 8.00034 15.729 7.99548V7.81803C15.729 7.81279 15.7316 7.8083 15.7362 7.80568C15.7407 7.80306 15.7464 7.80306 15.7506 7.80568L15.7725 7.81803L15.7581 7.82627V7.84311V7.98724L15.8991 8.0681L15.8844 8.09281Z" fill="#010101"/>
<path d="M16.0326 8.00012L15.7578 7.84289V7.80957L16.0474 7.97504L16.0326 8.00012Z" fill="#010101"/>
</svg>
