<svg width="77" height="78" viewBox="0 0 77 78" fill="none" xmlns="http://www.w3.org/2000/svg">
<rect x="34.4167" y="5.83887" width="30.5086" height="17.7851" rx="3.06135" transform="rotate(-10 34.4167 5.83887)" fill="#CCCCCC"/>
<rect x="40.4866" y="14.9292" width="30.5086" height="17.7851" rx="3.06135" transform="rotate(11.7477 40.4866 14.9292)" fill="#CCCCCC"/>
<rect x="26.5659" y="5.74487" width="30.5086" height="17.7851" rx="3.06135" transform="rotate(80.7801 26.5659 5.74487)" fill="#CCCCCC"/>
<rect x="35.6339" y="44.012" width="30.5086" height="17.7851" rx="3.06135" transform="rotate(6.89106 35.6339 44.012)" fill="#BCBBB6"/>
<rect x="13.8512" y="4.46411" width="53.3798" height="57.8967" fill="white" stroke="#CCCCCC" stroke-width="0.5"/>
<rect x="15.1329" y="5.74487" width="51.1246" height="51.7368" fill="#CCCCCC"/>
<g clip-path="url(#clip0_6870_2153)">
<path d="M43.8844 17.9236C43.8844 20.0168 44.726 22.0243 46.2241 23.5044C47.7222 24.9846 49.754 25.8161 51.8726 25.8161C53.9912 25.8161 56.023 24.9846 57.5211 23.5044C59.0192 22.0243 59.8608 20.0168 59.8608 17.9236C59.8608 15.8303 59.0192 13.8228 57.5211 12.3427C56.023 10.8625 53.9912 10.031 51.8726 10.031C49.754 10.031 47.7222 10.8625 46.2241 12.3427C44.726 13.8228 43.8844 15.8303 43.8844 17.9236ZM30.3843 30.719C30.6839 30.5706 31.0232 30.5192 31.3541 30.5719C31.6849 30.6246 31.9907 30.7787 32.228 31.0126L44.0825 45.8821L52.582 37.1309C52.8888 36.929 53.2569 36.8382 53.6238 36.8739C53.9907 36.9096 54.3338 37.0695 54.595 37.3266L66.245 51.0723V57.3863C66.245 58.2236 65.9083 59.0266 65.3091 59.6186C64.7099 60.2107 63.8972 60.5433 63.0497 60.5433H18.3157C17.8961 60.5433 17.4806 60.4617 17.0929 60.303C16.7053 60.1443 16.353 59.9118 16.0563 59.6186C15.7596 59.3255 15.5242 58.9775 15.3636 58.5944C15.2031 58.2114 15.1204 57.8009 15.1204 57.3863V43.1797L30.3843 30.719Z" fill="white"/>
</g>
<path d="M1.53172 70.7824H4.42772V69.8704H0.483719V75.3904H1.53172V73.1104H4.03572V72.1984H1.53172V70.7824ZM5.21184 74.9744C5.54784 75.3024 6.01184 75.4624 6.60384 75.4624C7.18784 75.4624 7.64384 75.3024 7.97984 74.9744C8.31584 74.6544 8.48384 74.1744 8.48384 73.5504V73.0544C8.48384 72.4464 8.31584 71.9744 7.97984 71.6464C7.64384 71.3264 7.18784 71.1584 6.60384 71.1584C6.01184 71.1584 5.54784 71.3264 5.21184 71.6464C4.87584 71.9664 4.70784 72.4384 4.70784 73.0544V73.5504C4.70784 74.1744 4.87584 74.6544 5.21184 74.9744ZM7.49984 73.5424C7.49984 74.2304 7.19584 74.5744 6.60384 74.5744C5.99584 74.5744 5.69184 74.2304 5.69184 73.5424V73.0704C5.69184 72.3824 5.99584 72.0384 6.60384 72.0384C6.89184 72.0384 7.10784 72.1264 7.26784 72.2944C7.41984 72.4624 7.49984 72.7184 7.49984 73.0704V73.5424ZM10.6034 71.9264H11.5474V71.2304H10.6034V70.0704L9.61941 70.4144V71.2304H8.89141V71.9264H9.61941V74.1104C9.61941 74.5264 9.73141 74.8384 9.95541 75.0624C10.1794 75.2864 10.4994 75.3904 10.9234 75.3904H11.4594V74.5504H11.1074C10.9234 74.5504 10.7954 74.5184 10.7154 74.4384C10.6354 74.3584 10.6034 74.2304 10.6034 74.0464V71.9264ZM12.6025 74.9744C12.9385 75.3024 13.4025 75.4624 13.9945 75.4624C14.5785 75.4624 15.0345 75.3024 15.3705 74.9744C15.7065 74.6544 15.8745 74.1744 15.8745 73.5504V73.0544C15.8745 72.4464 15.7065 71.9744 15.3705 71.6464C15.0345 71.3264 14.5785 71.1584 13.9945 71.1584C13.4025 71.1584 12.9385 71.3264 12.6025 71.6464C12.2665 71.9664 12.0985 72.4384 12.0985 73.0544V73.5504C12.0985 74.1744 12.2665 74.6544 12.6025 74.9744ZM14.8905 73.5424C14.8905 74.2304 14.5865 74.5744 13.9945 74.5744C13.3865 74.5744 13.0825 74.2304 13.0825 73.5424V73.0704C13.0825 72.3824 13.3865 72.0384 13.9945 72.0384C14.2825 72.0384 14.4985 72.1264 14.6585 72.2944C14.8105 72.4624 14.8905 72.7184 14.8905 73.0704V73.5424ZM22.7144 73.0384C22.5704 72.8304 22.3544 72.6624 22.0744 72.5504C22.3224 72.4384 22.5144 72.2864 22.6504 72.0864C22.7864 71.8864 22.8584 71.6624 22.8584 71.4064C22.8584 70.9104 22.6904 70.5344 22.3624 70.2704C22.0264 70.0064 21.5544 69.8704 20.9304 69.8704H18.5384V75.3904H21.0344C21.6424 75.3904 22.1144 75.2544 22.4424 74.9824C22.7704 74.7104 22.9384 74.3184 22.9384 73.8064C22.9384 73.5104 22.8584 73.2544 22.7144 73.0384ZM19.5864 70.7824H20.9784C21.5304 70.7824 21.8104 71.0144 21.8104 71.4704C21.8104 71.9104 21.5144 72.1264 20.9384 72.1264H19.5864V70.7824ZM21.8984 73.7344C21.8984 74.2304 21.6104 74.4784 21.0504 74.4784H19.5864V73.0384H21.0104C21.6024 73.0384 21.8984 73.2704 21.8984 73.7344ZM24.6528 73.5824H27.5088V73.1024C27.5088 72.4784 27.3328 71.9984 26.9968 71.6624C26.6528 71.3264 26.1808 71.1584 25.5888 71.1584C24.9888 71.1584 24.5168 71.3344 24.1808 71.6704C23.8368 72.0064 23.6688 72.4944 23.6688 73.1264V73.4864C23.6688 74.1344 23.8368 74.6224 24.1888 74.9584C24.5408 75.2944 25.0208 75.4624 25.6368 75.4624C26.1728 75.4624 26.6048 75.3424 26.9328 75.1024C27.2608 74.8624 27.4368 74.5344 27.4688 74.1344V74.0864H26.5008L26.4928 74.1104C26.4688 74.2704 26.3808 74.3904 26.2368 74.4704C26.0928 74.5584 25.9008 74.5984 25.6768 74.5984C24.9888 74.5984 24.6528 74.2704 24.6528 73.5984V73.5824ZM24.6528 72.9024C24.6848 72.3104 24.9968 72.0064 25.5888 72.0064C25.8688 72.0064 26.0928 72.0784 26.2608 72.2224C26.4288 72.3664 26.5168 72.5744 26.5168 72.8464V72.9024H24.6528ZM28.6391 75.0624C28.8631 75.2864 29.2151 75.3904 29.6871 75.3904H30.2391V74.5344H29.8631C29.6471 74.5344 29.4951 74.4944 29.4151 74.4144C29.3351 74.3344 29.2951 74.1904 29.2951 73.9824V69.8704H28.3031V74.0464C28.3031 74.5024 28.4151 74.8384 28.6391 75.0624ZM31.2593 75.0064C31.5713 75.3104 32.0353 75.4624 32.6513 75.4624C33.2593 75.4624 33.7233 75.3104 34.0353 75.0064C34.3473 74.7024 34.5073 74.2544 34.5073 73.6464V71.2304H33.5153V73.5984C33.5153 73.9264 33.4433 74.1744 33.3153 74.3344C33.1793 74.4944 32.9553 74.5744 32.6513 74.5744C32.3473 74.5744 32.1233 74.4944 31.9873 74.3264C31.8513 74.1664 31.7873 73.9184 31.7873 73.5984V71.2304H30.7953V73.6464C30.7953 74.2464 30.9473 74.7024 31.2593 75.0064ZM35.3734 71.2304V75.3904H36.3654V73.0384C36.3654 72.7264 36.4374 72.4864 36.5894 72.3184C36.7414 72.1504 36.9574 72.0624 37.2374 72.0624C37.4934 72.0624 37.6854 72.1424 37.8214 72.2864C37.9574 72.4384 38.0294 72.6624 38.0294 72.9584V75.3904H39.0214V73.0224C39.0214 72.7184 39.0934 72.4864 39.2454 72.3184C39.3974 72.1504 39.6134 72.0624 39.8854 72.0624C40.1414 72.0624 40.3414 72.1424 40.4774 72.3024C40.6134 72.4624 40.6854 72.6944 40.6854 72.9984V75.3904H41.6774V72.7984C41.6774 72.2944 41.5334 71.9024 41.2534 71.6144C40.9654 71.3264 40.5734 71.1824 40.0614 71.1824C39.5174 71.1824 39.0774 71.3744 38.7254 71.7424C38.5814 71.5584 38.4134 71.4224 38.2054 71.3264C37.9974 71.2304 37.7654 71.1824 37.5174 71.1824C37.2934 71.1824 37.0774 71.2304 36.8694 71.3104C36.6614 71.3984 36.4854 71.5184 36.3414 71.6784V71.2304H35.3734ZM48.3494 70.7824V69.8704H43.9894V70.7824H45.6454V75.3904H46.6934V70.7824H48.3494ZM49.2075 73.5824H52.0635V73.1024C52.0635 72.4784 51.8875 71.9984 51.5515 71.6624C51.2075 71.3264 50.7355 71.1584 50.1435 71.1584C49.5435 71.1584 49.0715 71.3344 48.7355 71.6704C48.3915 72.0064 48.2235 72.4944 48.2235 73.1264V73.4864C48.2235 74.1344 48.3915 74.6224 48.7435 74.9584C49.0955 75.2944 49.5755 75.4624 50.1915 75.4624C50.7275 75.4624 51.1595 75.3424 51.4875 75.1024C51.8155 74.8624 51.9915 74.5344 52.0235 74.1344V74.0864H51.0555L51.0475 74.1104C51.0235 74.2704 50.9355 74.3904 50.7915 74.4704C50.6475 74.5584 50.4555 74.5984 50.2315 74.5984C49.5435 74.5984 49.2075 74.2704 49.2075 73.5984V73.5824ZM49.2075 72.9024C49.2395 72.3104 49.5515 72.0064 50.1435 72.0064C50.4235 72.0064 50.6475 72.0784 50.8155 72.2224C50.9835 72.3664 51.0715 72.5744 51.0715 72.8464V72.9024H49.2075ZM52.8578 71.2304V75.3904H53.8498V73.0864C53.8498 72.7424 53.9298 72.4784 54.1058 72.2944C54.2818 72.1104 54.5218 72.0144 54.8418 72.0144C55.0498 72.0144 55.2498 72.0544 55.4338 72.1184V71.1744C55.3218 71.1584 55.1938 71.1424 55.0418 71.1424C54.7858 71.1424 54.5538 71.1904 54.3458 71.2864C54.1378 71.3824 53.9618 71.5184 53.8258 71.7024V71.2304H52.8578ZM56.3422 75.0944C56.6542 75.3264 57.0942 75.4384 57.6622 75.4384C58.2382 75.4384 58.6862 75.3264 59.0222 75.0944C59.3582 74.8704 59.5262 74.5344 59.5262 74.1024C59.5262 73.7584 59.4062 73.4864 59.1822 73.2864C58.9502 73.0864 58.5982 72.9584 58.1182 72.9024L57.4542 72.8224C57.2382 72.8064 57.0862 72.7584 56.9982 72.6864C56.9022 72.6224 56.8622 72.5264 56.8622 72.4064C56.8622 72.2624 56.9262 72.1584 57.0542 72.0784C57.1822 71.9984 57.3902 71.9584 57.6622 71.9584C57.9502 71.9584 58.1662 72.0064 58.3102 72.0864C58.4542 72.1744 58.5262 72.2944 58.5262 72.4544V72.4784H59.4462V72.4464C59.4462 72.0544 59.2862 71.7424 58.9742 71.5184C58.6542 71.2944 58.2222 71.1824 57.6702 71.1824C57.1262 71.1824 56.7022 71.2944 56.3982 71.5184C56.0862 71.7424 55.9342 72.0624 55.9342 72.4704C55.9342 72.8224 56.0382 73.0944 56.2622 73.2864C56.4862 73.4784 56.8302 73.5984 57.3022 73.6544L57.9182 73.7264C58.1502 73.7584 58.3182 73.8064 58.4222 73.8704C58.5262 73.9424 58.5822 74.0384 58.5822 74.1664C58.5822 74.3264 58.5022 74.4384 58.3582 74.5184C58.2142 74.5984 57.9982 74.6384 57.7182 74.6384C57.4142 74.6384 57.1822 74.5904 57.0302 74.4944C56.8702 74.3984 56.7982 74.2704 56.7982 74.1024V74.0864H55.8702V74.1104C55.8702 74.5344 56.0222 74.8624 56.3422 75.0944ZM61.1372 73.5824H63.9932V73.1024C63.9932 72.4784 63.8172 71.9984 63.4812 71.6624C63.1372 71.3264 62.6652 71.1584 62.0732 71.1584C61.4732 71.1584 61.0012 71.3344 60.6652 71.6704C60.3212 72.0064 60.1532 72.4944 60.1532 73.1264V73.4864C60.1532 74.1344 60.3212 74.6224 60.6732 74.9584C61.0252 75.2944 61.5052 75.4624 62.1212 75.4624C62.6572 75.4624 63.0892 75.3424 63.4172 75.1024C63.7452 74.8624 63.9212 74.5344 63.9532 74.1344V74.0864H62.9852L62.9772 74.1104C62.9532 74.2704 62.8652 74.3904 62.7212 74.4704C62.5772 74.5584 62.3852 74.5984 62.1612 74.5984C61.4732 74.5984 61.1372 74.2704 61.1372 73.5984V73.5824ZM61.1372 72.9024C61.1692 72.3104 61.4812 72.0064 62.0732 72.0064C62.3532 72.0064 62.5772 72.0784 62.7452 72.2224C62.9132 72.3664 63.0012 72.5744 63.0012 72.8464V72.9024H61.1372ZM65.1635 74.9744C65.4595 75.3024 65.8515 75.4624 66.3475 75.4624C66.8595 75.4624 67.2515 75.2944 67.5235 74.9424V75.3904H68.4915V69.8704H67.5075V71.6784C67.2115 71.3344 66.8195 71.1584 66.3315 71.1584C66.0115 71.1584 65.7315 71.2384 65.4915 71.3824C65.2515 71.5264 65.0595 71.7424 64.9235 72.0224C64.7875 72.3104 64.7235 72.6464 64.7235 73.0464V73.5664C64.7235 74.1824 64.8675 74.6544 65.1635 74.9744ZM67.2515 74.3104C67.0835 74.4864 66.8595 74.5744 66.5715 74.5744C66.2995 74.5744 66.0835 74.4944 65.9395 74.3184C65.7875 74.1424 65.7155 73.8784 65.7155 73.5264V73.0944C65.7155 72.7424 65.7875 72.4784 65.9395 72.3024C66.0915 72.1264 66.3075 72.0384 66.5955 72.0384C66.8835 72.0384 67.1075 72.1344 67.2675 72.3104C67.4275 72.4864 67.5075 72.7344 67.5075 73.0544V73.5824C67.5075 73.8944 67.4195 74.1344 67.2515 74.3104ZM69.3978 69.8464V70.6384H70.3818V69.8464H69.3978ZM69.3978 71.2304V75.3904H70.3818V71.2304H69.3978ZM74.3675 71.5824C74.0475 71.3184 73.5995 71.1824 73.0075 71.1824C72.4795 71.1824 72.0555 71.3024 71.7435 71.5264C71.4315 71.7504 71.2795 72.0624 71.2795 72.4544V72.4784H72.2235V72.4544C72.2235 72.3104 72.2795 72.1824 72.3995 72.0864C72.5195 71.9904 72.7115 71.9424 72.9835 71.9424C73.5675 71.9424 73.8635 72.1904 73.8635 72.6864V72.9344H72.7515C72.2315 72.9344 71.8315 73.0384 71.5595 73.2464C71.2875 73.4544 71.1515 73.7584 71.1515 74.1504C71.1515 74.5664 71.2795 74.8784 71.5355 75.1024C71.7915 75.3264 72.1755 75.4384 72.6795 75.4384C72.9435 75.4384 73.1675 75.4064 73.3595 75.3424C73.5435 75.2784 73.7195 75.1664 73.8875 75.0064V75.3904H74.8475V72.7344C74.8475 72.2384 74.6875 71.8544 74.3675 71.5824ZM73.8635 73.8704C73.8635 74.3904 73.5355 74.6464 72.8955 74.6464C72.6315 74.6464 72.4315 74.6064 72.3035 74.5104C72.1755 74.4224 72.1115 74.2944 72.1115 74.1264C72.1115 73.9504 72.1755 73.8224 72.3115 73.7424C72.4395 73.6624 72.6475 73.6144 72.9355 73.6144H73.8635V73.8704Z" fill="#838383"/>
<defs>
<clipPath id="clip0_6870_2153">
<rect width="51.1246" height="50.5123" fill="white" transform="matrix(-1 0 0 1 66.2567 10.0308)"/>
</clipPath>
</defs>
</svg>
