<svg width="41" height="41" viewBox="0 0 41 41" fill="none" xmlns="http://www.w3.org/2000/svg">
<path d="M20.5 38.625C30.5102 38.625 38.625 30.5102 38.625 20.5C38.625 10.4898 30.5102 2.375 20.5 2.375C10.4898 2.375 2.375 10.4898 2.375 20.5C2.375 30.5102 10.4898 38.625 20.5 38.625Z" fill="#CFDFE8"/>
<path d="M33.625 20.5C33.7449 18.5712 34.1667 16.6731 34.875 14.875L30.5 18C29.3075 14.495 24.6631 13 18.625 13C9.25 13 4.875 20.5 4.875 20.5C4.875 20.5 9.875 28 18.625 28C24.6631 28 29.3075 26.505 30.5 23L34.875 26.125C34.1667 24.3269 33.7449 22.4288 33.625 20.5Z" fill="#7D8D9C"/>
<path d="M29.875 29.875H28.625C27.6304 29.875 26.6766 29.4799 25.9733 28.7767C25.2701 28.0734 24.875 27.1196 24.875 26.125V24.875H26.125C27.1196 24.875 28.0734 25.2701 28.7767 25.9733C29.4799 26.6766 29.875 27.6304 29.875 28.625V29.875Z" fill="#E1462B"/>
<path d="M16.75 15.5H15.5C14.5054 15.5 13.5516 15.1049 12.8483 14.4017C12.1451 13.6984 11.75 12.7446 11.75 11.75V10.5H13C13.9946 10.5 14.9484 10.8951 15.6517 11.5983C16.3549 12.3016 16.75 13.2554 16.75 14.25V15.5Z" fill="#E1462B"/>
<path d="M6.75012 14.4998L5.60449 13.9998C7.05197 10.7037 9.54595 7.97687 12.7001 6.2417L13.3001 7.33732C10.3887 8.93977 8.08661 11.4571 6.75012 14.4998Z" fill="#8CAFBF"/>
<path d="M12.9997 23.6167C12.3399 24.2347 11.8084 24.9767 11.4357 25.8004C11.063 26.624 10.8563 27.5131 10.8277 28.4167C10.799 29.3203 10.9488 30.2207 11.2686 31.0663C11.5883 31.9119 12.0717 32.6862 12.6911 33.3447C13.3104 34.0033 14.0536 34.5332 14.878 34.9042C15.7025 35.2752 16.592 35.4799 17.4956 35.5067C18.3993 35.5335 19.2994 35.3818 20.1443 35.0602C20.9893 34.7387 21.7625 34.2537 22.4197 33.6329L20.7072 31.8123C20.2887 32.206 19.7966 32.5133 19.2593 32.7168C18.7219 32.9203 18.1497 33.0159 17.5754 32.9983C17.0011 32.9806 16.4358 32.85 15.912 32.614C15.3881 32.3779 14.9159 32.0409 14.5223 31.6223C14.1286 31.2037 13.8213 30.7117 13.6178 30.1743C13.4143 29.637 13.3187 29.0648 13.3363 28.4905C13.3539 27.9161 13.4845 27.3509 13.7206 26.8271C13.9567 26.3032 14.2937 25.831 14.7122 25.4373L12.9997 23.6167Z" fill="#8EC13F"/>
<path d="M14.713 25.4375C13.8676 26.2325 13.3727 27.3307 13.337 28.4906C13.3014 29.6506 13.728 30.7771 14.523 31.6225C15.318 32.4679 16.4162 32.9628 17.5761 32.9985C18.736 33.0341 19.8626 32.6075 20.708 31.8125L14.713 25.4375Z" fill="#FCF05A"/>
<path d="M14.5234 31.625C13.9317 30.9961 13.5401 30.2056 13.3984 29.3538L17.7103 28.625L16.7216 32.8863C15.88 32.693 15.1149 32.254 14.5234 31.625Z" fill="#E8D734"/>
<path d="M21.119 4.875C19.7969 6.12573 19.0247 7.84962 18.9717 9.66876C18.9186 11.4879 19.589 13.2539 20.8359 14.5795C22.0828 15.9052 23.8045 16.6823 25.6235 16.7407C27.4424 16.799 29.2103 16.1337 30.5396 14.8906L28.8271 13.07C27.9817 13.865 26.8551 14.2916 25.6952 14.256C24.5353 14.2203 23.4371 13.7254 22.6421 12.88C21.8471 12.0346 21.4205 10.9081 21.4561 9.74815C21.4918 8.58824 21.9867 7.48999 22.8321 6.695L21.119 4.875Z" fill="#8EC13F"/>
<path d="M22.8321 6.69629C22.4135 7.08993 22.0766 7.56216 21.8405 8.08602C21.6044 8.60988 21.4738 9.17511 21.4562 9.74944C21.4385 10.3238 21.5342 10.896 21.7377 11.4333C21.9411 11.9707 22.2485 12.4627 22.6421 12.8813C23.0358 13.2999 23.508 13.6368 24.0318 13.8729C24.5557 14.109 25.1209 14.2396 25.6953 14.2572C26.2696 14.2749 26.8418 14.1792 27.3791 13.9757C27.9165 13.7723 28.4085 13.4649 28.8271 13.0713L22.8321 6.69629Z" fill="#FCF05A"/>
<path d="M22.6426 12.8808C22.0509 12.2518 21.6594 11.4613 21.5176 10.6096L25.8301 9.8833L24.8413 14.1446C23.9993 13.9507 23.2339 13.5108 22.6426 12.8808Z" fill="#E8D734"/>
<path d="M15.317 23.4419L14.4326 22.5587C15.0019 22.0061 15.3765 21.2837 15.5001 20.5C15.3765 19.7163 15.0019 18.9939 14.4326 18.4412L15.317 17.5581C15.4639 17.7044 16.7501 19.0331 16.7501 20.5C16.7501 21.9669 15.4639 23.2956 15.317 23.4419Z" fill="#ECECEC"/>
<path d="M25.942 23.4419L25.0576 22.5587C25.6269 22.0061 26.0015 21.2837 26.1251 20.5C26.0015 19.7163 25.6269 18.9939 25.0576 18.4412L25.942 17.5581C26.0889 17.7044 27.3751 19.0331 27.3751 20.5C27.3751 21.9669 26.0889 23.2956 25.942 23.4419Z" fill="#ECECEC"/>
<path d="M18.5201 24.5971L17.4795 23.9039C18.1379 22.882 18.5316 21.7123 18.6251 20.5002C18.5335 19.288 18.1398 18.1181 17.4801 17.0971L18.5201 16.4033C19.3165 17.6297 19.7832 19.0408 19.8751 20.5002C19.7832 21.9596 19.3165 23.3707 18.5201 24.5971Z" fill="#ECECEC"/>
<path d="M22.2701 24.5971L21.2295 23.9039C21.8879 22.882 22.2816 21.7123 22.3751 20.5002C22.2835 19.288 21.8898 18.1181 21.2301 17.0971L22.2701 16.4033C23.0665 17.6297 23.5332 19.0408 23.6251 20.5002C23.5332 21.9596 23.0665 23.3707 22.2701 24.5971Z" fill="#ECECEC"/>
<path d="M9.25 18.625H10.5V19.875H9.25V18.625Z" fill="#394D5C"/>
<path d="M27.375 32.375H28.625V33.625H27.375V32.375Z" fill="#8CAFBF"/>
<path d="M24.875 34.25H26.125V35.5H24.875V34.25Z" fill="#8CAFBF"/>
</svg>
