<svg width="31" height="31" viewBox="0 0 31 31" fill="none" xmlns="http://www.w3.org/2000/svg">
<path d="M13.2609 17.6414L20.8287 9.94095C21.0639 9.70167 21.3632 9.58203 21.7266 9.58203C22.0901 9.58203 22.3893 9.70167 22.6245 9.94095C22.8597 10.1802 22.9772 10.4848 22.9772 10.8546C22.9772 11.2244 22.8597 11.5289 22.6245 11.7682L14.1588 20.3822C13.9022 20.6433 13.6029 20.7738 13.2609 20.7738C12.9188 20.7738 12.6196 20.6433 12.363 20.3822L9.02803 16.9888C8.79287 16.7495 8.67529 16.445 8.67529 16.0752C8.67529 15.7054 8.79287 15.4009 9.02803 15.1616C9.26319 14.9223 9.56248 14.8027 9.92591 14.8027C10.2893 14.8027 10.5886 14.9223 10.8238 15.1616L13.2609 17.6414Z" fill="#3DD2A3"/>
<circle cx="15.8276" cy="15.1777" r="14.25" stroke="#3DD2A3" stroke-width="1.5"/>
</svg>
