<svg width="269" height="245" viewBox="0 0 269 245" fill="none" xmlns="http://www.w3.org/2000/svg">
<g clip-path="url(#clip0_7386_9423)">
<path d="M66.2985 233.327C80.4478 248.262 115.186 242.794 130.234 233.327C179.074 202.6 264.677 151.446 268.557 77.3419C270.205 45.8415 242.428 29.3059 230.827 24.4556C202.96 12.8003 172.383 9.30494 142.207 7.95596C110.689 6.54702 76.8805 7.64419 48.4918 23.0226C37.7419 28.8503 27.5975 36.3147 20.6487 46.513C13.592 56.8732 9.53909 69.206 8.4599 81.6586C6.7212 101.744 12.1291 121.882 20.301 140.313C28.4729 158.743 39.3667 175.806 49.3732 193.313C55.8963 204.74 54.3794 220.742 66.2985 233.327Z" fill="#FFC535"/>
<path opacity="0.7" d="M66.2985 233.327C80.4478 248.262 115.186 242.794 130.234 233.327C179.074 202.6 264.677 151.446 268.557 77.3419C270.205 45.8415 242.428 29.3059 230.827 24.4556C202.96 12.8003 172.383 9.30494 142.207 7.95596C110.689 6.54702 76.8805 7.64419 48.4918 23.0226C37.7419 28.8503 27.5975 36.3147 20.6487 46.513C13.592 56.8732 9.53909 69.206 8.4599 81.6586C6.7212 101.744 12.1291 121.882 20.301 140.313C28.4729 158.743 39.3667 175.806 49.3732 193.313C55.8963 204.74 54.3794 220.742 66.2985 233.327Z" fill="white"/>
<path d="M65.213 81.9462L36.5546 73.2647C35.4394 72.9289 34.8159 71.7538 35.1516 70.6387L40.2658 53.7613C40.6015 52.6462 41.7766 52.0226 42.8918 52.3584L71.5503 61.0399C72.6654 61.3756 73.289 62.5507 72.9532 63.6659L67.8391 80.5432C67.5033 81.6584 66.3282 82.2879 65.213 81.9462Z" stroke="#263238" stroke-width="0.59955" stroke-miterlimit="10"/>
<path d="M39.4023 56.6211L72.0898 66.5257" stroke="#263238" stroke-width="0.59955" stroke-miterlimit="10"/>
<path d="M38.4072 59.9004L71.0947 69.8049" stroke="#263238" stroke-width="0.59955" stroke-miterlimit="10"/>
<path d="M61.1482 75.9379C60.9743 76.5195 61.0583 77.1131 61.3341 77.6047C60.8664 77.8385 60.3028 77.8985 59.7572 77.7366C58.6301 77.3949 57.9946 76.2137 58.3363 75.0866C58.6781 73.9594 59.8652 73.3239 60.9923 73.6657C61.5379 73.8335 61.9696 74.1992 62.2274 74.6549C61.7238 74.9127 61.3281 75.3624 61.1482 75.9379Z" stroke="#263238" stroke-width="0.59955" stroke-miterlimit="10"/>
<path d="M65.219 77.1733C64.8773 78.2945 63.6902 78.93 62.569 78.5943C61.4479 78.2525 60.8123 77.0654 61.1481 75.9443C61.4898 74.8231 62.6769 74.1876 63.7981 74.5233C64.9252 74.8591 65.5608 76.0462 65.219 77.1733Z" stroke="#263238" stroke-width="0.59955" stroke-miterlimit="10"/>
<path d="M261.817 119.91L238.045 112.709C236.93 112.374 236.307 111.198 236.642 110.083L240.809 96.3356C241.145 95.2204 242.32 94.5969 243.435 94.9326L267.207 102.133C268.323 102.469 268.946 103.644 268.61 104.759L264.443 118.507C264.108 119.622 262.933 120.246 261.817 119.91Z" stroke="#263238" stroke-width="0.59955" stroke-miterlimit="10"/>
<path d="M240.168 98.458L267.969 106.882" stroke="#263238" stroke-width="0.59955" stroke-miterlimit="10"/>
<path d="M239.322 101.252L267.117 109.676" stroke="#263238" stroke-width="0.59955" stroke-miterlimit="10"/>
<path d="M258.664 114.892C258.514 115.383 258.586 115.893 258.82 116.306C258.424 116.504 257.944 116.558 257.483 116.42C256.523 116.133 255.984 115.125 256.271 114.166C256.559 113.207 257.572 112.667 258.526 112.961C258.987 113.099 259.359 113.417 259.575 113.8C259.155 114.016 258.814 114.4 258.664 114.892Z" stroke="#263238" stroke-width="0.59955" stroke-miterlimit="10"/>
<path d="M262.123 115.941C261.835 116.894 260.822 117.434 259.869 117.146C258.915 116.858 258.376 115.845 258.664 114.892C258.951 113.939 259.965 113.399 260.918 113.687C261.877 113.975 262.417 114.982 262.123 115.941Z" stroke="#263238" stroke-width="0.59955" stroke-miterlimit="10"/>
<path d="M229.154 36.4615L194.452 52.3506L202.718 70.4047L237.42 54.5156L229.154 36.4615Z" stroke="#263238" stroke-width="0.59955" stroke-miterlimit="10"/>
<path d="M234.442 51.8964L229.19 40.427C228.171 40.8947 226.96 40.445 226.492 39.4258L198.439 52.2681C198.907 53.2874 198.457 54.4985 197.438 54.9661L202.69 66.4355C203.709 65.9678 204.92 66.4175 205.388 67.4367L233.441 54.5944C232.967 53.5692 233.417 52.3641 234.442 51.8964Z" stroke="#263238" stroke-width="0.59955" stroke-miterlimit="10"/>
<path d="M219.113 57.5648C221.398 55.8098 221.827 52.5353 220.072 50.2508C218.317 47.9664 215.043 47.5371 212.758 49.2921C210.474 51.047 210.045 54.3216 211.799 56.6061C213.554 58.8905 216.829 59.3197 219.113 57.5648Z" stroke="#263238" stroke-width="0.59955" stroke-miterlimit="10"/>
<path d="M217.355 55.9611L217.744 56.8125L217.373 56.9803L216.983 56.135C216.24 56.4288 215.436 56.4767 214.903 56.2729L214.927 55.7513C215.418 55.9311 216.126 55.9071 216.767 55.6613L215.874 53.7128C214.968 53.8867 214.021 54.0126 213.572 53.0353C213.248 52.3218 213.476 51.4765 214.567 50.8649L214.177 50.0136L214.549 49.8457L214.938 50.6911C215.502 50.4572 216.138 50.3673 216.653 50.4632L216.665 50.9848C216.126 50.9069 215.592 50.9848 215.148 51.1587L216.048 53.1252C216.977 52.9394 217.966 52.7775 218.422 53.7668C218.758 54.4862 218.5 55.3556 217.355 55.9611ZM215.64 53.1972L214.789 51.3446C214.057 51.7583 213.895 52.3099 214.111 52.7775C214.369 53.3411 214.962 53.3171 215.64 53.1972ZM217.9 54.0426C217.63 53.455 217.001 53.503 216.293 53.6409L217.145 55.4935C217.93 55.0618 218.116 54.5162 217.9 54.0426Z" fill="#263238"/>
<path d="M36.8992 118.382L10.312 120.68L11.507 134.508L38.0943 132.21L36.8992 118.382Z" stroke="#263238" stroke-width="0.59955" stroke-miterlimit="10"/>
<path d="M36.7463 129.779L35.9849 120.995C35.1995 121.061 34.51 120.486 34.444 119.7L12.9562 121.559C13.0221 122.344 12.4465 123.034 11.6611 123.1L12.4226 131.883C13.208 131.817 13.8975 132.393 13.9634 133.178L35.4513 131.319C35.3853 130.54 35.9669 129.851 36.7463 129.779Z" stroke="#263238" stroke-width="0.59955" stroke-miterlimit="10"/>
<path d="M27.8432 126.127C28.0171 128.136 26.5302 129.904 24.5217 130.078C22.5132 130.252 20.7446 128.765 20.5707 126.757C20.3968 124.748 21.8837 122.98 23.8922 122.806C25.9007 122.632 27.6694 124.119 27.8432 126.127Z" stroke="#263238" stroke-width="0.59955" stroke-miterlimit="10"/>
<path d="M24.5456 128.441L24.5996 129.095L24.3178 129.119L24.2638 128.471C23.7062 128.489 23.1666 128.333 22.8609 128.07L22.9988 127.734C23.2805 127.968 23.7542 128.118 24.2338 128.106L24.1019 126.613C23.4664 126.511 22.8129 126.373 22.7469 125.624C22.699 125.078 23.0527 124.574 23.9161 124.43L23.8621 123.777L24.1439 123.753L24.1979 124.4C24.6235 124.382 25.0612 124.466 25.379 124.652L25.2651 125C24.9293 124.826 24.5576 124.748 24.2278 124.76L24.3597 126.265C25.0132 126.361 25.7087 126.487 25.7687 127.248C25.8166 127.8 25.4389 128.31 24.5456 128.441ZM24.066 126.217L23.946 124.796C23.3645 124.898 23.1307 125.222 23.1606 125.582C23.1966 126.013 23.5863 126.139 24.066 126.217ZM25.355 127.308C25.319 126.859 24.8873 126.745 24.3897 126.667L24.5096 128.088C25.1332 127.986 25.385 127.668 25.355 127.308Z" fill="#263238"/>
<path d="M253.532 44.5523C256.412 44.5523 258.748 42.217 258.748 39.3362C258.748 36.4554 256.412 34.1201 253.532 34.1201C250.651 34.1201 248.315 36.4554 248.315 39.3362C248.315 42.217 250.651 44.5523 253.532 44.5523Z" stroke="#263238" stroke-width="0.59955" stroke-miterlimit="10"/>
<path d="M253.765 42.2318V43.1671H253.357V42.2378C252.56 42.1959 251.811 41.9021 251.409 41.4944L251.643 41.0327C252.02 41.3985 252.668 41.6742 253.357 41.7162V39.5698C252.458 39.348 251.547 39.0722 251.547 37.999C251.547 37.2136 252.11 36.5421 253.357 36.4402V35.5049H253.765V36.4342C254.377 36.4582 254.988 36.638 255.42 36.9378L255.216 37.4174C254.76 37.1237 254.239 36.9678 253.765 36.9438V39.1022C254.688 39.324 255.654 39.5818 255.654 40.673C255.654 41.4764 255.06 42.1599 253.765 42.2318ZM253.357 39.0063V36.9678C252.518 37.0397 252.14 37.4714 252.14 37.987C252.14 38.6046 252.686 38.8324 253.357 39.0063ZM255.06 40.715C255.06 40.0735 254.467 39.8516 253.765 39.6777V41.7162C254.659 41.6503 255.06 41.2366 255.06 40.715Z" fill="#263238"/>
<path d="M219.174 109.105C221.978 108.444 223.715 105.635 223.054 102.831C222.393 100.027 219.585 98.29 216.781 98.9509C213.977 99.6117 212.24 102.42 212.9 105.224C213.561 108.028 216.37 109.765 219.174 109.105Z" stroke="#263238" stroke-width="0.59955" stroke-miterlimit="10"/>
<path d="M216.671 106.623L216.179 107.421L215.832 107.205L216.317 106.413C215.658 105.958 215.172 105.316 215.046 104.759L215.49 104.489C215.616 104.999 216.029 105.574 216.587 105.97L217.708 104.141C217.061 103.482 216.425 102.768 216.989 101.851C217.396 101.185 218.23 100.904 219.345 101.473L219.837 100.676L220.184 100.892L219.699 101.683C220.208 102.025 220.634 102.498 220.844 102.978L220.418 103.284C220.184 102.792 219.819 102.39 219.429 102.121L218.296 103.961C218.967 104.633 219.657 105.364 219.081 106.294C218.673 106.965 217.81 107.235 216.671 106.623ZM218.014 103.656L219.081 101.917C218.326 101.539 217.78 101.713 217.51 102.151C217.187 102.684 217.528 103.164 218.014 103.656ZM218.565 106.006C218.901 105.46 218.512 104.957 218.002 104.447L216.935 106.186C217.732 106.599 218.29 106.455 218.565 106.006Z" fill="#263238"/>
<path d="M143.125 3.35144C144.324 5.97147 143.167 9.07114 140.547 10.2642C137.927 11.4633 134.827 10.3062 133.634 7.68618C132.435 5.06615 133.592 1.96648 136.212 0.773374C138.832 -0.425725 141.931 0.731406 143.125 3.35144Z" stroke="#263238" stroke-width="0.59955" stroke-miterlimit="10"/>
<path d="M139.797 8.05193L140.187 8.90329L139.815 9.07116L139.431 8.2258C138.688 8.51958 137.884 8.56754 137.351 8.3637L137.375 7.84209C137.867 8.02195 138.574 8.00397 139.215 7.75216L138.322 5.80362C137.417 5.97749 136.47 6.10339 136.02 5.12613C135.696 4.41266 135.924 3.5673 137.021 2.95576L136.631 2.1044L137.003 1.93652L137.387 2.78189C137.95 2.54806 138.586 2.45813 139.102 2.55406L139.114 3.07567C138.574 2.99773 138.04 3.07567 137.597 3.24954L138.496 5.21606C139.425 5.0362 140.415 4.86832 140.87 5.86357C141.2 6.57704 140.942 7.44639 139.797 8.05193ZM138.082 5.28801L137.237 3.4354C136.506 3.84909 136.344 4.40067 136.553 4.86832C136.811 5.4319 137.405 5.40792 138.082 5.28801ZM140.343 6.13937C140.073 5.55181 139.443 5.59977 138.736 5.73767L139.581 7.59028C140.367 7.15261 140.558 6.61301 140.343 6.13937Z" fill="#263238"/>
<path d="M125.558 214.597C127.356 218.536 125.624 223.182 121.685 224.981C117.746 226.78 113.099 225.047 111.301 221.108C109.502 217.169 111.235 212.522 115.174 210.724C119.113 208.931 123.759 210.664 125.558 214.597Z" stroke="#263238" stroke-width="0.59955" stroke-miterlimit="10"/>
<path d="M120.551 221.66L121.139 222.943L120.581 223.194L120 221.923C118.885 222.367 117.674 222.433 116.876 222.127L116.912 221.348C117.656 221.618 118.717 221.588 119.676 221.216L118.339 218.29C116.978 218.548 115.557 218.74 114.886 217.271C114.4 216.204 114.742 214.927 116.385 214.015L115.797 212.732L116.355 212.48L116.936 213.752C117.788 213.404 118.735 213.266 119.514 213.41L119.538 214.195C118.729 214.081 117.919 214.195 117.26 214.453L118.609 217.403C120.006 217.127 121.493 216.881 122.176 218.374C122.662 219.447 122.278 220.754 120.551 221.66ZM117.985 217.505L116.714 214.723C115.611 215.346 115.371 216.174 115.689 216.875C116.073 217.721 116.96 217.691 117.985 217.505ZM121.379 218.782C120.977 217.9 120.03 217.972 118.963 218.176L120.234 220.958C121.415 220.311 121.703 219.495 121.379 218.782Z" fill="#263238"/>
<path d="M13.31 92.8279C10.0604 95.6817 5.10813 95.364 2.25427 92.1144C-0.599583 88.8649 -0.281822 83.9126 2.96774 81.0587C6.2173 78.2049 11.1696 78.5226 14.0234 81.7722C16.8773 85.0217 16.5595 89.968 13.31 92.8279Z" stroke="#263238" stroke-width="0.59955" stroke-miterlimit="10"/>
<path d="M5.1024 90.0701L4.04719 90.9994L3.64549 90.5377L4.6947 89.6144C3.95126 88.6731 3.53757 87.534 3.59753 86.6826L4.35895 86.4907C4.31699 87.2762 4.65273 88.2894 5.28226 89.0988L7.69845 86.9764C7.05693 85.7473 6.46337 84.4403 7.68046 83.3731C8.5618 82.5997 9.8868 82.5637 11.2298 83.8707L12.285 82.9414L12.6867 83.4031L11.6375 84.3264C12.2131 85.0398 12.6208 85.9092 12.7047 86.6946L11.9612 86.9404C11.8413 86.137 11.4996 85.3936 11.0559 84.836L8.62175 86.9764C9.28725 88.2354 9.95275 89.5844 8.72368 90.6696C7.83035 91.455 6.46937 91.461 5.1024 90.0701ZM8.33996 86.4128L10.6362 84.3923C9.71893 83.517 8.86157 83.523 8.28001 84.0326C7.58453 84.6441 7.87232 85.4895 8.33996 86.4128ZM8.09415 90.0281C8.8196 89.3926 8.47786 88.4992 7.98023 87.54L5.68396 89.5604C6.64324 90.5077 7.50659 90.5437 8.09415 90.0281Z" fill="#263238"/>
<path d="M48.8161 158.885C48.8905 156.797 47.258 155.044 45.1699 154.969C43.0818 154.895 41.3287 156.527 41.2543 158.616C41.1799 160.704 42.8124 162.457 44.9005 162.531C46.9886 162.606 48.7417 160.973 48.8161 158.885Z" stroke="#263238" stroke-width="0.59955" stroke-miterlimit="10"/>
<path d="M46.5012 160.248L46.9389 160.77L46.7111 160.961L46.2794 160.446C45.8177 160.794 45.2601 160.979 44.8524 160.937L44.7685 160.572C45.1462 160.602 45.6379 160.452 46.0396 160.158L45.0443 158.965C44.4448 159.259 43.8032 159.529 43.3056 158.929C42.9399 158.491 42.9399 157.856 43.5934 157.22L43.1557 156.699L43.3836 156.507L43.8152 157.022C44.169 156.753 44.5887 156.567 44.9724 156.537L45.0803 156.897C44.6906 156.945 44.3248 157.1 44.0551 157.304L45.0563 158.509C45.6738 158.204 46.3333 157.898 46.843 158.509C47.2027 158.947 47.1907 159.607 46.5012 160.248ZM44.7745 158.635L43.8272 157.502C43.3955 157.934 43.3836 158.347 43.6234 158.635C43.9112 158.977 44.3248 158.851 44.7745 158.635ZM46.5192 158.803C46.2194 158.443 45.7877 158.599 45.3141 158.827L46.2614 159.96C46.729 159.511 46.759 159.091 46.5192 158.803Z" fill="#263238"/>
<path d="M165.553 234.285C166.89 235.892 166.675 238.278 165.068 239.615C163.461 240.952 161.075 240.736 159.738 239.13C158.401 237.523 158.617 235.137 160.223 233.8C161.824 232.463 164.21 232.678 165.553 234.285Z" stroke="#263238" stroke-width="0.59955" stroke-miterlimit="10"/>
<path d="M164.115 238.212L164.552 238.734L164.325 238.925L163.893 238.41C163.431 238.757 162.874 238.943 162.466 238.901L162.382 238.536C162.76 238.566 163.251 238.416 163.653 238.122L162.658 236.929C162.058 237.223 161.417 237.492 160.919 236.893C160.553 236.455 160.553 235.82 161.207 235.184L160.769 234.663L160.997 234.471L161.429 234.986C161.782 234.717 162.202 234.531 162.586 234.501L162.694 234.86C162.304 234.908 161.938 235.064 161.669 235.268L162.67 236.473C163.287 236.167 163.947 235.862 164.456 236.473C164.816 236.911 164.804 237.57 164.115 238.212ZM162.394 236.599L161.447 235.466C161.015 235.898 161.003 236.311 161.243 236.599C161.531 236.941 161.938 236.815 162.394 236.599ZM164.133 236.767C163.833 236.407 163.401 236.563 162.928 236.791L163.875 237.924C164.349 237.474 164.379 237.055 164.133 236.767Z" fill="#263238"/>
<path d="M62.0146 18.7583C62.2056 16.6777 60.6737 14.8362 58.5931 14.6452C56.5125 14.4543 54.671 15.9861 54.4801 18.0667C54.2891 20.1473 55.8209 21.9888 57.9015 22.1798C59.9822 22.3707 61.8236 20.8389 62.0146 18.7583Z" stroke="#263238" stroke-width="0.59955" stroke-miterlimit="10"/>
<path d="M59.7209 19.917L60.1586 20.4386L59.9308 20.6304L59.4991 20.1148C59.0375 20.4626 58.4799 20.6484 58.0722 20.6065L57.9882 20.2407C58.366 20.2707 58.8576 20.1208 59.2593 19.827L58.264 18.6339C57.6645 18.9277 57.023 19.1975 56.5253 18.598C56.1596 18.1603 56.1596 17.5248 56.8131 16.8892L56.3755 16.3676L56.6033 16.1758L57.035 16.6914C57.3887 16.4216 57.8084 16.2357 58.1921 16.2058L58.3 16.5655C57.9103 16.6135 57.5446 16.7693 57.2748 16.9732L58.276 18.1783C58.8936 17.8725 59.5531 17.5667 60.0627 18.1783C60.4224 18.6159 60.4044 19.2755 59.7209 19.917ZM57.9942 18.3042L57.0469 17.171C56.6153 17.6027 56.6033 18.0164 56.8431 18.3042C57.1309 18.6459 57.5386 18.52 57.9942 18.3042ZM59.7389 18.4721C59.4392 18.1123 59.0075 18.2682 58.5338 18.496L59.4811 19.6292C59.9488 19.1795 59.9787 18.7598 59.7389 18.4721Z" fill="#263238"/>
<path opacity="0.2" d="M143.502 173.515C143.502 173.515 138.88 196.982 110.527 202.27C110.527 202.27 103.123 208.175 100.659 211.671C98.1944 215.166 85.0463 221.108 71.7003 239.646C58.3543 258.184 38.4253 199.314 38.4253 199.314L82.4203 142.171L143.502 173.515Z" fill="black" fill-opacity="0.7"/>
<path d="M168.701 63.3602C168.701 63.3602 183.99 55.8898 187.353 57.1788C190.717 58.4678 193.93 66.202 181.082 73.6065C168.24 81.0109 172.059 94.8065 172.059 94.8065H181.232C181.232 94.8065 186.736 97.0489 188.876 99.9267C191.017 102.805 192.545 112.643 193.769 115.983C194.992 119.322 194.38 122.656 191.017 123.741C191.017 123.741 188.876 133.07 189.488 137.207C190.099 141.344 189.794 144.006 185.819 144.509C181.843 145.013 177.868 141.637 178.174 137.207L175.117 148.286L177.257 152.543C177.257 152.543 181.232 153.874 185.513 157.543C189.794 161.213 194.074 162.214 192.851 166.303C191.628 170.392 189.182 174.798 176.34 169.69C163.497 164.582 152.795 144.509 152.795 144.509L145.079 74.5178L168.701 63.3602Z" fill="white"/>
<path opacity="0.4" d="M184.793 103.566C177.862 113.015 185.53 123.896 185.53 123.896C185.53 123.896 180.734 126.57 180.596 133.393C180.542 136.229 181.256 140.192 182.107 143.861C179.727 142.704 177.97 140.192 178.186 137.194L175.122 148.274L177.263 152.531C177.263 152.531 180.105 153.484 183.57 155.996C181.669 160.361 181.088 165.757 181.262 171.321C179.823 170.949 178.192 170.416 176.351 169.678C163.503 164.564 152.807 144.497 152.807 144.497L145.091 74.5055L168.707 63.3539C168.707 63.3539 177.059 59.271 182.779 57.6582C182.335 63.0122 183.39 68.54 184.133 71.6277C183.24 72.2872 182.227 72.9467 181.094 73.6002C168.245 80.9987 172.071 94.8003 172.071 94.8003H181.25C181.25 94.8003 186.484 96.9287 188.72 99.7106C187.449 100.52 186.124 101.755 184.793 103.566Z" fill="#FFC535"/>
<path d="M144.785 162.22C144.785 162.22 128.154 194.829 98.1703 202.228C98.1703 202.228 97.0251 208.679 91.9529 211.449C89.243 212.924 78.3132 229.316 68.7084 244.268L15.5703 211.671C18.8439 208.433 22.5731 204.704 26.3862 200.813C37.4779 189.505 49.307 176.801 52.9343 170.56C56.1718 164.984 60.2667 155.307 63.8341 146.212C68.4026 134.581 72.1198 123.897 72.1198 123.897L89.8425 104.196L117.71 73.2168L118.915 77.1798L144.785 162.22Z" fill="white"/>
<path opacity="0.4" d="M117.71 73.2168L144.785 162.22C144.785 162.22 128.154 194.829 98.1702 202.228C98.1702 202.228 97.0251 208.679 91.9529 211.449C89.5247 212.774 80.4655 226.114 71.6941 239.646C74.9437 228.494 84.3566 210.718 84.3566 210.718C78.3191 203.565 80.0758 196.029 82.492 198.175C84.8302 200.261 90.9816 206.347 91.3713 206.731C88.7033 203.589 88.0858 198.667 88.0858 198.667C88.0858 198.667 95.5682 203.643 96.1737 195.645C96.7793 187.653 91.6891 168.185 91.6891 168.185L78.3551 116.966L117.71 73.2168Z" fill="#FFC535"/>
<path d="M145.085 74.5118L168.701 63.3602C168.701 63.3602 183.99 55.8898 187.353 57.1788C190.717 58.4678 193.93 66.202 181.082 73.6065C168.24 81.0109 172.059 94.8065 172.059 94.8065H181.232C181.232 94.8065 186.736 97.0489 188.876 99.9267C191.016 102.805 192.545 112.643 193.768 115.983C194.991 119.322 194.38 122.656 191.016 123.741C191.016 123.741 188.876 133.07 189.488 137.207C190.099 141.344 189.793 144.006 185.818 144.509C181.843 145.013 177.868 141.637 178.174 137.207L175.116 148.286L177.257 152.543C177.257 152.543 181.232 153.874 185.513 157.543C189.793 161.213 194.074 162.214 192.851 166.303C191.628 170.392 189.182 174.798 176.339 169.69C163.497 164.582 152.795 144.509 152.795 144.509" stroke="#263238" stroke-width="0.59955" stroke-miterlimit="10" stroke-linecap="round" stroke-linejoin="round"/>
<path d="M191.022 123.735C186.436 124.976 181.082 124.059 179.097 115.953C177.107 107.847 181.088 99.1955 183.684 98.3682" stroke="#263238" stroke-width="0.59955" stroke-miterlimit="10" stroke-linecap="round" stroke-linejoin="round"/>
<path d="M178.18 137.201C178.18 137.201 177.874 126.762 181.699 124.19" stroke="#263238" stroke-width="0.59955" stroke-miterlimit="10" stroke-linecap="round" stroke-linejoin="round"/>
<path opacity="0.4" d="M66.6459 189.044C66.6459 189.044 55.4403 187.647 52.9402 182.635C50.8717 178.486 39.6601 194.002 26.3921 200.813C37.4838 189.505 49.3129 176.801 52.9402 170.56C56.1777 164.984 60.2726 155.307 63.84 146.212C63.84 146.218 63.84 146.218 63.84 146.224C63.6601 153.766 59.6371 165.314 60.7883 171.327C60.7883 171.327 56.4715 172.394 57.3408 177.167C58.1982 181.939 66.6459 189.044 66.6459 189.044Z" fill="#FFC535"/>
<path d="M144.785 162.22C144.785 162.22 128.154 194.835 98.1704 202.228C98.1704 202.228 97.0252 208.679 91.953 211.449C89.2431 212.924 78.3133 229.309 68.7085 244.268" stroke="#263238" stroke-width="0.59955" stroke-miterlimit="10" stroke-linecap="round" stroke-linejoin="round"/>
<path d="M15.5762 211.671C28.3826 199.014 48.0658 178.947 52.9401 170.56C60.3146 157.861 72.1257 123.891 72.1257 123.891L117.715 73.2168" stroke="#263238" stroke-width="0.59955" stroke-miterlimit="10" stroke-linecap="round" stroke-linejoin="round"/>
<path d="M91.6892 111.918C91.6892 111.918 98.692 118.189 100.658 123.897" stroke="#263238" stroke-width="0.59955" stroke-miterlimit="10" stroke-linecap="round" stroke-linejoin="round"/>
<path d="M174.349 189.044H98.9976C96.7673 189.044 94.9626 187.239 94.9626 185.009V24.6111C94.9626 22.3808 96.7673 20.5762 98.9976 20.5762H174.349C176.579 20.5762 178.384 22.3808 178.384 24.6111V185.015C178.384 187.239 176.579 189.044 174.349 189.044Z" fill="#263238"/>
<path d="M153.215 25.1623L151.62 28.0881C151.272 28.7296 150.601 29.1253 149.869 29.1253H123.477C122.746 29.1253 122.074 28.7236 121.726 28.0881L120.132 25.1623C119.784 24.5208 119.112 24.1251 118.381 24.1251H99.9568C98.8536 24.1251 97.9663 25.0184 97.9663 26.1156V183.833C97.9663 184.936 98.8596 185.824 99.9568 185.824H173.378C174.481 185.824 175.368 184.93 175.368 183.833V26.1156C175.368 25.0124 174.475 24.1251 173.378 24.1251H154.954C154.234 24.1191 153.563 24.5208 153.215 25.1623Z" fill="#FFC535" stroke="#263238" stroke-width="0.59955" stroke-miterlimit="10" stroke-linecap="round" stroke-linejoin="round"/>
<path d="M130.954 26.578C131.546 26.578 132.027 26.0975 132.027 25.5048C132.027 24.9121 131.546 24.4316 130.954 24.4316C130.361 24.4316 129.88 24.9121 129.88 25.5048C129.88 26.0975 130.361 26.578 130.954 26.578Z" stroke="white" stroke-width="0.59955" stroke-miterlimit="10"/>
<path d="M143.466 25.5044C143.466 25.8701 143.166 26.1699 142.801 26.1699C142.435 26.1699 142.135 25.8701 142.135 25.5044C142.135 25.1386 142.435 24.8389 142.801 24.8389C143.172 24.8389 143.466 25.1326 143.466 25.5044Z" stroke="white" stroke-width="0.59955" stroke-miterlimit="10"/>
<path d="M140.48 25.085H133.963C133.73 25.085 133.544 25.2708 133.544 25.5046C133.544 25.7325 133.73 25.9243 133.963 25.9243H140.48C140.714 25.9243 140.9 25.7385 140.9 25.5046C140.894 25.2708 140.708 25.085 140.48 25.085Z" fill="white"/>
<path d="M111.624 28.1299H104.592V31.1156H111.624V28.1299Z" stroke="#263238" stroke-width="0.59955" stroke-miterlimit="10" stroke-linecap="round" stroke-linejoin="round"/>
<path d="M112.709 28.6338H111.618V30.6183H112.709V28.6338Z" stroke="#263238" stroke-width="0.59955" stroke-miterlimit="10" stroke-linecap="round" stroke-linejoin="round"/>
<path d="M161.459 30.0371H160.212V31.1223H161.459V30.0371Z" stroke="#263238" stroke-width="0.59955" stroke-miterlimit="10" stroke-linecap="round" stroke-linejoin="round"/>
<path d="M163.893 28.9463H162.646V31.1227H163.893V28.9463Z" stroke="#263238" stroke-width="0.59955" stroke-miterlimit="10" stroke-linecap="round" stroke-linejoin="round"/>
<path d="M166.327 27.8555H165.08V31.117H166.327V27.8555Z" stroke="#263238" stroke-width="0.59955" stroke-miterlimit="10" stroke-linecap="round" stroke-linejoin="round"/>
<path d="M168.755 26.7695H167.508V31.1223H168.755V26.7695Z" stroke="#263238" stroke-width="0.59955" stroke-miterlimit="10" stroke-linecap="round" stroke-linejoin="round"/>
<path d="M119.574 47.3342V48.6052C119.574 50.164 118.819 51.0154 117.29 51.0154H116.565V54.6846H115.03V44.918H117.29C118.825 44.918 119.574 45.7693 119.574 47.3342ZM116.565 46.3149V49.6184H117.29C117.776 49.6184 118.046 49.3966 118.046 48.7011V47.2382C118.046 46.5428 117.782 46.3209 117.29 46.3209H116.565V46.3149Z" fill="#263238"/>
<path d="M125.072 54.6786H123.525L123.262 52.91H121.379L121.109 54.6786H119.7L121.259 44.918H123.507L125.072 54.6786ZM121.571 51.585H123.046L122.32 46.6507H122.29L121.571 51.585Z" fill="#263238"/>
<path d="M126.535 51.4469L124.598 44.9238H126.199L127.356 49.3725H127.386L128.543 44.9238H130.006L128.07 51.4469V54.6845H126.535V51.4469Z" fill="#263238"/>
<path d="M133.856 51.8488H133.885L134.917 44.918H137.051V54.6786H135.6V47.6819H135.57L134.539 54.6786H133.088L131.973 47.7778H131.943V54.6786H130.606V44.918H132.74L133.856 51.8488Z" fill="#263238"/>
<path d="M139.701 49.0369H141.806V50.4338H139.701V53.2937H142.351V54.6906H138.166V44.918H142.351V46.3149H139.701V49.0369Z" fill="#263238"/>
<path d="M144.696 47.61H144.666V54.6786H143.287V44.918H145.211L146.758 50.7576H146.788V44.918H148.155V54.6786H146.578L144.696 47.61Z" fill="#263238"/>
<path d="M148.808 44.918H153.551V46.3149H151.95V54.6786H150.415V46.3149H148.814V44.918H148.808Z" fill="#263238"/>
<path d="M156.285 44.8105C157.778 44.8105 158.545 45.7039 158.545 47.2627V47.5685H157.094V47.1668C157.094 46.4713 156.818 46.2075 156.327 46.2075C155.841 46.2075 155.559 46.4713 155.559 47.1668C155.559 47.8802 155.865 48.4078 156.872 49.2832C158.155 50.4103 158.557 51.2197 158.557 52.3349C158.557 53.8937 157.778 54.7871 156.273 54.7871C154.768 54.7871 153.989 53.8937 153.989 52.3349V51.7353H155.439V52.4308C155.439 53.1263 155.745 53.3781 156.237 53.3781C156.722 53.3781 157.034 53.1263 157.034 52.4308C157.034 51.7174 156.728 51.1898 155.721 50.3144C154.438 49.1873 154.036 48.3779 154.036 47.2627C154.025 45.7039 154.792 44.8105 156.285 44.8105Z" fill="#263238"/>
<path d="M99.0639 152.789C99.9632 166.609 93.56 181.999 93.56 181.999L58.978 172.262L52.9465 170.56C58.93 162.226 61.7959 145.828 60.2311 132.554C60.1112 131.553 60.0332 130.606 59.9853 129.712C59.4157 118.765 63.9303 115.557 67.7794 110.719C71.9463 105.479 81.3172 85.6934 81.3172 81.0109C81.3172 76.3224 93.0324 64.871 90.4304 51.8548C90.4304 51.8548 93.9737 49.6604 97.535 51.4651C99.1478 52.2805 100.767 53.9172 102.062 56.945C105.113 64.0796 100.833 84.2245 97.1813 89.1708L90.1606 118.237C90.1606 118.237 92.5288 122.32 94.8551 129.73C96.6657 135.516 98.4464 143.316 99.0639 152.789Z" fill="white"/>
<path opacity="0.4" d="M59.9789 129.718C61.9334 135.078 64.0199 138.681 63.84 146.223C63.6601 153.766 59.6372 165.313 60.7883 171.327C60.7883 171.327 59.877 171.548 58.9717 172.262L52.9402 170.559C58.9237 162.225 61.7895 145.828 60.2247 132.554C60.1048 131.552 60.0329 130.611 59.9789 129.718Z" fill="#FFC535"/>
<path opacity="0.4" d="M97.181 89.1764L90.1603 118.243C90.1603 118.243 92.5285 122.326 94.8548 129.736C94.8488 129.73 94.8488 129.724 94.8428 129.718C90.0944 122.056 86.0774 119.783 86.0774 119.783C89.243 115.982 91.6832 88.2291 91.6832 88.2291C91.6832 88.2291 101.606 76.5679 100.652 64.367C100.209 58.7552 98.8598 54.4625 97.5228 51.4707C99.1356 52.2861 100.754 53.9229 102.049 56.9506C105.113 64.0852 100.826 84.2301 97.181 89.1764Z" fill="#FFC535"/>
<path d="M52.9402 170.56C58.9297 162.232 61.7895 145.828 60.2307 132.554C58.6659 119.28 63.6122 115.959 67.779 110.718C71.9459 105.484 81.3169 85.6993 81.3169 81.0108C81.3169 76.3223 93.0321 64.8709 90.43 51.8547C90.43 51.8547 97.9064 47.2202 102.067 56.9449C105.119 64.0795 100.832 84.2244 97.193 89.1707L90.1722 118.237C90.1722 118.237 97.6666 131.157 99.0695 152.789C99.9689 166.609 93.5657 181.999 93.5657 181.999" stroke="#263238" stroke-width="0.59955" stroke-miterlimit="10" stroke-linecap="round" stroke-linejoin="round"/>
<path d="M76.0588 193.061C76.0588 193.061 83.9309 197.911 88.5235 205.567" stroke="#263238" stroke-width="0.59955" stroke-miterlimit="10" stroke-linecap="round" stroke-linejoin="round"/>
<path d="M98.1702 202.228C98.1702 202.228 91.3893 203.193 85.2619 195.86C81.3348 191.16 69.4098 189.038 66.6638 176.759" stroke="#263238" stroke-width="0.59955" stroke-miterlimit="10" stroke-linecap="round" stroke-linejoin="round"/>
<path d="M137.13 74.1143C122.44 74.1143 110.518 86.0364 110.518 100.726C110.518 115.416 122.44 127.338 137.13 127.338C151.82 127.338 163.742 115.416 163.742 100.726C163.742 86.0364 151.82 74.1143 137.13 74.1143ZM129.918 112.143L120.364 102.589C120.118 102.343 119.922 102.05 119.789 101.728C119.656 101.406 119.587 101.061 119.587 100.713C119.587 100.364 119.656 100.019 119.789 99.6976C119.922 99.3756 120.118 99.0832 120.364 98.8368C120.611 98.5904 120.903 98.395 121.225 98.2616C121.547 98.1283 121.892 98.0596 122.24 98.0596C122.589 98.0596 122.934 98.1283 123.256 98.2616C123.578 98.395 123.87 98.5904 124.117 98.8368L131.807 106.501L150.116 88.192C150.614 87.6944 151.289 87.4149 151.993 87.4149C152.696 87.4149 153.371 87.6944 153.869 88.192C154.366 88.6896 154.646 89.3644 154.646 90.0681C154.646 90.7718 154.366 91.4467 153.869 91.9443L133.67 112.143C133.424 112.389 133.132 112.585 132.81 112.719C132.488 112.852 132.143 112.921 131.794 112.921C131.446 112.921 131.1 112.852 130.779 112.719C130.457 112.585 130.164 112.389 129.918 112.143Z" fill="white"/>
<path opacity="0.2" d="M196.724 238.536C179.367 230.233 189.884 223.584 166.003 213.271C142.123 202.965 141.878 194.158 144.761 173.905C147.645 153.646 145.355 132.116 152.304 130.288C159.253 128.459 146.866 100.526 154.966 90.6514L194.8 168.137L196.724 238.536Z" fill="black" fill-opacity="0.7"/>
<path d="M261.398 237.727C260.582 235.395 259.749 232.846 259.113 230.544C258.286 227.528 257.638 225.142 256.11 222.366C255.87 221.917 255.606 221.449 255.318 220.951C253.693 218.056 251.469 214.093 250.168 209.224C249.299 205.945 250.15 197.869 250.983 190.051C251.571 184.427 252.129 179.121 251.973 176.111L251.925 175.044C251.517 167.172 250.666 150.792 248.903 146.259C247.194 141.895 245.6 141.241 242.692 140.072C242.392 139.94 242.08 139.82 241.75 139.682C240.659 139.227 238.801 138.267 236.66 137.158C231.834 134.658 225.826 131.547 222.775 131.133C218.746 130.599 214.861 131.391 214.219 131.529C210.46 128.639 204.063 124.921 202.156 124.85C200.591 124.772 197.192 125.749 195.543 126.258C195.159 126.378 194.866 126.468 194.722 126.522C193.349 125.503 192.198 124.742 191.454 124.376C191.37 124.34 191.298 124.304 191.232 124.28C189.116 123.411 185.92 123.375 184.176 123.423C183.648 123.447 183.24 123.477 183.049 123.495C179.763 118.434 176.519 113.392 175.116 111.18C172.179 106.527 163.084 87.3777 162.988 87.1798C162.964 87.1319 162.928 87.0959 162.868 87.0839C162.868 87.0839 162.838 87.0659 162.784 87.0539C162.076 86.8441 156.866 85.5251 154.774 90.5733C152.483 96.0652 155.757 108.14 158.941 112.523C160.475 114.639 164.66 123.243 168.917 132.152C167.82 133.165 159.096 141.229 154.858 142.734C151.386 143.963 152.196 161.752 152.849 176.045C153.095 181.321 153.299 185.86 153.239 188.588C153.119 193.864 162.718 201.136 172.017 208.157C180.428 214.524 189.116 221.101 190.135 225.88C190.417 227.229 191.22 228.314 192.18 229.543C193.78 231.581 195.843 233.986 196.718 238.548C196.976 239.909 199.17 241.696 200.891 244.622H263.928C263.412 243.243 262.417 240.653 261.398 237.727ZM174.061 142.938C177.113 149.329 179.002 153.154 179.445 153.562C179.895 153.97 179.877 156.014 179.859 157.981C179.835 159.719 179.823 161.584 180.039 163.161C179.295 163.814 174.607 168.089 173.66 171.542L169.673 166.842L168.665 152.117C169.271 151.488 173.372 147.153 174.061 142.938Z" fill="white"/>
<path opacity="0.4" d="M243.327 184.008C244.808 197.827 244.826 205.322 246.487 209.321C249.287 216.071 253.424 217.438 253.424 217.438C252.23 215.1 251.007 212.348 250.174 209.219C249.305 205.939 250.156 197.863 250.989 190.045C251.577 184.421 252.141 179.109 251.979 176.099L251.925 175.032C251.517 167.16 250.666 150.781 248.903 146.248C247.2 141.883 245.599 141.23 242.692 140.061C242.392 139.929 242.08 139.809 241.744 139.671C240.653 139.215 238.801 138.256 236.654 137.147C231.828 134.647 225.82 131.535 222.769 131.121C218.74 130.588 214.855 131.373 214.213 131.517C210.454 128.633 204.057 124.916 202.15 124.838C200.591 124.766 196.364 125.995 194.722 126.511C201.898 132.38 212.276 139.683 212.276 139.683C220.472 141.314 219.423 144.875 222.733 146.859C225.736 148.658 228.602 143.394 231.108 142.932C234.412 142.321 238.177 145.828 238.009 150.055C237.542 161.782 242.056 172.148 243.327 184.008Z" fill="#FFC535"/>
<path opacity="0.4" d="M201.898 141.181C201.898 141.181 195.405 135.797 192.294 133.968C189.182 132.146 188.702 125.964 191.148 124.459C191.232 124.405 191.328 124.375 191.448 124.363C191.37 124.327 191.292 124.285 191.226 124.261C189.11 123.386 185.914 123.356 184.17 123.41C187.791 130.107 190.639 135.251 191.412 136.372C194.032 140.162 201.898 141.181 201.898 141.181Z" fill="#FFC535"/>
<path opacity="0.4" d="M192.048 225.095C192.318 223.662 189.961 219.465 188.924 217.762C186.562 213.877 159.204 189.703 163.173 183.246C167.124 176.777 170.752 181.573 173.264 181.987C175.068 182.287 180.003 179.343 179.979 179.097C179.415 174.127 184.008 170.895 184.008 170.895C184.008 170.895 183.582 151.11 182.533 151.452C181.478 151.788 168.851 121.738 168.851 121.738C168.851 121.738 155.511 103.991 156.261 95.7177C157.01 87.4499 162.796 87.264 162.796 87.264L162.784 87.0422C162.076 86.8324 156.866 85.5134 154.774 90.5616C152.483 96.0534 155.757 108.128 158.941 112.511C160.475 114.627 164.66 123.231 168.917 132.14C167.82 133.154 159.096 141.218 154.858 142.722C151.386 143.951 152.196 161.74 152.849 176.033C153.095 181.309 153.299 185.848 153.239 188.576C153.119 193.852 162.718 201.125 172.017 208.145C180.428 214.512 189.116 221.09 190.135 225.868C190.417 227.217 191.22 228.302 192.18 229.531C192.03 227.793 191.91 225.85 192.048 225.095ZM174.061 142.938C177.113 149.329 179.002 153.155 179.445 153.562C179.895 153.97 179.877 156.014 179.859 157.981C179.835 159.72 179.823 161.584 180.039 163.161C179.295 163.815 174.607 168.089 173.66 171.543L169.673 166.842L168.665 152.117C169.271 151.488 173.372 147.153 174.061 142.938Z" fill="#FFC535"/>
<path d="M198.151 141.103C198.151 141.103 194.146 140.048 191.412 136.379C188.672 132.709 177.91 116 174.931 111.282C171.951 106.563 162.79 87.2696 162.79 87.2696C162.79 87.2696 157.154 85.381 154.96 90.6511C152.765 95.9151 155.769 107.804 159.109 112.391C162.448 116.971 178.33 152.267 179.589 153.412C180.848 154.551 178.96 163.958 181.484 166.236" stroke="#263238" stroke-width="0.59955" stroke-miterlimit="10" stroke-linecap="round" stroke-linejoin="round"/>
<path d="M180.273 163.245C180.273 163.245 174.457 168.311 173.773 172.01L169.457 166.932L168.438 152.039C168.438 152.039 173.648 146.823 173.929 142.183" stroke="#263238" stroke-width="0.59955" stroke-miterlimit="10" stroke-linecap="round" stroke-linejoin="round"/>
<path d="M169.175 132.188C169.175 132.188 159.516 141.302 154.924 142.926C150.331 144.551 153.677 178.696 153.449 188.582C153.221 198.469 188.199 215.688 190.339 225.814C191.191 229.837 194.716 230.659 196.868 238.375" stroke="#263238" stroke-width="0.59955" stroke-miterlimit="10" stroke-linecap="round" stroke-linejoin="round"/>
<path d="M182.923 123.705C182.923 123.705 188.181 123.231 191.142 124.46C194.104 125.689 206.137 136.026 209.033 138.004C211.929 139.977 216.3 140.726 217.127 142.849" stroke="#263238" stroke-width="0.59955" stroke-miterlimit="10" stroke-linecap="round" stroke-linejoin="round"/>
<path d="M194.68 126.75C194.68 126.75 200.094 124.963 202.132 125.053C204.171 125.143 211.953 129.736 215.43 132.787C218.908 135.839 222.397 137.53 224.489 138.291" stroke="#263238" stroke-width="0.59955" stroke-miterlimit="10" stroke-linecap="round" stroke-linejoin="round"/>
<path d="M214.171 131.751C214.171 131.751 218.362 130.75 222.751 131.337C227.139 131.931 238.159 138.412 241.672 139.875C245.18 141.338 246.865 141.607 248.711 146.332C250.552 151.056 251.403 169.019 251.775 176.118C252.147 183.216 248.447 203.547 249.97 209.273C251.493 214.992 254.257 219.405 255.93 222.469" stroke="#263238" stroke-width="0.59955" stroke-miterlimit="10" stroke-linecap="round" stroke-linejoin="round"/>
<path d="M168.438 152.034C168.438 152.034 167.562 148.539 166.411 148.089" stroke="#263238" stroke-width="0.59955" stroke-miterlimit="10" stroke-linecap="round" stroke-linejoin="round"/>
<path d="M169.457 166.926C169.457 166.926 170.236 170.823 171.094 172.951C171.951 175.08 170.614 178.155 170.614 178.155" stroke="#263238" stroke-width="0.59955" stroke-miterlimit="10" stroke-linecap="round" stroke-linejoin="round"/>
<path d="M173.774 172.004C173.63 175.409 177.023 179.39 177.845 178.827" stroke="#263238" stroke-width="0.59955" stroke-miterlimit="10" stroke-linecap="round" stroke-linejoin="round"/>
<path d="M191.023 152.033C191.023 152.033 194.656 146.146 198.151 145.858C201.641 145.57 205.67 150.523 207.822 150.061C209.98 149.599 212.684 146.428 216.3 145.846C219.921 145.265 221.618 147.009 224.49 147.153C227.367 147.297 227.655 143.46 231.103 142.932C234.55 142.405 235.701 144.155 238.003 144.575C240.306 144.995 240.881 143.208 242.746 142.171" stroke="#263238" stroke-width="0.59955" stroke-miterlimit="10" stroke-linecap="round" stroke-linejoin="round"/>
</g>
<defs>
<clipPath id="clip0_7386_9423">
<rect width="269" height="244.604" fill="white"/>
</clipPath>
</defs>
</svg>
