<svg width="38" height="39" viewBox="0 0 38 39" fill="none" xmlns="http://www.w3.org/2000/svg">
<circle cx="19" cy="19.5264" r="19" fill="white"/>
<path d="M27.7628 13.4561V16.7018C27.7628 17.6594 26.7645 18.4328 25.5347 18.4328C24.305 18.4328 23.3066 17.6573 23.3066 16.7018V13.4561H27.7628Z" fill="#C7C7C7"/>
<path d="M23.3063 13.4561V16.7018C23.3063 17.6594 22.3079 18.4328 21.0782 18.4328C19.8463 18.4328 18.8501 17.6573 18.8501 16.7018V13.4561H23.3063Z" fill="#DDDDDD"/>
<path d="M24.6155 9.54395L27.7627 13.4559H23.3065L21.9097 9.54395H24.6155Z" fill="#C7C7C7"/>
<path d="M21.9096 9.54395L23.3065 13.4559H18.8481V9.54395H21.9096Z" fill="#DDDDDD"/>
<path d="M9.93555 13.4561V16.7018C9.93555 17.6594 10.9339 18.4328 12.1636 18.4328C13.3934 18.4328 14.3917 17.6573 14.3917 16.7018V13.4561H9.93555Z" fill="#DDDDDD"/>
<path d="M14.3916 13.4561V16.7018C14.3916 17.6594 15.39 18.4328 16.6197 18.4328C17.8494 18.4328 18.8478 17.6573 18.8478 16.7018V13.4561H14.3916Z" fill="#C7C7C7"/>
<path d="M13.0806 9.54395L9.93555 13.4559H14.3917L15.7886 9.54395H13.0806Z" fill="#DDDDDD"/>
<path d="M15.7884 9.54395L14.3916 13.4559H18.8478V9.54395H15.7884Z" fill="#C7C7C7"/>
<path d="M15.7864 8.58008H13.0806V9.54415H15.7864V8.58008Z" fill="#DDDDDD"/>
<path d="M18.8501 8.58008H15.7886V9.54415H18.8501V8.58008Z" fill="#C7C7C7"/>
<path d="M24.6155 8.58008H21.9097V9.54415H24.6155V8.58008Z" fill="#C7C7C7"/>
<path d="M21.9096 8.58008H18.8481V9.54415H21.9096V8.58008Z" fill="#DDDDDD"/>
<path d="M17.7382 20.2031H10.6255V30.3966H17.7382V20.2031Z" fill="#FFC535"/>
<path d="M18.6423 20.2031H17.2969V30.3966H18.6423V20.2031Z" fill="#DCAB14"/>
<path d="M19.9875 20.2031H18.6421V30.3966H19.9875V20.2031Z" fill="#EEBF1B"/>
<path d="M17.2969 30.3965L18.6423 28.8818L19.9877 30.3965H17.2969Z" fill="#F2C537"/>
<path d="M27.5055 24.6692C27.4326 24.5835 27.3255 24.5342 27.212 24.5342H17.7726C17.659 24.5342 17.5519 24.5835 17.4791 24.6692C17.4062 24.7548 17.3741 24.8684 17.3912 24.9798L18.1989 30.1472C18.2289 30.3358 18.3896 30.4729 18.5803 30.4729H26.4021C26.5928 30.4729 26.7535 30.3336 26.7835 30.1472L27.5912 24.9798C27.6104 24.8684 27.5783 24.7548 27.5055 24.6692Z" fill="#C7C7C7"/>
<path d="M22.1475 28.5004C22.1582 28.8367 21.8947 29.1174 21.5584 29.1281C21.222 29.1388 20.9414 28.8732 20.9306 28.5368L20.8792 26.8722C20.8685 26.5358 21.132 26.2552 21.4684 26.2445C21.8047 26.2337 22.0854 26.4994 22.0961 26.8358L22.1475 28.5004Z" fill="white"/>
<path d="M21.1577 28.4638L21.1106 26.9577C21.102 26.6534 21.3398 26.3985 21.6441 26.3899C21.7662 26.3857 21.8797 26.4242 21.9718 26.4885C21.8562 26.3364 21.674 26.24 21.4684 26.2464C21.132 26.2571 20.8685 26.5378 20.8792 26.8741L20.9306 28.5388C20.9414 28.8751 21.222 29.1386 21.5584 29.1301C21.7383 29.1236 21.8969 29.0401 22.004 28.9115C21.9226 28.9629 21.8283 28.9972 21.7255 28.9994C21.4212 29.0058 21.1663 28.768 21.1577 28.4638Z" fill="#FFC535"/>
<path d="M20.3777 28.5004C20.3884 28.8367 20.1227 29.1174 19.7864 29.1281C19.45 29.1388 19.1694 28.8732 19.1587 28.5368L19.1072 26.8722C19.0965 26.5358 19.3622 26.2552 19.6964 26.2445C20.0328 26.2337 20.3134 26.4994 20.3241 26.8358L20.3777 28.5004Z" fill="white"/>
<path d="M19.3858 28.4638L19.3386 26.9577C19.3301 26.6534 19.5679 26.3985 19.8721 26.3899C19.9942 26.3857 20.1077 26.4242 20.1999 26.4885C20.0842 26.3364 19.8999 26.24 19.6964 26.2464C19.3601 26.2571 19.0965 26.5378 19.1072 26.8741L19.1587 28.5388C19.1694 28.8751 19.45 29.1386 19.7864 29.1301C19.9663 29.1236 20.1249 29.0401 20.232 28.9115C20.1506 28.9629 20.0563 28.9972 19.9535 28.9994C19.6493 29.0058 19.3943 28.768 19.3858 28.4638Z" fill="#FFC535"/>
<path d="M22.7768 28.5215C22.779 28.8579 23.0553 29.1278 23.3917 29.1257C23.7281 29.1235 23.998 28.8493 23.9959 28.5129L23.983 26.8483C23.9809 26.512 23.7066 26.242 23.3703 26.2442C23.0339 26.2463 22.764 26.5205 22.7661 26.8569L22.7768 28.5215Z" fill="white"/>
<path d="M23.7646 28.4485L23.7539 26.9424C23.7517 26.6382 23.5032 26.3939 23.199 26.3961C23.0769 26.3961 22.9655 26.4389 22.8755 26.5075C22.9848 26.3511 23.1647 26.2482 23.3704 26.2461C23.7067 26.244 23.981 26.5139 23.9831 26.8503L23.996 28.5149C23.9981 28.8513 23.7282 29.1255 23.3918 29.1276C23.2118 29.1298 23.0512 29.0505 22.9376 28.9262C23.0212 28.9755 23.1154 29.0034 23.2183 29.0034C23.5225 29.0012 23.7667 28.7527 23.7646 28.4485Z" fill="#FFC535"/>
<path d="M24.549 28.5215C24.5511 28.8579 24.8275 29.1278 25.1617 29.1257C25.4981 29.1235 25.768 28.8493 25.7659 28.5129L25.753 26.8483C25.7509 26.512 25.4767 26.242 25.1403 26.2442C24.8039 26.2463 24.534 26.5205 24.5361 26.8569L24.549 28.5215Z" fill="white"/>
<path d="M25.5366 28.4485L25.5258 26.9424C25.5237 26.6382 25.2752 26.3939 24.971 26.3961C24.8488 26.3961 24.7374 26.4389 24.6475 26.5075C24.7567 26.3511 24.9367 26.2482 25.1424 26.2461C25.4787 26.244 25.7529 26.5139 25.7551 26.8503L25.7679 28.5149C25.7701 28.8513 25.5001 29.1255 25.1638 29.1276C24.9838 29.1298 24.8231 29.0505 24.7117 28.9262C24.7953 28.9755 24.8896 29.0034 24.9924 29.0034C25.2945 29.0012 25.5387 28.7527 25.5366 28.4485Z" fill="#FFC535"/>
<path d="M26.7576 25.3549L18.2395 25.4063L17.4575 25.4106L17.4961 25.6527H18.2781H26.7062H27.4882L27.531 25.3506L26.7576 25.3549Z" fill="#559AA5"/>
<path d="M27.9788 24.4181C27.8717 24.2039 27.6746 24.0625 27.4518 24.0625H17.4404C17.2154 24.0625 17.0205 24.206 16.9133 24.4181C16.8598 24.5274 16.8276 24.6538 16.8276 24.7888C16.8276 25.1894 17.1019 25.5172 17.4404 25.5172H27.4518C27.7902 25.5172 28.0645 25.1915 28.0645 24.7888C28.0645 24.6517 28.0345 24.5253 27.9788 24.4181Z" fill="#C7C7C7"/>
<path d="M20.4844 24.5883C20.5508 24.8797 20.3687 25.171 20.0774 25.2396C19.786 25.306 19.4946 25.1239 19.4282 24.8325C19.3618 24.5412 19.5439 24.2498 19.8353 24.1834C20.1266 24.1148 20.418 24.2969 20.4844 24.5883Z" fill="#FFC535"/>
<path d="M22.4426 20.8066C22.4147 21.0765 22.1748 21.2715 21.9048 21.2436C21.637 21.2158 21.4421 20.9737 21.4699 20.7037C21.4978 20.4338 21.7377 20.2367 22.0077 20.2667C22.2776 20.2945 22.4726 20.5366 22.4426 20.8066Z" fill="#FFC535"/>
<path d="M20.3129 24.8172C20.2165 25.0079 19.9959 25.1043 19.8181 25.0315C19.6402 24.9586 19.5738 24.7422 19.6702 24.5516L21.5877 20.721C21.6841 20.5303 21.9047 20.4339 22.0826 20.5067C22.2604 20.5796 22.3268 20.796 22.2304 20.9866L20.3129 24.8172Z" fill="#D9D9D9"/>
<path d="M24.4074 24.5981C24.3388 24.8894 24.5231 25.1808 24.8145 25.2494C25.1058 25.3158 25.3972 25.1337 25.4657 24.8423C25.5322 24.5509 25.35 24.2596 25.0587 24.1932C24.7673 24.1246 24.476 24.3067 24.4074 24.5981Z" fill="#FFC535"/>
<path d="M22.4494 20.8173C22.4773 21.0873 22.7194 21.2822 22.9872 21.2544C23.255 21.2265 23.4499 20.9844 23.4221 20.7145C23.3942 20.4445 23.1543 20.2474 22.8843 20.2774C22.6165 20.3053 22.4216 20.5474 22.4494 20.8173Z" fill="#FFC535"/>
<path d="M24.5808 24.828C24.6772 25.0186 24.8979 25.1151 25.0757 25.0422C25.2535 24.9694 25.32 24.753 25.2235 24.5623L23.3061 20.7317C23.2097 20.541 22.989 20.4446 22.8112 20.5175C22.6334 20.5903 22.567 20.8067 22.6634 20.9974L24.5808 24.828Z" fill="#D9D9D9"/>
</svg>
