<svg width="20" height="20" viewBox="0 0 20 20" fill="none" xmlns="http://www.w3.org/2000/svg">
<path d="M5.15518 6.66602H14.8427L14.2635 15.9368C14.237 16.36 14.0502 16.7571 13.7412 17.0474C13.4322 17.3377 13.0242 17.4993 12.6002 17.4993H7.39852C6.97453 17.4993 6.5665 17.3377 6.25747 17.0474C5.94845 16.7571 5.76168 16.36 5.73518 15.9368L5.15518 6.66602ZM15.8327 4.16602V5.83268H4.16602V4.16602H6.66602V3.33268C6.66602 2.89065 6.84161 2.46673 7.15417 2.15417C7.46673 1.84161 7.89065 1.66602 8.33268 1.66602H11.666C12.108 1.66602 12.532 1.84161 12.8445 2.15417C13.1571 2.46673 13.3327 2.89065 13.3327 3.33268V4.16602H15.8327ZM8.33268 4.16602H11.666V3.33268H8.33268V4.16602Z" fill="#CCCCCC"/>
</svg>
